<svg width="1440" height="2239" viewBox="0 0 1440 2239" fill="none" xmlns="http://www.w3.org/2000/svg">
<rect width="1440" height="2239" fill="white"/>
<rect x="366.5" y="365.5" width="707" height="1568" fill="#C4C4C4" stroke="black"/>
<path d="M662.579 1144.05L662.879 1145.77L676.354 1145.15C676.279 1146.2 676.129 1147.35 675.854 1148.67L677.879 1148.82C678.504 1145.75 678.504 1143.5 678.504 1141.42V1139.5H663.129V1141.17H676.479V1141.42C676.479 1142.12 676.479 1142.82 676.454 1143.6L662.579 1144.05ZM665.354 1153.9H663.304V1160.5H678.979V1158.82H665.354V1153.9ZM671.029 1150.32V1147.07H668.979V1150.32H660.754V1151.97H680.979V1150.32H671.029ZM702.652 1138.45H700.677V1155.25H702.652V1138.45ZM696.352 1154.67H698.302V1138.9H696.352V1144.77H693.377V1146.45H696.352V1154.67ZM694.227 1149.27C691.902 1149.75 689.877 1149.87 686.727 1149.87V1146.62H692.327V1145.02H686.727V1141.95H693.227V1140.3H684.752V1151.52H686.177C689.752 1151.52 691.852 1151.42 694.427 1150.92L694.227 1149.27ZM690.127 1158.67V1153.4H688.077V1160.35H703.302V1158.67H690.127ZM708.75 1152.55C712.325 1151.82 715.5 1149.92 716.9 1147.05C718.275 1149.92 721.45 1151.82 725 1152.55L725.825 1150.87C721.525 1150.12 717.925 1147.35 717.925 1143.67H725.125V1142.02H717.925V1138.97H715.85V1142.02H708.625V1143.67H715.85C715.85 1147.35 712.25 1150.12 707.95 1150.87L708.75 1152.55ZM706.725 1156.3V1157.97H727.075V1156.3H706.725ZM738.225 1145.07C738.225 1143 739.875 1141.5 742.05 1141.5C744.25 1141.5 745.85 1143 745.85 1145.07C745.85 1147.17 744.25 1148.67 742.05 1148.67C739.875 1148.67 738.225 1147.17 738.225 1145.07ZM752.325 1143.32V1146.82H747.5C747.7 1146.27 747.8 1145.7 747.8 1145.07C747.8 1144.42 747.7 1143.85 747.525 1143.32H752.325ZM752.325 1148.5V1151.7H754.4V1138.42H752.325V1141.65H746.575C745.55 1140.5 743.95 1139.77 742.05 1139.77C738.725 1139.77 736.275 1141.95 736.275 1145.07C736.275 1148.22 738.725 1150.42 742.05 1150.42C743.95 1150.42 745.55 1149.7 746.575 1148.5H752.325ZM746.975 1159.2C743.6 1159.2 741.55 1158.2 741.55 1156.52C741.55 1154.82 743.6 1153.82 746.975 1153.82C750.4 1153.82 752.45 1154.82 752.45 1156.52C752.45 1158.2 750.4 1159.2 746.975 1159.2ZM746.975 1152.22C742.375 1152.22 739.525 1153.8 739.525 1156.52C739.525 1159.25 742.375 1160.83 746.975 1160.83C751.6 1160.83 754.475 1159.25 754.475 1156.52C754.475 1153.8 751.6 1152.22 746.975 1152.22ZM762.398 1154.55H775.323V1160.88H777.398V1152.87H762.398V1154.55ZM770.548 1146.75C770.698 1146.22 770.798 1145.67 770.798 1145.05C770.798 1144.45 770.698 1143.9 770.548 1143.38H775.323V1146.75H770.548ZM765.023 1148.72C762.848 1148.72 761.223 1147.2 761.223 1145.05C761.223 1142.95 762.848 1141.42 765.023 1141.42C767.223 1141.42 768.848 1142.95 768.848 1145.05C768.848 1147.2 767.223 1148.72 765.023 1148.72ZM775.323 1138.45V1141.72H769.673C768.623 1140.45 766.973 1139.67 765.023 1139.67C761.723 1139.67 759.273 1141.9 759.273 1145.05C759.273 1148.22 761.723 1150.47 765.023 1150.47C766.973 1150.47 768.598 1149.7 769.648 1148.42H775.323V1151.65H777.398V1138.42L775.323 1138.45Z" fill="black"/>
<rect x="1082.5" y="365.5" width="230" height="909" fill="#C4C4C4" stroke="black"/>
<path d="M1117.08 799.05L1117.38 800.775L1130.86 800.15C1130.78 801.2 1130.63 802.35 1130.36 803.675L1132.38 803.825C1133.01 800.75 1133.01 798.5 1133.01 796.425V794.5H1117.63V796.175H1130.98V796.425C1130.98 797.125 1130.98 797.825 1130.96 798.6L1117.08 799.05ZM1119.86 808.9H1117.81V815.5H1133.48V813.825H1119.86V808.9ZM1125.53 805.325V802.075H1123.48V805.325H1115.26V806.975H1135.48V805.325H1125.53ZM1157.15 793.45H1155.18V810.25H1157.15V793.45ZM1150.85 809.675H1152.8V793.9H1150.85V799.775H1147.88V801.45H1150.85V809.675ZM1148.73 804.275C1146.4 804.75 1144.38 804.875 1141.23 804.875V801.625H1146.83V800.025H1141.23V796.95H1147.73V795.3H1139.25V806.525H1140.68C1144.25 806.525 1146.35 806.425 1148.93 805.925L1148.73 804.275ZM1144.63 813.675V808.4H1142.58V815.35H1157.8V813.675H1144.63ZM1163.25 807.55C1166.83 806.825 1170 804.925 1171.4 802.05C1172.78 804.925 1175.95 806.825 1179.5 807.55L1180.33 805.875C1176.03 805.125 1172.43 802.35 1172.43 798.675H1179.63V797.025H1172.43V793.975H1170.35V797.025H1163.13V798.675H1170.35C1170.35 802.35 1166.75 805.125 1162.45 805.875L1163.25 807.55ZM1161.23 811.3V812.975H1181.58V811.3H1161.23ZM1197.95 795.375H1195.93V799.4C1195.93 803.475 1193.38 807.775 1190.15 809.425L1191.38 811.075C1193.9 809.725 1195.98 806.925 1196.95 803.65C1197.98 806.725 1200 809.35 1202.38 810.625L1203.65 809C1200.5 807.425 1197.95 803.35 1197.95 799.4V795.375ZM1211.38 802.525H1207.68V793.45H1205.63V815.85H1207.68V804.225H1211.38V802.525ZM1229.72 793.425V815.9H1231.77V793.425H1229.72ZM1219.95 795.15C1216.62 795.15 1214.25 798.2 1214.25 802.975C1214.25 807.75 1216.62 810.8 1219.95 810.8C1223.27 810.8 1225.65 807.75 1225.65 802.975C1225.65 798.2 1223.27 795.15 1219.95 795.15ZM1219.95 797C1222.12 797 1223.67 799.35 1223.67 802.975C1223.67 806.625 1222.12 808.975 1219.95 808.975C1217.75 808.975 1216.2 806.625 1216.2 802.975C1216.2 799.35 1217.75 797 1219.95 797ZM1254.4 804.175H1241.02V797.175H1254.17V795.475H1239V805.85H1254.4V804.175ZM1236.4 811.125V812.825H1256.75V811.125H1236.4ZM1268.75 808.775H1262.35V802.875H1268.75V808.775ZM1268.75 801.25H1262.35V795.325H1260.32V810.45H1270.75V795.325H1268.75V801.25ZM1280.37 802.25H1276.67V793.45H1274.62V815.825H1276.67V803.975H1280.37V802.25ZM1121.51 835.786C1121.51 833.946 1121.76 832.181 1122.24 830.488C1122.74 828.795 1123.48 827.257 1124.45 825.874C1125.43 824.49 1126.44 823.514 1127.49 822.944L1127.96 824.433C1126.77 825.345 1125.79 826.736 1125.03 828.608C1124.27 830.48 1123.85 832.575 1123.78 834.895L1123.77 835.932C1123.77 839.073 1124.34 841.8 1125.49 844.111C1126.18 845.494 1127 846.577 1127.96 847.358L1127.49 848.737C1126.41 848.135 1125.38 847.126 1124.39 845.71C1122.47 842.943 1121.51 839.635 1121.51 835.786ZM1149.08 833.7C1145.16 832.95 1140.91 829.55 1140.91 825.725V824H1138.76V825.725C1138.76 829.55 1134.53 832.925 1130.61 833.7L1131.53 835.4C1134.91 834.6 1138.41 832.2 1139.83 828.925C1141.26 832.225 1144.76 834.625 1148.16 835.4L1149.08 833.7ZM1129.76 840.15V841.85H1150.08V840.15H1129.76ZM1154.61 831.525L1154.91 833.225L1168.43 832.475C1168.31 834.2 1168.06 836.05 1167.56 838.2L1169.58 838.4C1170.56 833.8 1170.56 830.775 1170.56 827.45V824.7H1155.18V826.375H1168.56V827.45C1168.56 828.6 1168.56 829.75 1168.51 830.925L1154.61 831.525ZM1152.78 840.05V841.725H1173.06V840.05H1152.78ZM1180.25 841.025H1193.55V836.25H1178.18V837.725H1191.53V839.6H1178.23V844.6H1194.25V843.1H1180.25V841.025ZM1186.95 832.975V831.15H1193.88V829.675H1180.38V827.725H1193.48V823.05H1178.3V824.5H1191.45V826.325H1178.35V831.15H1184.88V832.975H1175.73V834.525H1196.08V832.975H1186.95ZM1218.08 833.7C1214.15 832.95 1209.9 829.55 1209.9 825.725V824H1207.75V825.725C1207.75 829.55 1203.53 832.925 1199.6 833.7L1200.53 835.4C1203.9 834.6 1207.4 832.2 1208.83 828.925C1210.25 832.225 1213.75 834.625 1217.15 835.4L1218.08 833.7ZM1198.75 840.15V841.85H1219.08V840.15H1198.75ZM1226.45 826.5H1230.12V837.4C1228.9 837.45 1227.65 837.5 1226.45 837.525V826.5ZM1232.12 826.5H1234.52V824.85H1222.05V826.5H1224.45V837.55C1223.4 837.575 1222.4 837.575 1221.47 837.575L1221.72 839.3C1225.67 839.3 1231 839.225 1235.7 838.475L1235.55 836.95C1234.45 837.1 1233.3 837.2 1232.12 837.275V826.5ZM1242.7 831.4H1239V822.45H1236.95V844.85H1239V833.1H1242.7V831.4ZM1261.05 822.425V844.9H1263.1V822.425H1261.05ZM1251.27 824.15C1247.95 824.15 1245.57 827.2 1245.57 831.975C1245.57 836.75 1247.95 839.8 1251.27 839.8C1254.6 839.8 1256.97 836.75 1256.97 831.975C1256.97 827.2 1254.6 824.15 1251.27 824.15ZM1251.27 826C1253.45 826 1255 828.35 1255 831.975C1255 835.625 1253.45 837.975 1251.27 837.975C1249.07 837.975 1247.52 835.625 1247.52 831.975C1247.52 828.35 1249.07 826 1251.27 826ZM1273.34 835.908C1273.34 837.722 1273.1 839.464 1272.62 841.132C1272.15 842.792 1271.42 844.326 1270.44 845.734C1269.46 847.142 1268.44 848.143 1267.36 848.737L1266.88 847.358C1268.14 846.398 1269.14 844.908 1269.9 842.89C1270.66 840.864 1271.06 838.618 1271.07 836.152V835.761C1271.07 834.052 1270.89 832.465 1270.53 831C1270.18 829.528 1269.68 828.209 1269.03 827.045C1268.4 825.882 1267.68 824.974 1266.88 824.323L1267.36 822.944C1268.44 823.538 1269.46 824.531 1270.42 825.922C1271.4 827.314 1272.13 828.848 1272.61 830.524C1273.1 832.201 1273.34 833.995 1273.34 835.908Z" fill="black"/>
<rect x="127.5" y="365.5" width="230" height="909" fill="#C4C4C4" stroke="black"/>
<path d="M164.156 797.925H166.956V808.45C166.006 808.5 165.081 808.525 164.156 808.55V797.925ZM168.831 797.925H170.681V796.275H160.431V797.925H162.281V808.6C161.431 808.625 160.681 808.625 160.006 808.625L160.206 810.325C163.131 810.325 167.831 810.225 171.306 809.575L171.181 808.075C170.456 808.175 169.631 808.25 168.831 808.325V797.925ZM173.081 801.975H170.006V803.775H173.081V814.675H175.006V793.975H173.081V801.975ZM177.406 793.45V815.85H179.381V793.45H177.406ZM199.529 793.425V815.9H201.579V793.425H199.529ZM189.754 795.15C186.429 795.15 184.054 798.2 184.054 802.975C184.054 807.75 186.429 810.8 189.754 810.8C193.079 810.8 195.454 807.75 195.454 802.975C195.454 798.2 193.079 795.15 189.754 795.15ZM189.754 797C191.929 797 193.479 799.35 193.479 802.975C193.479 806.625 191.929 808.975 189.754 808.975C187.554 808.975 186.004 806.625 186.004 802.975C186.004 799.35 187.554 797 189.754 797ZM214.227 797.425H219.502V795.725H206.977V797.425H212.177V800.275C212.177 804.15 209.452 808.375 206.227 809.9L207.427 811.55C209.977 810.25 212.177 807.425 213.202 804.15C214.277 807.225 216.477 809.8 219.077 811L220.227 809.35C216.927 807.95 214.227 804.075 214.227 800.275V797.425ZM222.527 793.45V815.85H224.577V793.45H222.527ZM242.952 795.375H240.927V799.4C240.927 803.475 238.377 807.775 235.152 809.425L236.377 811.075C238.902 809.725 240.977 806.925 241.952 803.65C242.977 806.725 245.002 809.35 247.377 810.625L248.652 809C245.502 807.425 242.952 803.35 242.952 799.4V795.375ZM256.377 802.525H252.677V793.45H250.627V815.85H252.677V804.225H256.377V802.525ZM274.725 793.425V815.9H276.775V793.425H274.725ZM264.95 795.15C261.625 795.15 259.25 798.2 259.25 802.975C259.25 807.75 261.625 810.8 264.95 810.8C268.275 810.8 270.65 807.75 270.65 802.975C270.65 798.2 268.275 795.15 264.95 795.15ZM264.95 797C267.125 797 268.675 799.35 268.675 802.975C268.675 806.625 267.125 808.975 264.95 808.975C262.75 808.975 261.2 806.625 261.2 802.975C261.2 799.35 262.75 797 264.95 797ZM299.398 804.175H286.023V797.175H299.173V795.475H283.998V805.85H299.398V804.175ZM281.398 811.125V812.825H301.748V811.125H281.398ZM313.746 808.775H307.346V802.875H313.746V808.775ZM313.746 801.25H307.346V795.325H305.321V810.45H315.746V795.325H313.746V801.25ZM325.371 802.25H321.671V793.45H319.621V815.825H321.671V803.975H325.371V802.25ZM210.286 835.786C210.286 833.946 210.53 832.181 211.018 830.488C211.514 828.795 212.251 827.257 213.228 825.874C214.204 824.49 215.217 823.514 216.267 822.944L216.731 824.433C215.543 825.345 214.566 826.736 213.801 828.608C213.044 830.48 212.629 832.575 212.556 834.895L212.544 835.932C212.544 839.073 213.118 841.8 214.265 844.111C214.957 845.494 215.779 846.577 216.731 847.358L216.267 848.737C215.185 848.135 214.151 847.126 213.167 845.71C211.246 842.943 210.286 839.635 210.286 835.786ZM232.393 840.668C231.79 841.531 230.948 842.178 229.866 842.609C228.792 843.033 227.538 843.244 226.106 843.244C224.657 843.244 223.372 842.906 222.249 842.231C221.125 841.547 220.255 840.579 219.636 839.326C219.026 838.072 218.713 836.62 218.696 834.968V833.417C218.696 830.74 219.319 828.665 220.564 827.192C221.817 825.719 223.575 824.982 225.837 824.982C227.693 824.982 229.186 825.458 230.317 826.411C231.449 827.355 232.14 828.697 232.393 830.439H230.049C229.609 828.087 228.21 826.911 225.85 826.911C224.279 826.911 223.087 827.465 222.273 828.571C221.467 829.67 221.06 831.265 221.052 833.356V834.809C221.052 836.803 221.508 838.39 222.419 839.57C223.331 840.742 224.564 841.328 226.118 841.328C226.997 841.328 227.766 841.23 228.425 841.035C229.084 840.839 229.63 840.51 230.061 840.046V836.054H225.947V834.15H232.393V840.668ZM249.971 843H247.615L238.667 829.304V843H236.311V825.227H238.667L247.639 838.984V825.227H249.971V843ZM254.133 843V825.227H259.944C261.873 825.227 263.321 825.625 264.29 826.423C265.266 827.22 265.754 828.4 265.754 829.963C265.754 830.793 265.518 831.529 265.046 832.172C264.574 832.807 263.931 833.299 263.118 833.649C264.078 833.918 264.835 834.431 265.388 835.188C265.95 835.936 266.23 836.831 266.23 837.873C266.23 839.468 265.714 840.721 264.68 841.633C263.647 842.544 262.186 843 260.298 843H254.133ZM256.477 834.687V841.083H260.347C261.437 841.083 262.296 840.803 262.922 840.241C263.557 839.672 263.875 838.89 263.875 837.897C263.875 835.757 262.711 834.687 260.383 834.687H256.477ZM256.477 832.807H260.017C261.042 832.807 261.86 832.551 262.471 832.038C263.089 831.525 263.398 830.83 263.398 829.951C263.398 828.974 263.114 828.266 262.544 827.827C261.974 827.379 261.108 827.155 259.944 827.155H256.477V832.807ZM274.568 835.908C274.568 837.722 274.328 839.464 273.848 841.132C273.376 842.792 272.647 844.326 271.663 845.734C270.686 847.142 269.661 848.143 268.586 848.737L268.11 847.358C269.364 846.398 270.369 844.908 271.125 842.89C271.89 840.864 272.281 838.618 272.297 836.152V835.761C272.297 834.052 272.118 832.465 271.76 831C271.402 829.528 270.902 828.209 270.259 827.045C269.624 825.882 268.908 824.974 268.11 824.323L268.586 822.944C269.661 823.538 270.682 824.531 271.65 825.922C272.627 827.314 273.355 828.848 273.835 830.524C274.324 832.201 274.568 833.995 274.568 835.908Z" fill="black"/>
<rect x="0.5" y="60.5" width="1439" height="304" fill="#C4C4C4" stroke="black"/>
<rect x="366.5" y="60.5" width="707" height="154" fill="#C4C4C4" stroke="black"/>
<path d="M676.201 150.468C674.761 150.061 673.674 149.389 672.942 148.454C672.218 147.526 671.855 146.297 671.855 144.767V142.338C671.855 140.36 670.993 139.372 669.268 139.372V137.602C670.993 137.602 671.855 136.617 671.855 134.647V132.108C671.872 130.619 672.234 129.419 672.942 128.507C673.658 127.588 674.744 126.92 676.201 126.505L676.665 127.909C674.964 128.454 674.114 129.875 674.114 132.169V134.635C674.114 136.483 673.434 137.768 672.075 138.493C673.434 139.225 674.114 140.523 674.114 142.387V144.901C674.138 147.139 674.989 148.527 676.665 149.064L676.201 150.468ZM692.681 146H690.325V137.785H681.365V146H679.021V128.227H681.365V135.868H690.325V128.227H692.681V146ZM703.679 146H701.409V130.949L696.855 132.621V130.57L703.325 128.141H703.679V146ZM728.875 130.155H723.162V146H720.83V130.155H715.129V128.227H728.875V130.155ZM733.611 146H731.353V132.792H733.611V146ZM731.169 129.289C731.169 128.922 731.279 128.613 731.499 128.361C731.727 128.109 732.061 127.982 732.5 127.982C732.939 127.982 733.273 128.109 733.501 128.361C733.729 128.613 733.843 128.922 733.843 129.289C733.843 129.655 733.729 129.96 733.501 130.204C733.273 130.448 732.939 130.57 732.5 130.57C732.061 130.57 731.727 130.448 731.499 130.204C731.279 129.96 731.169 129.655 731.169 129.289ZM740.3 129.594V132.792H742.766V134.538H740.3V142.729C740.3 143.257 740.41 143.656 740.63 143.925C740.85 144.185 741.224 144.315 741.753 144.315C742.013 144.315 742.371 144.267 742.827 144.169V146C742.233 146.163 741.655 146.244 741.094 146.244C740.085 146.244 739.324 145.939 738.811 145.329C738.298 144.718 738.042 143.852 738.042 142.729V134.538H735.637V132.792H738.042V129.594H740.3ZM747.869 146H745.61V127.25H747.869V146ZM756.975 146.244C755.185 146.244 753.728 145.658 752.605 144.486C751.482 143.306 750.92 141.732 750.92 139.762V139.347C750.92 138.037 751.169 136.869 751.665 135.844C752.17 134.81 752.869 134.005 753.765 133.427C754.668 132.841 755.645 132.548 756.694 132.548C758.411 132.548 759.746 133.113 760.698 134.245C761.65 135.376 762.126 136.995 762.126 139.103V140.043H753.179C753.211 141.345 753.59 142.399 754.314 143.205C755.046 144.002 755.974 144.401 757.097 144.401C757.895 144.401 758.57 144.238 759.124 143.913C759.677 143.587 760.161 143.156 760.576 142.619L761.956 143.693C760.849 145.394 759.189 146.244 756.975 146.244ZM756.694 134.403C755.783 134.403 755.018 134.737 754.399 135.404C753.781 136.063 753.398 136.991 753.252 138.188H759.868V138.017C759.803 136.869 759.494 135.982 758.94 135.355C758.387 134.721 757.638 134.403 756.694 134.403ZM763.274 149.064C764.926 148.535 765.78 147.188 765.837 145.023V142.338C765.837 140.458 766.574 139.176 768.047 138.493C766.574 137.825 765.837 136.544 765.837 134.647V132.169C765.837 129.875 764.987 128.454 763.286 127.909L763.75 126.505C765.19 126.912 766.273 127.576 766.997 128.495C767.721 129.407 768.088 130.615 768.096 132.121V134.684C768.096 136.629 768.958 137.602 770.684 137.602V139.372C768.958 139.372 768.096 140.36 768.096 142.338V144.804C768.096 146.334 767.725 147.558 766.985 148.478C766.252 149.398 765.174 150.061 763.75 150.468L763.274 149.064Z" fill="black"/>
<rect x="366.5" y="215.5" width="707" height="68" fill="#C4C4C4" stroke="black"/>
<path d="M676.201 262.468C674.761 262.061 673.674 261.389 672.942 260.454C672.218 259.526 671.855 258.297 671.855 256.767V254.338C671.855 252.36 670.993 251.372 669.268 251.372V249.602C670.993 249.602 671.855 248.617 671.855 246.647V244.108C671.872 242.619 672.234 241.419 672.942 240.507C673.658 239.588 674.744 238.92 676.201 238.505L676.665 239.909C674.964 240.454 674.114 241.875 674.114 244.169V246.635C674.114 248.483 673.434 249.768 672.075 250.493C673.434 251.225 674.114 252.523 674.114 254.387V256.901C674.138 259.139 674.989 260.527 676.665 261.064L676.201 262.468ZM692.681 258H690.325V249.785H681.365V258H679.021V240.227H681.365V247.868H690.325V240.227H692.681V258ZM707.903 258H696.257V256.376L702.41 249.541C703.321 248.507 703.948 247.669 704.29 247.026C704.639 246.375 704.814 245.703 704.814 245.012C704.814 244.084 704.534 243.323 703.972 242.729C703.411 242.135 702.662 241.838 701.726 241.838C700.603 241.838 699.728 242.159 699.102 242.802C698.483 243.437 698.174 244.324 698.174 245.463H695.916C695.916 243.828 696.44 242.505 697.49 241.496C698.548 240.487 699.96 239.982 701.726 239.982C703.378 239.982 704.684 240.418 705.645 241.289C706.605 242.151 707.085 243.303 707.085 244.743C707.085 246.493 705.97 248.576 703.74 250.993L698.979 256.157H707.903V258ZM728.875 242.155H723.162V258H720.83V242.155H715.129V240.227H728.875V242.155ZM733.611 258H731.353V244.792H733.611V258ZM731.169 241.289C731.169 240.922 731.279 240.613 731.499 240.361C731.727 240.109 732.061 239.982 732.5 239.982C732.939 239.982 733.273 240.109 733.501 240.361C733.729 240.613 733.843 240.922 733.843 241.289C733.843 241.655 733.729 241.96 733.501 242.204C733.273 242.448 732.939 242.57 732.5 242.57C732.061 242.57 731.727 242.448 731.499 242.204C731.279 241.96 731.169 241.655 731.169 241.289ZM740.3 241.594V244.792H742.766V246.538H740.3V254.729C740.3 255.257 740.41 255.656 740.63 255.925C740.85 256.185 741.224 256.315 741.753 256.315C742.013 256.315 742.371 256.267 742.827 256.169V258C742.233 258.163 741.655 258.244 741.094 258.244C740.085 258.244 739.324 257.939 738.811 257.329C738.298 256.718 738.042 255.852 738.042 254.729V246.538H735.637V244.792H738.042V241.594H740.3ZM747.869 258H745.61V239.25H747.869V258ZM756.975 258.244C755.185 258.244 753.728 257.658 752.605 256.486C751.482 255.306 750.92 253.732 750.92 251.762V251.347C750.92 250.037 751.169 248.869 751.665 247.844C752.17 246.81 752.869 246.005 753.765 245.427C754.668 244.841 755.645 244.548 756.694 244.548C758.411 244.548 759.746 245.113 760.698 246.245C761.65 247.376 762.126 248.995 762.126 251.103V252.043H753.179C753.211 253.345 753.59 254.399 754.314 255.205C755.046 256.002 755.974 256.401 757.097 256.401C757.895 256.401 758.57 256.238 759.124 255.913C759.677 255.587 760.161 255.156 760.576 254.619L761.956 255.693C760.849 257.394 759.189 258.244 756.975 258.244ZM756.694 246.403C755.783 246.403 755.018 246.737 754.399 247.404C753.781 248.063 753.398 248.991 753.252 250.188H759.868V250.017C759.803 248.869 759.494 247.982 758.94 247.355C758.387 246.721 757.638 246.403 756.694 246.403ZM763.274 261.064C764.926 260.535 765.78 259.188 765.837 257.023V254.338C765.837 252.458 766.574 251.176 768.047 250.493C766.574 249.825 765.837 248.544 765.837 246.647V244.169C765.837 241.875 764.987 240.454 763.286 239.909L763.75 238.505C765.19 238.912 766.273 239.576 766.997 240.495C767.721 241.407 768.088 242.615 768.096 244.121V246.684C768.096 248.629 768.958 249.602 770.684 249.602V251.372C768.958 251.372 768.096 252.36 768.096 254.338V256.804C768.096 258.334 767.725 259.558 766.985 260.478C766.252 261.398 765.174 262.061 763.75 262.468L763.274 261.064Z" fill="black"/>
<path d="M1318.8 342.725H1322.8V341.05H1312.58V342.725H1316.83V344.75C1316.83 348.875 1315.08 352.95 1311.95 354.825L1313.2 356.35C1315.43 354.95 1317.05 352.325 1317.83 349.25C1318.6 352.1 1320.15 354.5 1322.33 355.8L1323.58 354.3C1320.48 352.55 1318.8 348.65 1318.8 344.75V342.725ZM1324.8 346.475H1321.1V348.15H1324.8V359.675H1326.75V338.925H1324.8V346.475ZM1329.3 338.4V360.825H1331.28V338.4H1329.3ZM1337.48 355.425H1350.95V360.875H1353V353.775H1337.48V355.425ZM1339.83 340.975H1350.88V345.325H1339.83V340.975ZM1346.4 349.8V346.95H1352.9V339.35H1337.83V346.95H1344.35V349.8H1335.2V351.45H1355.5V349.8H1346.4ZM1366.73 345.075C1366.73 343 1368.38 341.5 1370.55 341.5C1372.75 341.5 1374.35 343 1374.35 345.075C1374.35 347.175 1372.75 348.675 1370.55 348.675C1368.38 348.675 1366.73 347.175 1366.73 345.075ZM1380.83 343.325V346.825H1376C1376.2 346.275 1376.3 345.7 1376.3 345.075C1376.3 344.425 1376.2 343.85 1376.03 343.325H1380.83ZM1380.83 348.5V351.7H1382.9V338.425H1380.83V341.65H1375.08C1374.05 340.5 1372.45 339.775 1370.55 339.775C1367.23 339.775 1364.78 341.95 1364.78 345.075C1364.78 348.225 1367.23 350.425 1370.55 350.425C1372.45 350.425 1374.05 349.7 1375.08 348.5H1380.83ZM1375.48 359.2C1372.1 359.2 1370.05 358.2 1370.05 356.525C1370.05 354.825 1372.1 353.825 1375.48 353.825C1378.9 353.825 1380.95 354.825 1380.95 356.525C1380.95 358.2 1378.9 359.2 1375.48 359.2ZM1375.48 352.225C1370.88 352.225 1368.03 353.8 1368.03 356.525C1368.03 359.25 1370.88 360.825 1375.48 360.825C1380.1 360.825 1382.98 359.25 1382.98 356.525C1382.98 353.8 1380.1 352.225 1375.48 352.225ZM1390.9 354.55H1403.82V360.875H1405.9V352.875H1390.9V354.55ZM1399.05 346.75C1399.2 346.225 1399.3 345.675 1399.3 345.05C1399.3 344.45 1399.2 343.9 1399.05 343.375H1403.82V346.75H1399.05ZM1393.52 348.725C1391.35 348.725 1389.72 347.2 1389.72 345.05C1389.72 342.95 1391.35 341.425 1393.52 341.425C1395.72 341.425 1397.35 342.95 1397.35 345.05C1397.35 347.2 1395.72 348.725 1393.52 348.725ZM1403.82 338.45V341.725H1398.17C1397.12 340.45 1395.47 339.675 1393.52 339.675C1390.22 339.675 1387.77 341.9 1387.77 345.05C1387.77 348.225 1390.22 350.475 1393.52 350.475C1395.47 350.475 1397.1 349.7 1398.15 348.425H1403.82V351.65H1405.9V338.425L1403.82 338.45Z" fill="black"/>
<path d="M374.555 334.217C373.518 333.924 372.735 333.44 372.208 332.767C371.687 332.099 371.426 331.214 371.426 330.112V328.363C371.426 326.939 370.805 326.228 369.562 326.228V324.953C370.805 324.953 371.426 324.244 371.426 322.826V320.998C371.438 319.926 371.698 319.062 372.208 318.405C372.724 317.743 373.506 317.263 374.555 316.964L374.889 317.975C373.664 318.367 373.052 319.39 373.052 321.042V322.817C373.052 324.147 372.562 325.073 371.584 325.595C372.562 326.122 373.052 327.057 373.052 328.398V330.209C373.069 331.82 373.682 332.819 374.889 333.206L374.555 334.217ZM385.432 324.088C383.056 323.278 381.508 321.28 381.508 319.138V318.508H385.072V317.32H376.414V318.508H380.032V319.156C380.032 321.46 378.412 323.548 375.982 324.394L376.756 325.564C378.646 324.862 380.104 323.44 380.788 321.64C381.49 323.296 382.876 324.61 384.676 325.24L385.432 324.088ZM378.07 327.976H387.106V332.35H388.582V326.788H378.07V327.976ZM390.976 320.434H388.582V316.204H387.106V325.924H388.582V321.658H390.976V320.434ZM404.42 325.744H405.914V316.204H404.42V319.624H400.91V320.83H404.42V325.744ZM402.08 323.836C399.722 323.008 398.156 321.01 398.156 318.706V317.104H396.68V318.76C396.68 321.226 395.078 323.386 392.594 324.268L393.368 325.474C395.312 324.736 396.77 323.278 397.454 321.37C398.156 323.044 399.524 324.322 401.288 324.988L402.08 323.836ZM400.586 331.144C398.156 331.144 396.68 330.442 396.68 329.272C396.68 328.084 398.156 327.382 400.586 327.382C403.016 327.382 404.492 328.084 404.492 329.272C404.492 330.442 403.016 331.144 400.586 331.144ZM400.586 326.23C397.274 326.23 395.204 327.328 395.204 329.272C395.204 331.198 397.274 332.314 400.586 332.314C403.898 332.314 405.968 331.198 405.968 329.272C405.968 327.328 403.898 326.23 400.586 326.23ZM414.607 319.066H418.189V317.842H409.459V319.066H413.149V321.118C413.149 323.854 411.205 326.914 408.901 328.066L409.765 329.236C411.583 328.3 413.149 326.248 413.887 323.89C414.625 326.05 416.137 327.94 417.937 328.84L418.783 327.652C416.443 326.554 414.607 323.692 414.607 321.118V319.066ZM424.255 322.702H421.591V316.204H420.115V332.332H421.591V323.944H424.255V322.702ZM432.389 323.404H427.925V318.598H432.389V323.404ZM437.537 320.002V322H433.829V320.002H437.537ZM433.829 323.188H437.537V325.744H439.031V316.204H437.537V318.814H433.829V317.41H426.467V324.574H433.829V323.188ZM433.685 331.162C431.273 331.162 429.797 330.46 429.797 329.272C429.797 328.084 431.273 327.382 433.685 327.382C436.133 327.382 437.609 328.084 437.609 329.272C437.609 330.46 436.133 331.162 433.685 331.162ZM433.685 326.23C430.373 326.23 428.321 327.328 428.321 329.272C428.321 331.198 430.373 332.314 433.685 332.314C437.015 332.314 439.085 331.198 439.085 329.272C439.085 327.328 437.015 326.23 433.685 326.23ZM441.501 333.206C442.69 332.825 443.306 331.855 443.347 330.297V328.363C443.347 327.01 443.877 326.087 444.938 325.595C443.877 325.114 443.347 324.191 443.347 322.826V321.042C443.347 319.39 442.734 318.367 441.51 317.975L441.844 316.964C442.881 317.257 443.66 317.734 444.182 318.396C444.703 319.053 444.967 319.923 444.973 321.007V322.853C444.973 324.253 445.594 324.953 446.836 324.953V326.228C445.594 326.228 444.973 326.939 444.973 328.363V330.139C444.973 331.24 444.706 332.122 444.173 332.784C443.646 333.446 442.869 333.924 441.844 334.217L441.501 333.206ZM454.746 333.373H453.437V318.203H454.746V333.373ZM466.312 334.217C465.275 333.924 464.493 333.44 463.966 332.767C463.444 332.099 463.184 331.214 463.184 330.112V328.363C463.184 326.939 462.562 326.228 461.32 326.228V324.953C462.562 324.953 463.184 324.244 463.184 322.826V320.998C463.195 319.926 463.456 319.062 463.966 318.405C464.481 317.743 465.264 317.263 466.312 316.964L466.646 317.975C465.422 318.367 464.81 319.39 464.81 321.042V322.817C464.81 324.147 464.32 325.073 463.342 325.595C464.32 326.122 464.81 327.057 464.81 328.398V330.209C464.827 331.82 465.439 332.819 466.646 333.206L466.312 334.217ZM472.245 324.628L475.585 318.203H477.501L473.089 326.228V331H471.401V326.228L466.989 318.203H468.923L472.245 324.628ZM483.214 324.628L486.554 318.203H488.47L484.058 326.228V331H482.37V326.228L477.958 318.203H479.892L483.214 324.628ZM494.183 324.628L497.522 318.203H499.438L495.026 326.228V331H493.339V326.228L488.927 318.203H490.86L494.183 324.628ZM505.151 324.628L508.491 318.203H510.407L505.995 326.228V331H504.308V326.228L499.896 318.203H501.829L505.151 324.628ZM514.731 326.228H510.442V324.9H514.731V326.228ZM518.757 318.203L522.94 328.645L527.124 318.203H529.312V331H527.625V326.017L527.783 320.638L523.582 331H522.29L518.098 320.664L518.265 326.017V331H516.577V318.203H518.757ZM534.472 318.203L538.655 328.645L542.839 318.203H545.027V331H543.34V326.017L543.498 320.638L539.297 331H538.005L533.812 320.664L533.979 326.017V331H532.292V318.203H534.472ZM551.136 326.228H546.847V324.9H551.136V326.228ZM552.981 331V318.203H556.594C557.707 318.203 558.691 318.449 559.547 318.941C560.402 319.434 561.062 320.134 561.524 321.042C561.993 321.95 562.23 322.993 562.236 324.171V324.988C562.236 326.195 562.002 327.253 561.533 328.161C561.07 329.069 560.405 329.767 559.538 330.253C558.677 330.739 557.672 330.988 556.523 331H552.981ZM554.669 319.592V329.62H556.444C557.745 329.62 558.756 329.216 559.477 328.407C560.203 327.599 560.566 326.447 560.566 324.953V324.206C560.566 322.753 560.224 321.625 559.538 320.822C558.858 320.014 557.892 319.604 556.638 319.592H554.669ZM564.794 331V318.203H568.406C569.52 318.203 570.504 318.449 571.359 318.941C572.215 319.434 572.874 320.134 573.337 321.042C573.806 321.95 574.043 322.993 574.049 324.171V324.988C574.049 326.195 573.814 327.253 573.346 328.161C572.883 329.069 572.218 329.767 571.351 330.253C570.489 330.739 569.484 330.988 568.336 331H564.794ZM566.481 319.592V329.62H568.257C569.558 329.62 570.568 329.216 571.289 328.407C572.016 327.599 572.379 326.447 572.379 324.953V324.206C572.379 322.753 572.036 321.625 571.351 320.822C570.671 320.014 569.704 319.604 568.45 319.592H566.481ZM575.288 333.206C576.478 332.825 577.093 331.855 577.134 330.297V328.363C577.134 327.01 577.664 326.087 578.725 325.595C577.664 325.114 577.134 324.191 577.134 322.826V321.042C577.134 319.39 576.521 318.367 575.297 317.975L575.631 316.964C576.668 317.257 577.447 317.734 577.969 318.396C578.49 319.053 578.754 319.923 578.76 321.007V322.853C578.76 324.253 579.381 324.953 580.623 324.953V326.228C579.381 326.228 578.76 326.939 578.76 328.363V330.139C578.76 331.24 578.493 332.122 577.96 332.784C577.433 333.446 576.656 333.924 575.631 334.217L575.288 333.206Z" fill="black"/>
<rect x="0.5" y="1934.5" width="1439" height="304" fill="#C4C4C4" stroke="black"/>
<path d="M1335.88 2225.15H1328.42V2233H1326.08V2215.23H1337.09V2217.16H1328.42V2223.23H1335.88V2225.15ZM1338.67 2226.27C1338.67 2224.98 1338.93 2223.82 1339.43 2222.78C1339.94 2221.75 1340.65 2220.95 1341.56 2220.39C1342.47 2219.83 1343.5 2219.55 1344.67 2219.55C1346.47 2219.55 1347.92 2220.17 1349.03 2221.42C1350.14 2222.66 1350.7 2224.32 1350.7 2226.38V2226.54C1350.7 2227.83 1350.45 2228.98 1349.95 2230.01C1349.47 2231.03 1348.76 2231.82 1347.84 2232.39C1346.93 2232.96 1345.88 2233.24 1344.69 2233.24C1342.9 2233.24 1341.45 2232.62 1340.33 2231.38C1339.23 2230.13 1338.67 2228.48 1338.67 2226.43V2226.27ZM1340.94 2226.54C1340.94 2228.01 1341.28 2229.18 1341.96 2230.07C1342.64 2230.96 1343.55 2231.4 1344.69 2231.4C1345.84 2231.4 1346.75 2230.95 1347.43 2230.06C1348.1 2229.15 1348.44 2227.89 1348.44 2226.27C1348.44 2224.83 1348.09 2223.65 1347.4 2222.76C1346.72 2221.85 1345.81 2221.4 1344.67 2221.4C1343.55 2221.4 1342.65 2221.85 1341.97 2222.73C1341.29 2223.62 1340.94 2224.89 1340.94 2226.54ZM1352.93 2226.27C1352.93 2224.98 1353.18 2223.82 1353.69 2222.78C1354.2 2221.75 1354.91 2220.95 1355.81 2220.39C1356.72 2219.83 1357.76 2219.55 1358.93 2219.55C1360.72 2219.55 1362.18 2220.17 1363.28 2221.42C1364.4 2222.66 1364.96 2224.32 1364.96 2226.38V2226.54C1364.96 2227.83 1364.71 2228.98 1364.21 2230.01C1363.72 2231.03 1363.02 2231.82 1362.1 2232.39C1361.19 2232.96 1360.14 2233.24 1358.95 2233.24C1357.16 2233.24 1355.71 2232.62 1354.59 2231.38C1353.49 2230.13 1352.93 2228.48 1352.93 2226.43V2226.27ZM1355.2 2226.54C1355.2 2228.01 1355.54 2229.18 1356.22 2230.07C1356.9 2230.96 1357.81 2231.4 1358.95 2231.4C1360.1 2231.4 1361.01 2230.95 1361.68 2230.06C1362.36 2229.15 1362.7 2227.89 1362.7 2226.27C1362.7 2224.83 1362.35 2223.65 1361.66 2222.76C1360.98 2221.85 1360.07 2221.4 1358.93 2221.4C1357.81 2221.4 1356.91 2221.85 1356.23 2222.73C1355.54 2223.62 1355.2 2224.89 1355.2 2226.54ZM1370.85 2216.59V2219.79H1373.32V2221.54H1370.85V2229.73C1370.85 2230.26 1370.96 2230.66 1371.18 2230.92C1371.4 2231.19 1371.78 2231.32 1372.3 2231.32C1372.57 2231.32 1372.92 2231.27 1373.38 2231.17V2233C1372.78 2233.16 1372.21 2233.24 1371.65 2233.24C1370.64 2233.24 1369.88 2232.94 1369.36 2232.33C1368.85 2231.72 1368.59 2230.85 1368.59 2229.73V2221.54H1366.19V2219.79H1368.59V2216.59H1370.85ZM1381.45 2233.24C1379.66 2233.24 1378.2 2232.66 1377.08 2231.49C1375.95 2230.31 1375.39 2228.73 1375.39 2226.76V2226.35C1375.39 2225.04 1375.64 2223.87 1376.14 2222.84C1376.64 2221.81 1377.34 2221 1378.24 2220.43C1379.14 2219.84 1380.12 2219.55 1381.17 2219.55C1382.88 2219.55 1384.22 2220.11 1385.17 2221.24C1386.12 2222.38 1386.6 2224 1386.6 2226.1V2227.04H1377.65C1377.68 2228.35 1378.06 2229.4 1378.79 2230.2C1379.52 2231 1380.45 2231.4 1381.57 2231.4C1382.37 2231.4 1383.04 2231.24 1383.6 2230.91C1384.15 2230.59 1384.63 2230.16 1385.05 2229.62L1386.43 2230.69C1385.32 2232.39 1383.66 2233.24 1381.45 2233.24ZM1381.17 2221.4C1380.26 2221.4 1379.49 2221.74 1378.87 2222.4C1378.25 2223.06 1377.87 2223.99 1377.72 2225.19H1384.34V2225.02C1384.28 2223.87 1383.97 2222.98 1383.41 2222.36C1382.86 2221.72 1382.11 2221.4 1381.17 2221.4ZM1395.61 2221.82C1395.27 2221.76 1394.9 2221.73 1394.5 2221.73C1393.02 2221.73 1392.01 2222.36 1391.48 2223.62V2233H1389.22V2219.79H1391.42L1391.46 2221.32C1392.2 2220.14 1393.25 2219.55 1394.61 2219.55C1395.05 2219.55 1395.38 2219.6 1395.61 2219.72V2221.82Z" fill="black"/>
<rect x="0.5" y="0.5" width="1439" height="59" fill="#C4C4C4" stroke="black"/>
<path d="M69.7148 42.4678C68.2744 42.0609 67.188 41.3895 66.4556 40.4536C65.7313 39.5259 65.3691 38.297 65.3691 36.7671V34.3379C65.3691 32.3604 64.5065 31.3716 62.7812 31.3716V29.6016C64.5065 29.6016 65.3691 28.6169 65.3691 26.6475V24.1084C65.3854 22.6191 65.7476 21.4188 66.4556 20.5073C67.1717 19.5877 68.2581 18.9204 69.7148 18.5054L70.1787 19.9092C68.4779 20.4544 67.6274 21.8745 67.6274 24.1694V26.6353C67.6274 28.4826 66.9479 29.7684 65.5889 30.4927C66.9479 31.2251 67.6274 32.5231 67.6274 34.3867V36.9014C67.6519 39.1393 68.5023 40.5269 70.1787 41.064L69.7148 42.4678ZM75.7217 21.925H78.5217V32.45C77.5717 32.5 76.6467 32.525 75.7217 32.55V21.925ZM80.3967 21.925H82.2467V20.275H71.9967V21.925H73.8467V32.6C72.9967 32.625 72.2467 32.625 71.5717 32.625L71.7717 34.325C74.6967 34.325 79.3967 34.225 82.8717 33.575L82.7467 32.075C82.0217 32.175 81.1967 32.25 80.3967 32.325V21.925ZM84.6467 25.975H81.5717V27.775H84.6467V38.675H86.5717V17.975H84.6467V25.975ZM88.9717 17.45V39.85H90.9467V17.45H88.9717ZM111.095 17.425V39.9H113.145V17.425H111.095ZM101.32 19.15C97.9947 19.15 95.6197 22.2 95.6197 26.975C95.6197 31.75 97.9947 34.8 101.32 34.8C104.645 34.8 107.02 31.75 107.02 26.975C107.02 22.2 104.645 19.15 101.32 19.15ZM101.32 21C103.495 21 105.045 23.35 105.045 26.975C105.045 30.625 103.495 32.975 101.32 32.975C99.1197 32.975 97.5697 30.625 97.5697 26.975C97.5697 23.35 99.1197 21 101.32 21ZM125.793 21.425H131.068V19.725H118.543V21.425H123.743V24.275C123.743 28.15 121.018 32.375 117.793 33.9L118.993 35.55C121.543 34.25 123.743 31.425 124.768 28.15C125.843 31.225 128.043 33.8 130.643 35L131.793 33.35C128.493 31.95 125.793 28.075 125.793 24.275V21.425ZM134.093 17.45V39.85H136.143V17.45H134.093ZM153.567 21.725H157.567V20.05H147.342V21.725H151.592V23.75C151.592 27.875 149.842 31.95 146.717 33.825L147.967 35.35C150.192 33.95 151.817 31.325 152.592 28.25C153.367 31.1 154.917 33.5 157.092 34.8L158.342 33.3C155.242 31.55 153.567 27.65 153.567 23.75V21.725ZM159.567 25.475H155.867V27.15H159.567V38.675H161.517V17.925H159.567V25.475ZM164.067 17.4V39.825H166.042V17.4H164.067ZM172.24 34.425H185.715V39.875H187.765V32.775H172.24V34.425ZM174.59 19.975H185.64V24.325H174.59V19.975ZM181.165 28.8V25.95H187.665V18.35H172.59V25.95H179.115V28.8H169.965V30.45H190.265V28.8H181.165ZM191.895 41.064C193.547 40.535 194.402 39.1882 194.458 37.0234V34.3379C194.458 32.458 195.195 31.1763 196.668 30.4927C195.195 29.8254 194.458 28.5436 194.458 26.6475V24.1694C194.458 21.8745 193.608 20.4544 191.907 19.9092L192.371 18.5054C193.812 18.9123 194.894 19.5755 195.618 20.4951C196.342 21.4066 196.709 22.6151 196.717 24.1206V26.6841C196.717 28.6291 197.579 29.6016 199.305 29.6016V31.3716C197.579 31.3716 196.717 32.3604 196.717 34.3379V36.8037C196.717 38.3337 196.347 39.5584 195.606 40.478C194.874 41.3976 193.795 42.0609 192.371 42.4678L191.895 41.064ZM212.745 31.3716H206.788V29.5283H212.745V31.3716ZM227.161 42.4678C225.721 42.0609 224.634 41.3895 223.902 40.4536C223.178 39.5259 222.815 38.297 222.815 36.7671V34.3379C222.815 32.3604 221.953 31.3716 220.228 31.3716V29.6016C221.953 29.6016 222.815 28.6169 222.815 26.6475V24.1084C222.832 22.6191 223.194 21.4188 223.902 20.5073C224.618 19.5877 225.704 18.9204 227.161 18.5054L227.625 19.9092C225.924 20.4544 225.074 21.8745 225.074 24.1694V26.6353C225.074 28.4826 224.394 29.7684 223.035 30.4927C224.394 31.2251 225.074 32.5231 225.074 34.3867V36.9014C225.098 39.1393 225.949 40.5269 227.625 41.064L227.161 42.4678ZM242.268 28.4C238.968 27.275 236.818 24.5 236.818 21.525V20.65H241.768V19H229.743V20.65H234.768V21.55C234.768 24.75 232.518 27.65 229.143 28.825L230.218 30.45C232.843 29.475 234.868 27.5 235.818 25C236.793 27.3 238.718 29.125 241.218 30L242.268 28.4ZM232.043 33.8H244.593V39.875H246.643V32.15H232.043V33.8ZM249.968 23.325H246.643V17.45H244.593V30.95H246.643V25.025H249.968V23.325ZM268.641 30.7H270.716V17.45H268.641V22.2H263.766V23.875H268.641V30.7ZM265.391 28.05C262.116 26.9 259.941 24.125 259.941 20.925V18.7H257.891V21C257.891 24.425 255.666 27.425 252.216 28.65L253.291 30.325C255.991 29.3 258.016 27.275 258.966 24.625C259.941 26.95 261.841 28.725 264.291 29.65L265.391 28.05ZM263.316 38.2C259.941 38.2 257.891 37.225 257.891 35.6C257.891 33.95 259.941 32.975 263.316 32.975C266.691 32.975 268.741 33.95 268.741 35.6C268.741 37.225 266.691 38.2 263.316 38.2ZM263.316 31.375C258.716 31.375 255.841 32.9 255.841 35.6C255.841 38.275 258.716 39.825 263.316 39.825C267.916 39.825 270.791 38.275 270.791 35.6C270.791 32.9 267.916 31.375 263.316 31.375ZM282.789 21.425H287.764V19.725H275.639V21.425H280.764V24.275C280.764 28.075 278.064 32.325 274.864 33.925L276.064 35.55C278.589 34.25 280.764 31.4 281.789 28.125C282.814 31.125 284.914 33.75 287.414 35L288.589 33.35C285.339 31.825 282.789 27.85 282.789 24.275V21.425ZM296.189 26.475H292.489V17.45H290.439V39.85H292.489V28.2H296.189V26.475ZM307.487 27.45H301.287V20.775H307.487V27.45ZM314.637 22.725V25.5H309.487V22.725H314.637ZM309.487 27.15H314.637V30.7H316.712V17.45H314.637V21.075H309.487V19.125H299.262V29.075H309.487V27.15ZM309.287 38.225C305.937 38.225 303.887 37.25 303.887 35.6C303.887 33.95 305.937 32.975 309.287 32.975C312.687 32.975 314.737 33.95 314.737 35.6C314.737 37.25 312.687 38.225 309.287 38.225ZM309.287 31.375C304.687 31.375 301.837 32.9 301.837 35.6C301.837 38.275 304.687 39.825 309.287 39.825C313.912 39.825 316.787 38.275 316.787 35.6C316.787 32.9 313.912 31.375 309.287 31.375ZM320.142 41.064C321.794 40.535 322.649 39.1882 322.706 37.0234V34.3379C322.706 32.458 323.442 31.1763 324.915 30.4927C323.442 29.8254 322.706 28.5436 322.706 26.6475V24.1694C322.706 21.8745 321.855 20.4544 320.154 19.9092L320.618 18.5054C322.059 18.9123 323.141 19.5755 323.865 20.4951C324.59 21.4066 324.956 22.6151 324.964 24.1206V26.6841C324.964 28.6291 325.826 29.6016 327.552 29.6016V31.3716C325.826 31.3716 324.964 32.3604 324.964 34.3379V36.8037C324.964 38.3337 324.594 39.5584 323.853 40.478C323.121 41.3976 322.042 42.0609 320.618 42.4678L320.142 41.064Z" fill="black"/>
<rect x="8.5" y="10.5" width="39" height="39" fill="#C4C4C4" stroke="black"/>
<path d="M16.7139 35H15.4492V24.5H16.7139V35ZM18.4092 31.2334C18.4092 30.5088 18.5505 29.8571 18.833 29.2783C19.1201 28.6995 19.5166 28.2529 20.0225 27.9385C20.5329 27.624 21.1139 27.4668 21.7656 27.4668C22.7728 27.4668 23.5863 27.8154 24.2061 28.5127C24.8304 29.21 25.1426 30.1374 25.1426 31.2949V31.3838C25.1426 32.1038 25.0036 32.751 24.7256 33.3252C24.4521 33.8949 24.0579 34.3392 23.543 34.6582C23.0326 34.9772 22.4447 35.1367 21.7793 35.1367C20.7767 35.1367 19.9632 34.7881 19.3389 34.0908C18.7191 33.3936 18.4092 32.4707 18.4092 31.3223V31.2334ZM19.6807 31.3838C19.6807 32.2041 19.8698 32.8626 20.248 33.3594C20.6309 33.8561 21.1413 34.1045 21.7793 34.1045C22.4219 34.1045 22.9323 33.8538 23.3105 33.3525C23.6888 32.8467 23.8779 32.1403 23.8779 31.2334C23.8779 30.4222 23.6842 29.766 23.2969 29.2646C22.9141 28.7588 22.4036 28.5059 21.7656 28.5059C21.1413 28.5059 20.6377 28.7542 20.2549 29.251C19.8721 29.7477 19.6807 30.4587 19.6807 31.3838ZM26.4277 31.2402C26.4277 30.0872 26.6943 29.1712 27.2275 28.4922C27.7607 27.8086 28.4671 27.4668 29.3467 27.4668C30.249 27.4668 30.9531 27.7858 31.459 28.4238L31.5205 27.6035H32.6758V34.8223C32.6758 35.7793 32.391 36.5335 31.8213 37.085C31.2562 37.6364 30.4951 37.9121 29.5381 37.9121C29.0049 37.9121 28.4831 37.7982 27.9727 37.5703C27.4622 37.3424 27.0726 37.0303 26.8037 36.6338L27.46 35.875C28.0023 36.5449 28.6654 36.8799 29.4492 36.8799C30.0645 36.8799 30.543 36.7067 30.8848 36.3604C31.2311 36.014 31.4043 35.5264 31.4043 34.8975V34.2617C30.8984 34.8451 30.208 35.1367 29.333 35.1367C28.4671 35.1367 27.7653 34.7881 27.2275 34.0908C26.6943 33.3936 26.4277 32.4434 26.4277 31.2402ZM27.6992 31.3838C27.6992 32.2178 27.8701 32.874 28.2119 33.3525C28.5537 33.8265 29.0322 34.0635 29.6475 34.0635C30.445 34.0635 31.0306 33.7012 31.4043 32.9766V29.5996C31.0169 28.8932 30.4359 28.54 29.6611 28.54C29.0459 28.54 28.5651 28.7793 28.2188 29.2578C27.8724 29.7363 27.6992 30.445 27.6992 31.3838ZM34.2549 31.2334C34.2549 30.5088 34.3962 29.8571 34.6787 29.2783C34.9658 28.6995 35.3623 28.2529 35.8682 27.9385C36.3786 27.624 36.9596 27.4668 37.6113 27.4668C38.6185 27.4668 39.432 27.8154 40.0518 28.5127C40.6761 29.21 40.9883 30.1374 40.9883 31.2949V31.3838C40.9883 32.1038 40.8493 32.751 40.5713 33.3252C40.2979 33.8949 39.9036 34.3392 39.3887 34.6582C38.8783 34.9772 38.2904 35.1367 37.625 35.1367C36.6224 35.1367 35.8089 34.7881 35.1846 34.0908C34.5648 33.3936 34.2549 32.4707 34.2549 31.3223V31.2334ZM35.5264 31.3838C35.5264 32.2041 35.7155 32.8626 36.0938 33.3594C36.4766 33.8561 36.987 34.1045 37.625 34.1045C38.2676 34.1045 38.778 33.8538 39.1562 33.3525C39.5345 32.8467 39.7236 32.1403 39.7236 31.2334C39.7236 30.4222 39.5299 29.766 39.1426 29.2646C38.7598 28.7588 38.2493 28.5059 37.6113 28.5059C36.987 28.5059 36.4834 28.7542 36.1006 29.251C35.7178 29.7477 35.5264 30.4587 35.5264 31.3838Z" fill="black"/>
</svg>
