<svg width="960" height="2239" viewBox="0 0 960 2239" fill="none" xmlns="http://www.w3.org/2000/svg">
<rect width="960" height="2239" fill="white"/>
<rect x="196.5" y="365.5" width="699" height="1568" fill="#C4C4C4" stroke="black"/>
<path d="M488.579 1144.05L488.879 1145.77L502.354 1145.15C502.279 1146.2 502.129 1147.35 501.854 1148.67L503.879 1148.82C504.504 1145.75 504.504 1143.5 504.504 1141.42V1139.5H489.129V1141.17H502.479V1141.42C502.479 1142.12 502.479 1142.82 502.454 1143.6L488.579 1144.05ZM491.354 1153.9H489.304V1160.5H504.979V1158.82H491.354V1153.9ZM497.029 1150.32V1147.07H494.979V1150.32H486.754V1151.97H506.979V1150.32H497.029ZM528.652 1138.45H526.677V1155.25H528.652V1138.45ZM522.352 1154.67H524.302V1138.9H522.352V1144.77H519.377V1146.45H522.352V1154.67ZM520.227 1149.27C517.902 1149.75 515.877 1149.87 512.727 1149.87V1146.62H518.327V1145.02H512.727V1141.95H519.227V1140.3H510.752V1151.52H512.177C515.752 1151.52 517.852 1151.42 520.427 1150.92L520.227 1149.27ZM516.127 1158.67V1153.4H514.077V1160.35H529.302V1158.67H516.127ZM534.75 1152.55C538.325 1151.82 541.5 1149.92 542.9 1147.05C544.275 1149.92 547.45 1151.82 551 1152.55L551.825 1150.87C547.525 1150.12 543.925 1147.35 543.925 1143.67H551.125V1142.02H543.925V1138.97H541.85V1142.02H534.625V1143.67H541.85C541.85 1147.35 538.25 1150.12 533.95 1150.87L534.75 1152.55ZM532.725 1156.3V1157.97H553.075V1156.3H532.725ZM564.225 1145.07C564.225 1143 565.875 1141.5 568.05 1141.5C570.25 1141.5 571.85 1143 571.85 1145.07C571.85 1147.17 570.25 1148.67 568.05 1148.67C565.875 1148.67 564.225 1147.17 564.225 1145.07ZM578.325 1143.32V1146.82H573.5C573.7 1146.27 573.8 1145.7 573.8 1145.07C573.8 1144.42 573.7 1143.85 573.525 1143.32H578.325ZM578.325 1148.5V1151.7H580.4V1138.42H578.325V1141.65H572.575C571.55 1140.5 569.95 1139.77 568.05 1139.77C564.725 1139.77 562.275 1141.95 562.275 1145.07C562.275 1148.22 564.725 1150.42 568.05 1150.42C569.95 1150.42 571.55 1149.7 572.575 1148.5H578.325ZM572.975 1159.2C569.6 1159.2 567.55 1158.2 567.55 1156.52C567.55 1154.82 569.6 1153.82 572.975 1153.82C576.4 1153.82 578.45 1154.82 578.45 1156.52C578.45 1158.2 576.4 1159.2 572.975 1159.2ZM572.975 1152.22C568.375 1152.22 565.525 1153.8 565.525 1156.52C565.525 1159.25 568.375 1160.83 572.975 1160.83C577.6 1160.83 580.475 1159.25 580.475 1156.52C580.475 1153.8 577.6 1152.22 572.975 1152.22ZM588.398 1154.55H601.323V1160.88H603.398V1152.87H588.398V1154.55ZM596.548 1146.75C596.698 1146.22 596.798 1145.67 596.798 1145.05C596.798 1144.45 596.698 1143.9 596.548 1143.38H601.323V1146.75H596.548ZM591.023 1148.72C588.848 1148.72 587.223 1147.2 587.223 1145.05C587.223 1142.95 588.848 1141.42 591.023 1141.42C593.223 1141.42 594.848 1142.95 594.848 1145.05C594.848 1147.2 593.223 1148.72 591.023 1148.72ZM601.323 1138.45V1141.72H595.673C594.623 1140.45 592.973 1139.67 591.023 1139.67C587.723 1139.67 585.273 1141.9 585.273 1145.05C585.273 1148.22 587.723 1150.47 591.023 1150.47C592.973 1150.47 594.598 1149.7 595.648 1148.42H601.323V1151.65H603.398V1138.42L601.323 1138.45Z" fill="black"/>
<rect x="8.5" y="365.5" width="181" height="909" fill="#C4C4C4" stroke="black"/>
<path d="M66.6524 797.925H69.4524V808.45C68.5024 808.5 67.5774 808.525 66.6524 808.55V797.925ZM71.3274 797.925H73.1774V796.275H62.9274V797.925H64.7774V808.6C63.9274 808.625 63.1774 808.625 62.5024 808.625L62.7024 810.325C65.6274 810.325 70.3274 810.225 73.8024 809.575L73.6774 808.075C72.9524 808.175 72.1274 808.25 71.3274 808.325V797.925ZM75.5774 801.975H72.5024V803.775H75.5774V814.675H77.5024V793.975H75.5774V801.975ZM79.9024 793.45V815.85H81.8774V793.45H79.9024ZM102.025 793.425V815.9H104.075V793.425H102.025ZM92.2504 795.15C88.9254 795.15 86.5504 798.2 86.5504 802.975C86.5504 807.75 88.9254 810.8 92.2504 810.8C95.5754 810.8 97.9504 807.75 97.9504 802.975C97.9504 798.2 95.5754 795.15 92.2504 795.15ZM92.2504 797C94.4254 797 95.9754 799.35 95.9754 802.975C95.9754 806.625 94.4254 808.975 92.2504 808.975C90.0504 808.975 88.5004 806.625 88.5004 802.975C88.5004 799.35 90.0504 797 92.2504 797ZM116.723 797.425H121.998V795.725H109.473V797.425H114.673V800.275C114.673 804.15 111.948 808.375 108.723 809.9L109.923 811.55C112.473 810.25 114.673 807.425 115.698 804.15C116.773 807.225 118.973 809.8 121.573 811L122.723 809.35C119.423 807.95 116.723 804.075 116.723 800.275V797.425ZM125.023 793.45V815.85H127.073V793.45H125.023ZM61.8539 824.375H59.8289V828.4C59.8289 832.475 57.2789 836.775 54.0539 838.425L55.2789 840.075C57.8039 838.725 59.8789 835.925 60.8539 832.65C61.8789 835.725 63.9039 838.35 66.2789 839.625L67.5539 838C64.4039 836.425 61.8539 832.35 61.8539 828.4V824.375ZM75.2789 831.525H71.5789V822.45H69.5289V844.85H71.5789V833.225H75.2789V831.525ZM93.627 822.425V844.9H95.677V822.425H93.627ZM83.852 824.15C80.527 824.15 78.152 827.2 78.152 831.975C78.152 836.75 80.527 839.8 83.852 839.8C87.177 839.8 89.552 836.75 89.552 831.975C89.552 827.2 87.177 824.15 83.852 824.15ZM83.852 826C86.027 826 87.577 828.35 87.577 831.975C87.577 835.625 86.027 837.975 83.852 837.975C81.652 837.975 80.102 835.625 80.102 831.975C80.102 828.35 81.652 826 83.852 826ZM118.3 833.175H104.925V826.175H118.075V824.475H102.9V834.85H118.3V833.175ZM100.3 840.125V841.825H120.65V840.125H100.3ZM132.648 837.775H126.248V831.875H132.648V837.775ZM132.648 830.25H126.248V824.325H124.223V839.45H134.648V824.325H132.648V830.25ZM144.273 831.25H140.573V822.45H138.523V844.825H140.573V832.975H144.273V831.25ZM66.7857 864.786C66.7857 862.946 67.0298 861.181 67.5181 859.488C68.0145 857.795 68.751 856.257 69.7276 854.874C70.7041 853.49 71.7173 852.514 72.7671 851.944L73.231 853.433C72.0428 854.345 71.0663 855.736 70.3013 857.608C69.5445 859.48 69.1294 861.575 69.0562 863.895L69.044 864.932C69.044 868.073 69.6177 870.8 70.7652 873.111C71.4569 874.494 72.2788 875.577 73.231 876.358L72.7671 877.737C71.6848 877.135 70.6512 876.126 69.6665 874.71C67.746 871.943 66.7857 868.635 66.7857 864.786ZM88.8926 869.668C88.2904 870.531 87.4481 871.178 86.3658 871.609C85.2915 872.033 84.0383 872.244 82.606 872.244C81.1574 872.244 79.8716 871.906 78.7486 871.231C77.6255 870.547 76.7548 869.579 76.1363 868.326C75.5259 867.072 75.2126 865.62 75.1963 863.968V862.417C75.1963 859.74 75.8189 857.665 77.064 856.192C78.3173 854.719 80.0751 853.982 82.3374 853.982C84.1929 853.982 85.6862 854.458 86.8174 855.411C87.9486 856.355 88.6403 857.697 88.8926 859.439H86.5489C86.1094 857.087 84.7097 855.911 82.3496 855.911C80.779 855.911 79.5868 856.465 78.773 857.571C77.9673 858.67 77.5604 860.265 77.5523 862.356V863.809C77.5523 865.803 78.008 867.39 78.9195 868.57C79.8309 869.742 81.0638 870.328 82.6182 870.328C83.4971 870.328 84.2661 870.23 84.9253 870.035C85.5845 869.839 86.1298 869.51 86.5611 869.046V865.054H82.4473V863.15H88.8926V869.668ZM106.471 872H104.115L95.167 858.304V872H92.8111V854.227H95.167L104.139 867.984V854.227H106.471V872ZM110.633 872V854.227H116.444C118.373 854.227 119.821 854.625 120.79 855.423C121.766 856.22 122.254 857.4 122.254 858.963C122.254 859.793 122.018 860.529 121.546 861.172C121.074 861.807 120.432 862.299 119.618 862.649C120.578 862.918 121.335 863.431 121.888 864.188C122.45 864.936 122.73 865.831 122.73 866.873C122.73 868.468 122.214 869.721 121.18 870.633C120.147 871.544 118.686 872 116.798 872H110.633ZM112.977 863.687V870.083H116.847C117.937 870.083 118.796 869.803 119.422 869.241C120.057 868.672 120.375 867.89 120.375 866.897C120.375 864.757 119.211 863.687 116.883 863.687H112.977ZM112.977 861.807H116.517C117.543 861.807 118.36 861.551 118.971 861.038C119.589 860.525 119.898 859.83 119.898 858.951C119.898 857.974 119.614 857.266 119.044 856.827C118.474 856.379 117.608 856.155 116.444 856.155H112.977V861.807ZM131.068 864.908C131.068 866.722 130.828 868.464 130.348 870.132C129.876 871.792 129.147 873.326 128.163 874.734C127.186 876.142 126.161 877.143 125.086 877.737L124.61 876.358C125.864 875.398 126.869 873.908 127.626 871.89C128.39 869.864 128.781 867.618 128.797 865.152V864.761C128.797 863.052 128.618 861.465 128.26 860C127.902 858.528 127.402 857.209 126.759 856.045C126.124 854.882 125.408 853.974 124.61 853.323L125.086 851.944C126.161 852.538 127.182 853.531 128.15 854.922C129.127 856.314 129.855 857.848 130.335 859.524C130.824 861.201 131.068 862.995 131.068 864.908Z" fill="black"/>
<rect x="0.5" y="60.5" width="959" height="304" fill="#C4C4C4" stroke="black"/>
<rect x="101.5" y="60.5" width="757" height="154" fill="#C4C4C4" stroke="black"/>
<path d="M436.201 150.468C434.761 150.061 433.674 149.389 432.942 148.454C432.218 147.526 431.856 146.297 431.856 144.767V142.338C431.856 140.36 430.993 139.372 429.268 139.372V137.602C430.993 137.602 431.856 136.617 431.856 134.647V132.108C431.872 130.619 432.234 129.419 432.942 128.507C433.658 127.588 434.745 126.92 436.201 126.505L436.665 127.909C434.964 128.454 434.114 129.875 434.114 132.169V134.635C434.114 136.483 433.434 137.768 432.075 138.493C433.434 139.225 434.114 140.523 434.114 142.387V144.901C434.138 147.139 434.989 148.527 436.665 149.064L436.201 150.468ZM452.681 146H450.325V137.785H441.365V146H439.021V128.227H441.365V135.868H450.325V128.227H452.681V146ZM463.679 146H461.409V130.949L456.856 132.621V130.57L463.325 128.141H463.679V146ZM488.875 130.155H483.162V146H480.83V130.155H475.129V128.227H488.875V130.155ZM493.611 146H491.353V132.792H493.611V146ZM491.169 129.289C491.169 128.922 491.279 128.613 491.499 128.361C491.727 128.109 492.061 127.982 492.5 127.982C492.94 127.982 493.273 128.109 493.501 128.361C493.729 128.613 493.843 128.922 493.843 129.289C493.843 129.655 493.729 129.96 493.501 130.204C493.273 130.448 492.94 130.57 492.5 130.57C492.061 130.57 491.727 130.448 491.499 130.204C491.279 129.96 491.169 129.655 491.169 129.289ZM500.3 129.594V132.792H502.766V134.538H500.3V142.729C500.3 143.257 500.41 143.656 500.63 143.925C500.85 144.185 501.224 144.315 501.753 144.315C502.013 144.315 502.371 144.267 502.827 144.169V146C502.233 146.163 501.655 146.244 501.094 146.244C500.085 146.244 499.324 145.939 498.811 145.329C498.298 144.718 498.042 143.852 498.042 142.729V134.538H495.637V132.792H498.042V129.594H500.3ZM507.869 146H505.61V127.25H507.869V146ZM516.975 146.244C515.185 146.244 513.728 145.658 512.605 144.486C511.482 143.306 510.92 141.732 510.92 139.762V139.347C510.92 138.037 511.169 136.869 511.665 135.844C512.17 134.81 512.87 134.005 513.765 133.427C514.668 132.841 515.645 132.548 516.694 132.548C518.412 132.548 519.746 133.113 520.698 134.245C521.65 135.376 522.127 136.995 522.127 139.103V140.043H513.179C513.211 141.345 513.59 142.399 514.314 143.205C515.046 144.002 515.974 144.401 517.097 144.401C517.895 144.401 518.57 144.238 519.124 143.913C519.677 143.587 520.161 143.156 520.576 142.619L521.956 143.693C520.849 145.394 519.189 146.244 516.975 146.244ZM516.694 134.403C515.783 134.403 515.018 134.737 514.399 135.404C513.781 136.063 513.398 136.991 513.252 138.188H519.868V138.017C519.803 136.869 519.494 135.982 518.94 135.355C518.387 134.721 517.638 134.403 516.694 134.403ZM523.274 149.064C524.926 148.535 525.78 147.188 525.837 145.023V142.338C525.837 140.458 526.574 139.176 528.047 138.493C526.574 137.825 525.837 136.544 525.837 134.647V132.169C525.837 129.875 524.987 128.454 523.286 127.909L523.75 126.505C525.19 126.912 526.273 127.576 526.997 128.495C527.721 129.407 528.088 130.615 528.096 132.121V134.684C528.096 136.629 528.958 137.602 530.684 137.602V139.372C528.958 139.372 528.096 140.36 528.096 142.338V144.804C528.096 146.334 527.725 147.558 526.985 148.478C526.253 149.398 525.174 150.061 523.75 150.468L523.274 149.064Z" fill="black"/>
<rect x="101.5" y="215.5" width="757" height="68" fill="#C4C4C4" stroke="black"/>
<path d="M436.201 262.468C434.761 262.061 433.674 261.389 432.942 260.454C432.218 259.526 431.856 258.297 431.856 256.767V254.338C431.856 252.36 430.993 251.372 429.268 251.372V249.602C430.993 249.602 431.856 248.617 431.856 246.647V244.108C431.872 242.619 432.234 241.419 432.942 240.507C433.658 239.588 434.745 238.92 436.201 238.505L436.665 239.909C434.964 240.454 434.114 241.875 434.114 244.169V246.635C434.114 248.483 433.434 249.768 432.075 250.493C433.434 251.225 434.114 252.523 434.114 254.387V256.901C434.138 259.139 434.989 260.527 436.665 261.064L436.201 262.468ZM452.681 258H450.325V249.785H441.365V258H439.021V240.227H441.365V247.868H450.325V240.227H452.681V258ZM467.903 258H456.257V256.376L462.41 249.541C463.321 248.507 463.948 247.669 464.29 247.026C464.64 246.375 464.815 245.703 464.815 245.012C464.815 244.084 464.534 243.323 463.972 242.729C463.411 242.135 462.662 241.838 461.726 241.838C460.603 241.838 459.728 242.159 459.102 242.802C458.483 243.437 458.174 244.324 458.174 245.463H455.916C455.916 243.828 456.44 242.505 457.49 241.496C458.548 240.487 459.96 239.982 461.726 239.982C463.378 239.982 464.684 240.418 465.645 241.289C466.605 242.151 467.085 243.303 467.085 244.743C467.085 246.493 465.97 248.576 463.74 250.993L458.98 256.157H467.903V258ZM488.875 242.155H483.162V258H480.83V242.155H475.129V240.227H488.875V242.155ZM493.611 258H491.353V244.792H493.611V258ZM491.169 241.289C491.169 240.922 491.279 240.613 491.499 240.361C491.727 240.109 492.061 239.982 492.5 239.982C492.94 239.982 493.273 240.109 493.501 240.361C493.729 240.613 493.843 240.922 493.843 241.289C493.843 241.655 493.729 241.96 493.501 242.204C493.273 242.448 492.94 242.57 492.5 242.57C492.061 242.57 491.727 242.448 491.499 242.204C491.279 241.96 491.169 241.655 491.169 241.289ZM500.3 241.594V244.792H502.766V246.538H500.3V254.729C500.3 255.257 500.41 255.656 500.63 255.925C500.85 256.185 501.224 256.315 501.753 256.315C502.013 256.315 502.371 256.267 502.827 256.169V258C502.233 258.163 501.655 258.244 501.094 258.244C500.085 258.244 499.324 257.939 498.811 257.329C498.298 256.718 498.042 255.852 498.042 254.729V246.538H495.637V244.792H498.042V241.594H500.3ZM507.869 258H505.61V239.25H507.869V258ZM516.975 258.244C515.185 258.244 513.728 257.658 512.605 256.486C511.482 255.306 510.92 253.732 510.92 251.762V251.347C510.92 250.037 511.169 248.869 511.665 247.844C512.17 246.81 512.87 246.005 513.765 245.427C514.668 244.841 515.645 244.548 516.694 244.548C518.412 244.548 519.746 245.113 520.698 246.245C521.65 247.376 522.127 248.995 522.127 251.103V252.043H513.179C513.211 253.345 513.59 254.399 514.314 255.205C515.046 256.002 515.974 256.401 517.097 256.401C517.895 256.401 518.57 256.238 519.124 255.913C519.677 255.587 520.161 255.156 520.576 254.619L521.956 255.693C520.849 257.394 519.189 258.244 516.975 258.244ZM516.694 246.403C515.783 246.403 515.018 246.737 514.399 247.404C513.781 248.063 513.398 248.991 513.252 250.188H519.868V250.017C519.803 248.869 519.494 247.982 518.94 247.355C518.387 246.721 517.638 246.403 516.694 246.403ZM523.274 261.064C524.926 260.535 525.78 259.188 525.837 257.023V254.338C525.837 252.458 526.574 251.176 528.047 250.493C526.574 249.825 525.837 248.544 525.837 246.647V244.169C525.837 241.875 524.987 240.454 523.286 239.909L523.75 238.505C525.19 238.912 526.273 239.576 526.997 240.495C527.721 241.407 528.088 242.615 528.096 244.121V246.684C528.096 248.629 528.958 249.602 530.684 249.602V251.372C528.958 251.372 528.096 252.36 528.096 254.338V256.804C528.096 258.334 527.725 259.558 526.985 260.478C526.253 261.398 525.174 262.061 523.75 262.468L523.274 261.064Z" fill="black"/>
<path d="M838.803 342.725H842.803V341.05H832.578V342.725H836.828V344.75C836.828 348.875 835.078 352.95 831.953 354.825L833.203 356.35C835.428 354.95 837.053 352.325 837.828 349.25C838.603 352.1 840.153 354.5 842.328 355.8L843.578 354.3C840.478 352.55 838.803 348.65 838.803 344.75V342.725ZM844.803 346.475H841.103V348.15H844.803V359.675H846.753V338.925H844.803V346.475ZM849.303 338.4V360.825H851.278V338.4H849.303ZM857.476 355.425H870.951V360.875H873.001V353.775H857.476V355.425ZM859.826 340.975H870.876V345.325H859.826V340.975ZM866.401 349.8V346.95H872.901V339.35H857.826V346.95H864.351V349.8H855.201V351.45H875.501V349.8H866.401ZM886.726 345.075C886.726 343 888.376 341.5 890.551 341.5C892.751 341.5 894.351 343 894.351 345.075C894.351 347.175 892.751 348.675 890.551 348.675C888.376 348.675 886.726 347.175 886.726 345.075ZM900.826 343.325V346.825H896.001C896.201 346.275 896.301 345.7 896.301 345.075C896.301 344.425 896.201 343.85 896.026 343.325H900.826ZM900.826 348.5V351.7H902.901V338.425H900.826V341.65H895.076C894.051 340.5 892.451 339.775 890.551 339.775C887.226 339.775 884.776 341.95 884.776 345.075C884.776 348.225 887.226 350.425 890.551 350.425C892.451 350.425 894.051 349.7 895.076 348.5H900.826ZM895.476 359.2C892.101 359.2 890.051 358.2 890.051 356.525C890.051 354.825 892.101 353.825 895.476 353.825C898.901 353.825 900.951 354.825 900.951 356.525C900.951 358.2 898.901 359.2 895.476 359.2ZM895.476 352.225C890.876 352.225 888.026 353.8 888.026 356.525C888.026 359.25 890.876 360.825 895.476 360.825C900.101 360.825 902.976 359.25 902.976 356.525C902.976 353.8 900.101 352.225 895.476 352.225ZM910.899 354.55H923.824V360.875H925.899V352.875H910.899V354.55ZM919.049 346.75C919.199 346.225 919.299 345.675 919.299 345.05C919.299 344.45 919.199 343.9 919.049 343.375H923.824V346.75H919.049ZM913.524 348.725C911.349 348.725 909.724 347.2 909.724 345.05C909.724 342.95 911.349 341.425 913.524 341.425C915.724 341.425 917.349 342.95 917.349 345.05C917.349 347.2 915.724 348.725 913.524 348.725ZM923.824 338.45V341.725H918.174C917.124 340.45 915.474 339.675 913.524 339.675C910.224 339.675 907.774 341.9 907.774 345.05C907.774 348.225 910.224 350.475 913.524 350.475C915.474 350.475 917.099 349.7 918.149 348.425H923.824V351.65H925.899V338.425L923.824 338.45Z" fill="black"/>
<path d="M106.555 334.217C105.518 333.924 104.735 333.44 104.208 332.767C103.687 332.099 103.426 331.214 103.426 330.112V328.363C103.426 326.939 102.805 326.228 101.562 326.228V324.953C102.805 324.953 103.426 324.244 103.426 322.826V320.998C103.438 319.926 103.698 319.062 104.208 318.405C104.724 317.743 105.506 317.263 106.555 316.964L106.889 317.975C105.664 318.367 105.052 319.39 105.052 321.042V322.817C105.052 324.147 104.562 325.073 103.584 325.595C104.562 326.122 105.052 327.057 105.052 328.398V330.209C105.069 331.82 105.682 332.819 106.889 333.206L106.555 334.217ZM117.432 324.088C115.056 323.278 113.508 321.28 113.508 319.138V318.508H117.072V317.32H108.414V318.508H112.032V319.156C112.032 321.46 110.412 323.548 107.982 324.394L108.756 325.564C110.646 324.862 112.104 323.44 112.788 321.64C113.49 323.296 114.876 324.61 116.676 325.24L117.432 324.088ZM110.07 327.976H119.106V332.35H120.582V326.788H110.07V327.976ZM122.976 320.434H120.582V316.204H119.106V325.924H120.582V321.658H122.976V320.434ZM136.42 325.744H137.914V316.204H136.42V319.624H132.91V320.83H136.42V325.744ZM134.08 323.836C131.722 323.008 130.156 321.01 130.156 318.706V317.104H128.68V318.76C128.68 321.226 127.078 323.386 124.594 324.268L125.368 325.474C127.312 324.736 128.77 323.278 129.454 321.37C130.156 323.044 131.524 324.322 133.288 324.988L134.08 323.836ZM132.586 331.144C130.156 331.144 128.68 330.442 128.68 329.272C128.68 328.084 130.156 327.382 132.586 327.382C135.016 327.382 136.492 328.084 136.492 329.272C136.492 330.442 135.016 331.144 132.586 331.144ZM132.586 326.23C129.274 326.23 127.204 327.328 127.204 329.272C127.204 331.198 129.274 332.314 132.586 332.314C135.898 332.314 137.968 331.198 137.968 329.272C137.968 327.328 135.898 326.23 132.586 326.23ZM146.607 319.066H150.189V317.842H141.459V319.066H145.149V321.118C145.149 323.854 143.205 326.914 140.901 328.066L141.765 329.236C143.583 328.3 145.149 326.248 145.887 323.89C146.625 326.05 148.137 327.94 149.937 328.84L150.783 327.652C148.443 326.554 146.607 323.692 146.607 321.118V319.066ZM156.255 322.702H153.591V316.204H152.115V332.332H153.591V323.944H156.255V322.702ZM164.389 323.404H159.925V318.598H164.389V323.404ZM169.537 320.002V322H165.829V320.002H169.537ZM165.829 323.188H169.537V325.744H171.031V316.204H169.537V318.814H165.829V317.41H158.467V324.574H165.829V323.188ZM165.685 331.162C163.273 331.162 161.797 330.46 161.797 329.272C161.797 328.084 163.273 327.382 165.685 327.382C168.133 327.382 169.609 328.084 169.609 329.272C169.609 330.46 168.133 331.162 165.685 331.162ZM165.685 326.23C162.373 326.23 160.321 327.328 160.321 329.272C160.321 331.198 162.373 332.314 165.685 332.314C169.015 332.314 171.085 331.198 171.085 329.272C171.085 327.328 169.015 326.23 165.685 326.23ZM173.501 333.206C174.69 332.825 175.306 331.855 175.347 330.297V328.363C175.347 327.01 175.877 326.087 176.938 325.595C175.877 325.114 175.347 324.191 175.347 322.826V321.042C175.347 319.39 174.734 318.367 173.51 317.975L173.844 316.964C174.881 317.257 175.66 317.734 176.182 318.396C176.703 319.053 176.967 319.923 176.973 321.007V322.853C176.973 324.253 177.594 324.953 178.836 324.953V326.228C177.594 326.228 176.973 326.939 176.973 328.363V330.139C176.973 331.24 176.706 332.122 176.173 332.784C175.646 333.446 174.869 333.924 173.844 334.217L173.501 333.206ZM186.746 333.373H185.437V318.203H186.746V333.373ZM198.312 334.217C197.275 333.924 196.493 333.44 195.966 332.767C195.444 332.099 195.184 331.214 195.184 330.112V328.363C195.184 326.939 194.562 326.228 193.32 326.228V324.953C194.562 324.953 195.184 324.244 195.184 322.826V320.998C195.195 319.926 195.456 319.062 195.966 318.405C196.481 317.743 197.264 317.263 198.312 316.964L198.646 317.975C197.422 318.367 196.81 319.39 196.81 321.042V322.817C196.81 324.147 196.32 325.073 195.342 325.595C196.32 326.122 196.81 327.057 196.81 328.398V330.209C196.827 331.82 197.439 332.819 198.646 333.206L198.312 334.217ZM204.245 324.628L207.585 318.203H209.501L205.089 326.228V331H203.401V326.228L198.989 318.203H200.923L204.245 324.628ZM215.214 324.628L218.554 318.203H220.47L216.058 326.228V331H214.37V326.228L209.958 318.203H211.892L215.214 324.628ZM226.183 324.628L229.522 318.203H231.438L227.026 326.228V331H225.339V326.228L220.927 318.203H222.86L226.183 324.628ZM237.151 324.628L240.491 318.203H242.407L237.995 326.228V331H236.308V326.228L231.896 318.203H233.829L237.151 324.628ZM246.731 326.228H242.442V324.9H246.731V326.228ZM250.757 318.203L254.94 328.645L259.124 318.203H261.312V331H259.625V326.017L259.783 320.638L255.582 331H254.29L250.098 320.664L250.265 326.017V331H248.577V318.203H250.757ZM266.472 318.203L270.655 328.645L274.839 318.203H277.027V331H275.34V326.017L275.498 320.638L271.297 331H270.005L265.812 320.664L265.979 326.017V331H264.292V318.203H266.472ZM283.136 326.228H278.847V324.9H283.136V326.228ZM284.981 331V318.203H288.594C289.707 318.203 290.691 318.449 291.547 318.941C292.402 319.434 293.062 320.134 293.524 321.042C293.993 321.95 294.23 322.993 294.236 324.171V324.988C294.236 326.195 294.002 327.253 293.533 328.161C293.07 329.069 292.405 329.767 291.538 330.253C290.677 330.739 289.672 330.988 288.523 331H284.981ZM286.669 319.592V329.62H288.444C289.745 329.62 290.756 329.216 291.477 328.407C292.203 327.599 292.566 326.447 292.566 324.953V324.206C292.566 322.753 292.224 321.625 291.538 320.822C290.858 320.014 289.892 319.604 288.638 319.592H286.669ZM296.794 331V318.203H300.406C301.52 318.203 302.504 318.449 303.359 318.941C304.215 319.434 304.874 320.134 305.337 321.042C305.806 321.95 306.043 322.993 306.049 324.171V324.988C306.049 326.195 305.814 327.253 305.346 328.161C304.883 329.069 304.218 329.767 303.351 330.253C302.489 330.739 301.484 330.988 300.336 331H296.794ZM298.481 319.592V329.62H300.257C301.558 329.62 302.568 329.216 303.289 328.407C304.016 327.599 304.379 326.447 304.379 324.953V324.206C304.379 322.753 304.036 321.625 303.351 320.822C302.671 320.014 301.704 319.604 300.45 319.592H298.481ZM307.288 333.206C308.478 332.825 309.093 331.855 309.134 330.297V328.363C309.134 327.01 309.664 326.087 310.725 325.595C309.664 325.114 309.134 324.191 309.134 322.826V321.042C309.134 319.39 308.521 318.367 307.297 317.975L307.631 316.964C308.668 317.257 309.447 317.734 309.969 318.396C310.49 319.053 310.754 319.923 310.76 321.007V322.853C310.76 324.253 311.381 324.953 312.623 324.953V326.228C311.381 326.228 310.76 326.939 310.76 328.363V330.139C310.76 331.24 310.493 332.122 309.96 332.784C309.433 333.446 308.656 333.924 307.631 334.217L307.288 333.206Z" fill="black"/>
<rect x="0.5" y="1934.5" width="959" height="304" fill="#C4C4C4" stroke="black"/>
<path d="M855.879 2225.15H848.42V2233H846.077V2215.23H857.087V2217.16H848.42V2223.23H855.879V2225.15ZM858.674 2226.27C858.674 2224.98 858.927 2223.82 859.431 2222.78C859.944 2221.75 860.652 2220.95 861.555 2220.39C862.467 2219.83 863.504 2219.55 864.668 2219.55C866.466 2219.55 867.919 2220.17 869.026 2221.42C870.141 2222.66 870.698 2224.32 870.698 2226.38V2226.54C870.698 2227.83 870.45 2228.98 869.954 2230.01C869.465 2231.03 868.761 2231.82 867.842 2232.39C866.93 2232.96 865.881 2233.24 864.692 2233.24C862.902 2233.24 861.449 2232.62 860.334 2231.38C859.228 2230.13 858.674 2228.48 858.674 2226.43V2226.27ZM860.945 2226.54C860.945 2228.01 861.283 2229.18 861.958 2230.07C862.642 2230.96 863.553 2231.4 864.692 2231.4C865.84 2231.4 866.751 2230.95 867.427 2230.06C868.102 2229.15 868.44 2227.89 868.44 2226.27C868.44 2224.83 868.094 2223.65 867.402 2222.76C866.719 2221.85 865.807 2221.4 864.668 2221.4C863.553 2221.4 862.654 2221.85 861.97 2222.73C861.287 2223.62 860.945 2224.89 860.945 2226.54ZM872.932 2226.27C872.932 2224.98 873.184 2223.82 873.689 2222.78C874.202 2221.75 874.91 2220.95 875.813 2220.39C876.724 2219.83 877.762 2219.55 878.926 2219.55C880.724 2219.55 882.177 2220.17 883.284 2221.42C884.399 2222.66 884.956 2224.32 884.956 2226.38V2226.54C884.956 2227.83 884.708 2228.98 884.211 2230.01C883.723 2231.03 883.019 2231.82 882.1 2232.39C881.188 2232.96 880.138 2233.24 878.95 2233.24C877.16 2233.24 875.707 2232.62 874.592 2231.38C873.486 2230.13 872.932 2228.48 872.932 2226.43V2226.27ZM875.203 2226.54C875.203 2228.01 875.54 2229.18 876.216 2230.07C876.899 2230.96 877.811 2231.4 878.95 2231.4C880.098 2231.4 881.009 2230.95 881.685 2230.06C882.36 2229.15 882.698 2227.89 882.698 2226.27C882.698 2224.83 882.352 2223.65 881.66 2222.76C880.977 2221.85 880.065 2221.4 878.926 2221.4C877.811 2221.4 876.912 2221.85 876.228 2222.73C875.544 2223.62 875.203 2224.89 875.203 2226.54ZM890.852 2216.59V2219.79H893.318V2221.54H890.852V2229.73C890.852 2230.26 890.962 2230.66 891.182 2230.92C891.401 2231.19 891.776 2231.32 892.305 2231.32C892.565 2231.32 892.923 2231.27 893.379 2231.17V2233C892.785 2233.16 892.207 2233.24 891.646 2233.24C890.636 2233.24 889.875 2232.94 889.363 2232.33C888.85 2231.72 888.594 2230.85 888.594 2229.73V2221.54H886.189V2219.79H888.594V2216.59H890.852ZM901.448 2233.24C899.657 2233.24 898.201 2232.66 897.078 2231.49C895.955 2230.31 895.393 2228.73 895.393 2226.76V2226.35C895.393 2225.04 895.641 2223.87 896.138 2222.84C896.642 2221.81 897.342 2221 898.237 2220.43C899.141 2219.84 900.117 2219.55 901.167 2219.55C902.884 2219.55 904.219 2220.11 905.171 2221.24C906.123 2222.38 906.599 2224 906.599 2226.1V2227.04H897.651C897.684 2228.35 898.062 2229.4 898.787 2230.2C899.519 2231 900.447 2231.4 901.57 2231.4C902.367 2231.4 903.043 2231.24 903.596 2230.91C904.15 2230.59 904.634 2230.16 905.049 2229.62L906.428 2230.69C905.321 2232.39 903.661 2233.24 901.448 2233.24ZM901.167 2221.4C900.256 2221.4 899.491 2221.74 898.872 2222.4C898.254 2223.06 897.871 2223.99 897.725 2225.19H904.341V2225.02C904.276 2223.87 903.966 2222.98 903.413 2222.36C902.86 2221.72 902.111 2221.4 901.167 2221.4ZM915.608 2221.82C915.266 2221.76 914.896 2221.73 914.497 2221.73C913.016 2221.73 912.011 2222.36 911.482 2223.62V2233H909.224V2219.79H911.421L911.458 2221.32C912.198 2220.14 913.248 2219.55 914.607 2219.55C915.046 2219.55 915.38 2219.6 915.608 2219.72V2221.82Z" fill="black"/>
<rect x="0.5" y="0.5" width="959" height="59" fill="#C4C4C4" stroke="black"/>
<path d="M69.7148 42.4678C68.2744 42.0609 67.188 41.3895 66.4556 40.4536C65.7313 39.5259 65.3691 38.297 65.3691 36.7671V34.3379C65.3691 32.3604 64.5065 31.3716 62.7812 31.3716V29.6016C64.5065 29.6016 65.3691 28.6169 65.3691 26.6475V24.1084C65.3854 22.6191 65.7476 21.4188 66.4556 20.5073C67.1717 19.5877 68.2581 18.9204 69.7148 18.5054L70.1787 19.9092C68.4779 20.4544 67.6274 21.8745 67.6274 24.1694V26.6353C67.6274 28.4826 66.9479 29.7684 65.5889 30.4927C66.9479 31.2251 67.6274 32.5231 67.6274 34.3867V36.9014C67.6519 39.1393 68.5023 40.5269 70.1787 41.064L69.7148 42.4678ZM75.7217 21.925H78.5217V32.45C77.5717 32.5 76.6467 32.525 75.7217 32.55V21.925ZM80.3967 21.925H82.2467V20.275H71.9967V21.925H73.8467V32.6C72.9967 32.625 72.2467 32.625 71.5717 32.625L71.7717 34.325C74.6967 34.325 79.3967 34.225 82.8717 33.575L82.7467 32.075C82.0217 32.175 81.1967 32.25 80.3967 32.325V21.925ZM84.6467 25.975H81.5717V27.775H84.6467V38.675H86.5717V17.975H84.6467V25.975ZM88.9717 17.45V39.85H90.9467V17.45H88.9717ZM111.095 17.425V39.9H113.145V17.425H111.095ZM101.32 19.15C97.9947 19.15 95.6197 22.2 95.6197 26.975C95.6197 31.75 97.9947 34.8 101.32 34.8C104.645 34.8 107.02 31.75 107.02 26.975C107.02 22.2 104.645 19.15 101.32 19.15ZM101.32 21C103.495 21 105.045 23.35 105.045 26.975C105.045 30.625 103.495 32.975 101.32 32.975C99.1197 32.975 97.5697 30.625 97.5697 26.975C97.5697 23.35 99.1197 21 101.32 21ZM125.793 21.425H131.068V19.725H118.543V21.425H123.743V24.275C123.743 28.15 121.018 32.375 117.793 33.9L118.993 35.55C121.543 34.25 123.743 31.425 124.768 28.15C125.843 31.225 128.043 33.8 130.643 35L131.793 33.35C128.493 31.95 125.793 28.075 125.793 24.275V21.425ZM134.093 17.45V39.85H136.143V17.45H134.093ZM153.567 21.725H157.567V20.05H147.342V21.725H151.592V23.75C151.592 27.875 149.842 31.95 146.717 33.825L147.967 35.35C150.192 33.95 151.817 31.325 152.592 28.25C153.367 31.1 154.917 33.5 157.092 34.8L158.342 33.3C155.242 31.55 153.567 27.65 153.567 23.75V21.725ZM159.567 25.475H155.867V27.15H159.567V38.675H161.517V17.925H159.567V25.475ZM164.067 17.4V39.825H166.042V17.4H164.067ZM172.24 34.425H185.715V39.875H187.765V32.775H172.24V34.425ZM174.59 19.975H185.64V24.325H174.59V19.975ZM181.165 28.8V25.95H187.665V18.35H172.59V25.95H179.115V28.8H169.965V30.45H190.265V28.8H181.165ZM191.895 41.064C193.547 40.535 194.402 39.1882 194.458 37.0234V34.3379C194.458 32.458 195.195 31.1763 196.668 30.4927C195.195 29.8254 194.458 28.5436 194.458 26.6475V24.1694C194.458 21.8745 193.608 20.4544 191.907 19.9092L192.371 18.5054C193.812 18.9123 194.894 19.5755 195.618 20.4951C196.342 21.4066 196.709 22.6151 196.717 24.1206V26.6841C196.717 28.6291 197.579 29.6016 199.305 29.6016V31.3716C197.579 31.3716 196.717 32.3604 196.717 34.3379V36.8037C196.717 38.3337 196.347 39.5584 195.606 40.478C194.874 41.3976 193.795 42.0609 192.371 42.4678L191.895 41.064ZM212.745 31.3716H206.788V29.5283H212.745V31.3716ZM227.161 42.4678C225.721 42.0609 224.634 41.3895 223.902 40.4536C223.178 39.5259 222.815 38.297 222.815 36.7671V34.3379C222.815 32.3604 221.953 31.3716 220.228 31.3716V29.6016C221.953 29.6016 222.815 28.6169 222.815 26.6475V24.1084C222.832 22.6191 223.194 21.4188 223.902 20.5073C224.618 19.5877 225.704 18.9204 227.161 18.5054L227.625 19.9092C225.924 20.4544 225.074 21.8745 225.074 24.1694V26.6353C225.074 28.4826 224.394 29.7684 223.035 30.4927C224.394 31.2251 225.074 32.5231 225.074 34.3867V36.9014C225.098 39.1393 225.949 40.5269 227.625 41.064L227.161 42.4678ZM242.268 28.4C238.968 27.275 236.818 24.5 236.818 21.525V20.65H241.768V19H229.743V20.65H234.768V21.55C234.768 24.75 232.518 27.65 229.143 28.825L230.218 30.45C232.843 29.475 234.868 27.5 235.818 25C236.793 27.3 238.718 29.125 241.218 30L242.268 28.4ZM232.043 33.8H244.593V39.875H246.643V32.15H232.043V33.8ZM249.968 23.325H246.643V17.45H244.593V30.95H246.643V25.025H249.968V23.325ZM268.641 30.7H270.716V17.45H268.641V22.2H263.766V23.875H268.641V30.7ZM265.391 28.05C262.116 26.9 259.941 24.125 259.941 20.925V18.7H257.891V21C257.891 24.425 255.666 27.425 252.216 28.65L253.291 30.325C255.991 29.3 258.016 27.275 258.966 24.625C259.941 26.95 261.841 28.725 264.291 29.65L265.391 28.05ZM263.316 38.2C259.941 38.2 257.891 37.225 257.891 35.6C257.891 33.95 259.941 32.975 263.316 32.975C266.691 32.975 268.741 33.95 268.741 35.6C268.741 37.225 266.691 38.2 263.316 38.2ZM263.316 31.375C258.716 31.375 255.841 32.9 255.841 35.6C255.841 38.275 258.716 39.825 263.316 39.825C267.916 39.825 270.791 38.275 270.791 35.6C270.791 32.9 267.916 31.375 263.316 31.375ZM282.789 21.425H287.764V19.725H275.639V21.425H280.764V24.275C280.764 28.075 278.064 32.325 274.864 33.925L276.064 35.55C278.589 34.25 280.764 31.4 281.789 28.125C282.814 31.125 284.914 33.75 287.414 35L288.589 33.35C285.339 31.825 282.789 27.85 282.789 24.275V21.425ZM296.189 26.475H292.489V17.45H290.439V39.85H292.489V28.2H296.189V26.475ZM307.487 27.45H301.287V20.775H307.487V27.45ZM314.637 22.725V25.5H309.487V22.725H314.637ZM309.487 27.15H314.637V30.7H316.712V17.45H314.637V21.075H309.487V19.125H299.262V29.075H309.487V27.15ZM309.287 38.225C305.937 38.225 303.887 37.25 303.887 35.6C303.887 33.95 305.937 32.975 309.287 32.975C312.687 32.975 314.737 33.95 314.737 35.6C314.737 37.25 312.687 38.225 309.287 38.225ZM309.287 31.375C304.687 31.375 301.837 32.9 301.837 35.6C301.837 38.275 304.687 39.825 309.287 39.825C313.912 39.825 316.787 38.275 316.787 35.6C316.787 32.9 313.912 31.375 309.287 31.375ZM320.142 41.064C321.794 40.535 322.649 39.1882 322.706 37.0234V34.3379C322.706 32.458 323.442 31.1763 324.915 30.4927C323.442 29.8254 322.706 28.5436 322.706 26.6475V24.1694C322.706 21.8745 321.855 20.4544 320.154 19.9092L320.618 18.5054C322.059 18.9123 323.141 19.5755 323.865 20.4951C324.59 21.4066 324.956 22.6151 324.964 24.1206V26.6841C324.964 28.6291 325.826 29.6016 327.552 29.6016V31.3716C325.826 31.3716 324.964 32.3604 324.964 34.3379V36.8037C324.964 38.3337 324.594 39.5584 323.853 40.478C323.121 41.3976 322.042 42.0609 320.618 42.4678L320.142 41.064Z" fill="black"/>
<rect x="8.5" y="10.5" width="39" height="39" fill="#C4C4C4" stroke="black"/>
<path d="M16.7139 35H15.4492V24.5H16.7139V35ZM18.4092 31.2334C18.4092 30.5088 18.5505 29.8571 18.833 29.2783C19.1201 28.6995 19.5166 28.2529 20.0225 27.9385C20.5329 27.624 21.1139 27.4668 21.7656 27.4668C22.7728 27.4668 23.5863 27.8154 24.2061 28.5127C24.8304 29.21 25.1426 30.1374 25.1426 31.2949V31.3838C25.1426 32.1038 25.0036 32.751 24.7256 33.3252C24.4521 33.8949 24.0579 34.3392 23.543 34.6582C23.0326 34.9772 22.4447 35.1367 21.7793 35.1367C20.7767 35.1367 19.9632 34.7881 19.3389 34.0908C18.7191 33.3936 18.4092 32.4707 18.4092 31.3223V31.2334ZM19.6807 31.3838C19.6807 32.2041 19.8698 32.8626 20.248 33.3594C20.6309 33.8561 21.1413 34.1045 21.7793 34.1045C22.4219 34.1045 22.9323 33.8538 23.3105 33.3525C23.6888 32.8467 23.8779 32.1403 23.8779 31.2334C23.8779 30.4222 23.6842 29.766 23.2969 29.2646C22.9141 28.7588 22.4036 28.5059 21.7656 28.5059C21.1413 28.5059 20.6377 28.7542 20.2549 29.251C19.8721 29.7477 19.6807 30.4587 19.6807 31.3838ZM26.4277 31.2402C26.4277 30.0872 26.6943 29.1712 27.2275 28.4922C27.7607 27.8086 28.4671 27.4668 29.3467 27.4668C30.249 27.4668 30.9531 27.7858 31.459 28.4238L31.5205 27.6035H32.6758V34.8223C32.6758 35.7793 32.391 36.5335 31.8213 37.085C31.2562 37.6364 30.4951 37.9121 29.5381 37.9121C29.0049 37.9121 28.4831 37.7982 27.9727 37.5703C27.4622 37.3424 27.0726 37.0303 26.8037 36.6338L27.46 35.875C28.0023 36.5449 28.6654 36.8799 29.4492 36.8799C30.0645 36.8799 30.543 36.7067 30.8848 36.3604C31.2311 36.014 31.4043 35.5264 31.4043 34.8975V34.2617C30.8984 34.8451 30.208 35.1367 29.333 35.1367C28.4671 35.1367 27.7653 34.7881 27.2275 34.0908C26.6943 33.3936 26.4277 32.4434 26.4277 31.2402ZM27.6992 31.3838C27.6992 32.2178 27.8701 32.874 28.2119 33.3525C28.5537 33.8265 29.0322 34.0635 29.6475 34.0635C30.445 34.0635 31.0306 33.7012 31.4043 32.9766V29.5996C31.0169 28.8932 30.4359 28.54 29.6611 28.54C29.0459 28.54 28.5651 28.7793 28.2188 29.2578C27.8724 29.7363 27.6992 30.445 27.6992 31.3838ZM34.2549 31.2334C34.2549 30.5088 34.3962 29.8571 34.6787 29.2783C34.9658 28.6995 35.3623 28.2529 35.8682 27.9385C36.3786 27.624 36.9596 27.4668 37.6113 27.4668C38.6185 27.4668 39.432 27.8154 40.0518 28.5127C40.6761 29.21 40.9883 30.1374 40.9883 31.2949V31.3838C40.9883 32.1038 40.8493 32.751 40.5713 33.3252C40.2979 33.8949 39.9036 34.3392 39.3887 34.6582C38.8783 34.9772 38.2904 35.1367 37.625 35.1367C36.6224 35.1367 35.8089 34.7881 35.1846 34.0908C34.5648 33.3936 34.2549 32.4707 34.2549 31.3223V31.2334ZM35.5264 31.3838C35.5264 32.2041 35.7155 32.8626 36.0938 33.3594C36.4766 33.8561 36.987 34.1045 37.625 34.1045C38.2676 34.1045 38.778 33.8538 39.1562 33.3525C39.5345 32.8467 39.7236 32.1403 39.7236 31.2334C39.7236 30.4222 39.5299 29.766 39.1426 29.2646C38.7598 28.7588 38.2493 28.5059 37.6113 28.5059C36.987 28.5059 36.4834 28.7542 36.1006 29.251C35.7178 29.7477 35.5264 30.4587 35.5264 31.3838Z" fill="black"/>
</svg>
