<svg width="360" height="2239" viewBox="0 0 360 2239" fill="none" xmlns="http://www.w3.org/2000/svg">
<rect width="360" height="2239" fill="white"/>
<rect x="8.5" y="720.5" width="343" height="1213" fill="#C4C4C4" stroke="black"/>
<path d="M148.678 1321.05L148.978 1322.77L162.453 1322.15C162.378 1323.2 162.228 1324.35 161.953 1325.67L163.978 1325.82C164.603 1322.75 164.603 1320.5 164.603 1318.42V1316.5H149.228V1318.17H162.578V1318.42C162.578 1319.12 162.578 1319.82 162.553 1320.6L148.678 1321.05ZM151.453 1330.9H149.403V1337.5H165.078V1335.82H151.453V1330.9ZM157.128 1327.32V1324.07H155.078V1327.32H146.853V1328.97H167.078V1327.32H157.128ZM188.751 1315.45H186.776V1332.25H188.751V1315.45ZM182.451 1331.67H184.401V1315.9H182.451V1321.77H179.476V1323.45H182.451V1331.67ZM180.326 1326.27C178.001 1326.75 175.976 1326.87 172.826 1326.87V1323.62H178.426V1322.02H172.826V1318.95H179.326V1317.3H170.851V1328.52H172.276C175.851 1328.52 177.951 1328.42 180.526 1327.92L180.326 1326.27ZM176.226 1335.67V1330.4H174.176V1337.35H189.401V1335.67H176.226ZM194.849 1329.55C198.424 1328.82 201.599 1326.92 202.999 1324.05C204.374 1326.92 207.549 1328.82 211.099 1329.55L211.924 1327.87C207.624 1327.12 204.024 1324.35 204.024 1320.67H211.224V1319.02H204.024V1315.97H201.949V1319.02H194.724V1320.67H201.949C201.949 1324.35 198.349 1327.12 194.049 1327.87L194.849 1329.55ZM192.824 1333.3V1334.97H213.174V1333.3H192.824ZM160.627 1351.07C160.627 1349 162.277 1347.5 164.452 1347.5C166.652 1347.5 168.252 1349 168.252 1351.07C168.252 1353.17 166.652 1354.67 164.452 1354.67C162.277 1354.67 160.627 1353.17 160.627 1351.07ZM174.727 1349.32V1352.82H169.902C170.102 1352.27 170.202 1351.7 170.202 1351.07C170.202 1350.42 170.102 1349.85 169.927 1349.32H174.727ZM174.727 1354.5V1357.7H176.802V1344.42H174.727V1347.65H168.977C167.952 1346.5 166.352 1345.77 164.452 1345.77C161.127 1345.77 158.677 1347.95 158.677 1351.07C158.677 1354.22 161.127 1356.42 164.452 1356.42C166.352 1356.42 167.952 1355.7 168.977 1354.5H174.727ZM169.377 1365.2C166.002 1365.2 163.952 1364.2 163.952 1362.52C163.952 1360.82 166.002 1359.82 169.377 1359.82C172.802 1359.82 174.852 1360.82 174.852 1362.52C174.852 1364.2 172.802 1365.2 169.377 1365.2ZM169.377 1358.22C164.777 1358.22 161.927 1359.8 161.927 1362.52C161.927 1365.25 164.777 1366.83 169.377 1366.83C174.002 1366.83 176.877 1365.25 176.877 1362.52C176.877 1359.8 174.002 1358.22 169.377 1358.22ZM184.8 1360.55H197.725V1366.88H199.8V1358.87H184.8V1360.55ZM192.95 1352.75C193.1 1352.22 193.2 1351.67 193.2 1351.05C193.2 1350.45 193.1 1349.9 192.95 1349.38H197.725V1352.75H192.95ZM187.425 1354.72C185.25 1354.72 183.625 1353.2 183.625 1351.05C183.625 1348.95 185.25 1347.42 187.425 1347.42C189.625 1347.42 191.25 1348.95 191.25 1351.05C191.25 1353.2 189.625 1354.72 187.425 1354.72ZM197.725 1344.45V1347.72H192.075C191.025 1346.45 189.375 1345.67 187.425 1345.67C184.125 1345.67 181.675 1347.9 181.675 1351.05C181.675 1354.22 184.125 1356.47 187.425 1356.47C189.375 1356.47 191 1355.7 192.05 1354.42H197.725V1357.65H199.8V1344.42L197.725 1344.45Z" fill="black"/>
<rect x="8.5" y="60.5" width="343" height="659" fill="#C4C4C4" stroke="black"/>
<rect x="8.5" y="60.5" width="343" height="334.41" fill="#C4C4C4" stroke="black"/>
<path d="M136.201 240.468C134.761 240.061 133.674 239.389 132.942 238.454C132.218 237.526 131.855 236.297 131.855 234.767V232.338C131.855 230.36 130.993 229.372 129.268 229.372V227.602C130.993 227.602 131.855 226.617 131.855 224.647V222.108C131.872 220.619 132.234 219.419 132.942 218.507C133.658 217.588 134.744 216.92 136.201 216.505L136.665 217.909C134.964 218.454 134.114 219.875 134.114 222.169V224.635C134.114 226.483 133.434 227.768 132.075 228.493C133.434 229.225 134.114 230.523 134.114 232.387V234.901C134.138 237.139 134.989 238.527 136.665 239.064L136.201 240.468ZM152.681 236H150.325V227.785H141.365V236H139.021V218.227H141.365V225.868H150.325V218.227H152.681V236ZM163.679 236H161.409V220.949L156.855 222.621V220.57L163.325 218.141H163.679V236ZM188.875 220.155H183.162V236H180.83V220.155H175.129V218.227H188.875V220.155ZM193.611 236H191.353V222.792H193.611V236ZM191.169 219.289C191.169 218.922 191.279 218.613 191.499 218.361C191.727 218.109 192.061 217.982 192.5 217.982C192.939 217.982 193.273 218.109 193.501 218.361C193.729 218.613 193.843 218.922 193.843 219.289C193.843 219.655 193.729 219.96 193.501 220.204C193.273 220.448 192.939 220.57 192.5 220.57C192.061 220.57 191.727 220.448 191.499 220.204C191.279 219.96 191.169 219.655 191.169 219.289ZM200.3 219.594V222.792H202.766V224.538H200.3V232.729C200.3 233.257 200.41 233.656 200.63 233.925C200.85 234.185 201.224 234.315 201.753 234.315C202.013 234.315 202.371 234.267 202.827 234.169V236C202.233 236.163 201.655 236.244 201.094 236.244C200.085 236.244 199.324 235.939 198.811 235.329C198.298 234.718 198.042 233.852 198.042 232.729V224.538H195.637V222.792H198.042V219.594H200.3ZM207.869 236H205.61V217.25H207.869V236ZM216.975 236.244C215.185 236.244 213.728 235.658 212.605 234.486C211.482 233.306 210.92 231.732 210.92 229.762V229.347C210.92 228.037 211.169 226.869 211.665 225.844C212.17 224.81 212.869 224.005 213.765 223.427C214.668 222.841 215.645 222.548 216.694 222.548C218.411 222.548 219.746 223.113 220.698 224.245C221.65 225.376 222.126 226.995 222.126 229.103V230.043H213.179C213.211 231.345 213.59 232.399 214.314 233.205C215.046 234.002 215.974 234.401 217.097 234.401C217.895 234.401 218.57 234.238 219.124 233.913C219.677 233.587 220.161 233.156 220.576 232.619L221.956 233.693C220.849 235.394 219.189 236.244 216.975 236.244ZM216.694 224.403C215.783 224.403 215.018 224.737 214.399 225.404C213.781 226.063 213.398 226.991 213.252 228.188H219.868V228.017C219.803 226.869 219.494 225.982 218.94 225.355C218.387 224.721 217.638 224.403 216.694 224.403ZM223.274 239.064C224.926 238.535 225.78 237.188 225.837 235.023V232.338C225.837 230.458 226.574 229.176 228.047 228.493C226.574 227.825 225.837 226.544 225.837 224.647V222.169C225.837 219.875 224.987 218.454 223.286 217.909L223.75 216.505C225.19 216.912 226.273 217.576 226.997 218.495C227.721 219.407 228.088 220.615 228.096 222.121V224.684C228.096 226.629 228.958 227.602 230.684 227.602V229.372C228.958 229.372 228.096 230.36 228.096 232.338V234.804C228.096 236.334 227.725 237.558 226.985 238.478C226.252 239.398 225.174 240.061 223.75 240.468L223.274 239.064Z" fill="black"/>
<rect x="8.5" y="395.91" width="343" height="148.312" fill="#C4C4C4" stroke="black"/>
<path d="M136.201 482.878C134.761 482.471 133.674 481.799 132.942 480.863C132.218 479.936 131.855 478.707 131.855 477.177V474.748C131.855 472.77 130.993 471.781 129.268 471.781V470.011C130.993 470.011 131.855 469.027 131.855 467.057V464.518C131.872 463.029 132.234 461.829 132.942 460.917C133.658 459.998 134.744 459.33 136.201 458.915L136.665 460.319C134.964 460.864 134.114 462.284 134.114 464.579V467.045C134.114 468.892 133.434 470.178 132.075 470.902C133.434 471.635 134.114 472.933 134.114 474.797V477.311C134.138 479.549 134.989 480.937 136.665 481.474L136.201 482.878ZM152.681 478.41H150.325V470.194H141.365V478.41H139.021V460.636H141.365V468.278H150.325V460.636H152.681V478.41ZM167.903 478.41H156.257V476.786L162.41 469.95C163.321 468.917 163.948 468.079 164.29 467.436C164.639 466.785 164.814 466.113 164.814 465.422C164.814 464.494 164.534 463.733 163.972 463.139C163.411 462.545 162.662 462.248 161.726 462.248C160.603 462.248 159.728 462.569 159.102 463.212C158.483 463.847 158.174 464.734 158.174 465.873H155.916C155.916 464.237 156.44 462.915 157.49 461.906C158.548 460.897 159.96 460.392 161.726 460.392C163.378 460.392 164.684 460.828 165.645 461.698C166.605 462.561 167.085 463.713 167.085 465.153C167.085 466.903 165.97 468.986 163.74 471.403L158.979 476.567H167.903V478.41ZM188.875 462.565H183.162V478.41H180.83V462.565H175.129V460.636H188.875V462.565ZM193.611 478.41H191.353V465.202H193.611V478.41ZM191.169 461.698C191.169 461.332 191.279 461.023 191.499 460.771C191.727 460.518 192.061 460.392 192.5 460.392C192.939 460.392 193.273 460.518 193.501 460.771C193.729 461.023 193.843 461.332 193.843 461.698C193.843 462.065 193.729 462.37 193.501 462.614C193.273 462.858 192.939 462.98 192.5 462.98C192.061 462.98 191.727 462.858 191.499 462.614C191.279 462.37 191.169 462.065 191.169 461.698ZM200.3 462.004V465.202H202.766V466.947H200.3V475.138C200.3 475.667 200.41 476.066 200.63 476.335C200.85 476.595 201.224 476.725 201.753 476.725C202.013 476.725 202.371 476.676 202.827 476.579V478.41C202.233 478.573 201.655 478.654 201.094 478.654C200.085 478.654 199.324 478.349 198.811 477.738C198.298 477.128 198.042 476.261 198.042 475.138V466.947H195.637V465.202H198.042V462.004H200.3ZM207.869 478.41H205.61V459.66H207.869V478.41ZM216.975 478.654C215.185 478.654 213.728 478.068 212.605 476.896C211.482 475.716 210.92 474.141 210.92 472.172V471.757C210.92 470.447 211.169 469.279 211.665 468.254C212.17 467.22 212.869 466.414 213.765 465.837C214.668 465.251 215.645 464.958 216.694 464.958C218.411 464.958 219.746 465.523 220.698 466.654C221.65 467.786 222.126 469.405 222.126 471.513V472.453H213.179C213.211 473.755 213.59 474.809 214.314 475.614C215.046 476.412 215.974 476.811 217.097 476.811C217.895 476.811 218.57 476.648 219.124 476.322C219.677 475.997 220.161 475.566 220.576 475.028L221.956 476.103C220.849 477.804 219.189 478.654 216.975 478.654ZM216.694 466.813C215.783 466.813 215.018 467.147 214.399 467.814C213.781 468.473 213.398 469.401 213.252 470.597H219.868V470.426C219.803 469.279 219.494 468.392 218.94 467.765C218.387 467.131 217.638 466.813 216.694 466.813ZM223.274 481.474C224.926 480.945 225.78 479.598 225.837 477.433V474.748C225.837 472.868 226.574 471.586 228.047 470.902C226.574 470.235 225.837 468.953 225.837 467.057V464.579C225.837 462.284 224.987 460.864 223.286 460.319L223.75 458.915C225.19 459.322 226.273 459.985 226.997 460.905C227.721 461.816 228.088 463.025 228.096 464.53V467.094C228.096 469.039 228.958 470.011 230.684 470.011V471.781C228.958 471.781 228.096 472.77 228.096 474.748V477.214C228.096 478.743 227.725 479.968 226.985 480.888C226.252 481.807 225.174 482.471 223.75 482.878L223.274 481.474Z" fill="black"/>
<path d="M230.803 697.725H234.803V696.05H224.578V697.725H228.828V699.75C228.828 703.875 227.078 707.95 223.953 709.825L225.203 711.35C227.428 709.95 229.053 707.325 229.828 704.25C230.603 707.1 232.153 709.5 234.328 710.8L235.578 709.3C232.478 707.55 230.803 703.65 230.803 699.75V697.725ZM236.803 701.475H233.103V703.15H236.803V714.675H238.753V693.925H236.803V701.475ZM241.303 693.4V715.825H243.278V693.4H241.303ZM249.476 710.425H262.951V715.875H265.001V708.775H249.476V710.425ZM251.826 695.975H262.876V700.325H251.826V695.975ZM258.401 704.8V701.95H264.901V694.35H249.826V701.95H256.351V704.8H247.201V706.45H267.501V704.8H258.401ZM278.726 700.075C278.726 698 280.376 696.5 282.551 696.5C284.751 696.5 286.351 698 286.351 700.075C286.351 702.175 284.751 703.675 282.551 703.675C280.376 703.675 278.726 702.175 278.726 700.075ZM292.826 698.325V701.825H288.001C288.201 701.275 288.301 700.7 288.301 700.075C288.301 699.425 288.201 698.85 288.026 698.325H292.826ZM292.826 703.5V706.7H294.901V693.425H292.826V696.65H287.076C286.051 695.5 284.451 694.775 282.551 694.775C279.226 694.775 276.776 696.95 276.776 700.075C276.776 703.225 279.226 705.425 282.551 705.425C284.451 705.425 286.051 704.7 287.076 703.5H292.826ZM287.476 714.2C284.101 714.2 282.051 713.2 282.051 711.525C282.051 709.825 284.101 708.825 287.476 708.825C290.901 708.825 292.951 709.825 292.951 711.525C292.951 713.2 290.901 714.2 287.476 714.2ZM287.476 707.225C282.876 707.225 280.026 708.8 280.026 711.525C280.026 714.25 282.876 715.825 287.476 715.825C292.101 715.825 294.976 714.25 294.976 711.525C294.976 708.8 292.101 707.225 287.476 707.225ZM302.899 709.55H315.824V715.875H317.899V707.875H302.899V709.55ZM311.049 701.75C311.199 701.225 311.299 700.675 311.299 700.05C311.299 699.45 311.199 698.9 311.049 698.375H315.824V701.75H311.049ZM305.524 703.725C303.349 703.725 301.724 702.2 301.724 700.05C301.724 697.95 303.349 696.425 305.524 696.425C307.724 696.425 309.349 697.95 309.349 700.05C309.349 702.2 307.724 703.725 305.524 703.725ZM315.824 693.45V696.725H310.174C309.124 695.45 307.474 694.675 305.524 694.675C302.224 694.675 299.774 696.9 299.774 700.05C299.774 703.225 302.224 705.475 305.524 705.475C307.474 705.475 309.099 704.7 310.149 703.425H315.824V706.65H317.899V693.425L315.824 693.45Z" fill="black"/>
<path d="M20.5547 689.217C19.5176 688.924 18.7354 688.44 18.208 687.767C17.6865 687.099 17.4258 686.214 17.4258 685.112V683.363C17.4258 681.939 16.8047 681.228 15.5625 681.228V679.953C16.8047 679.953 17.4258 679.244 17.4258 677.826V675.998C17.4375 674.926 17.6982 674.062 18.208 673.405C18.7236 672.743 19.5059 672.263 20.5547 671.964L20.8887 672.975C19.6641 673.367 19.0518 674.39 19.0518 676.042V677.817C19.0518 679.147 18.5625 680.073 17.584 680.595C18.5625 681.122 19.0518 682.057 19.0518 683.398V685.209C19.0693 686.82 19.6816 687.819 20.8887 688.206L20.5547 689.217ZM31.4316 679.088C29.0556 678.278 27.5076 676.28 27.5076 674.138V673.508H31.0716V672.32H22.4136V673.508H26.0316V674.156C26.0316 676.46 24.4116 678.548 21.9816 679.394L22.7556 680.564C24.6456 679.862 26.1036 678.44 26.7876 676.64C27.4896 678.296 28.8756 679.61 30.6756 680.24L31.4316 679.088ZM24.0696 682.976H33.1056V687.35H34.5816V681.788H24.0696V682.976ZM36.9756 675.434H34.5816V671.204H33.1056V680.924H34.5816V676.658H36.9756V675.434ZM50.4202 680.744H51.9142V671.204H50.4202V674.624H46.9102V675.83H50.4202V680.744ZM48.0802 678.836C45.7222 678.008 44.1562 676.01 44.1562 673.706V672.104H42.6802V673.76C42.6802 676.226 41.0782 678.386 38.5942 679.268L39.3682 680.474C41.3122 679.736 42.7702 678.278 43.4542 676.37C44.1562 678.044 45.5242 679.322 47.2882 679.988L48.0802 678.836ZM46.5862 686.144C44.1562 686.144 42.6802 685.442 42.6802 684.272C42.6802 683.084 44.1562 682.382 46.5862 682.382C49.0162 682.382 50.4922 683.084 50.4922 684.272C50.4922 685.442 49.0162 686.144 46.5862 686.144ZM46.5862 681.23C43.2742 681.23 41.2042 682.328 41.2042 684.272C41.2042 686.198 43.2742 687.314 46.5862 687.314C49.8982 687.314 51.9682 686.198 51.9682 684.272C51.9682 682.328 49.8982 681.23 46.5862 681.23ZM60.6068 674.066H64.1888V672.842H55.4588V674.066H59.1488V676.118C59.1488 678.854 57.2048 681.914 54.9008 683.066L55.7648 684.236C57.5828 683.3 59.1488 681.248 59.8868 678.89C60.6248 681.05 62.1368 682.94 63.9368 683.84L64.7828 682.652C62.4428 681.554 60.6068 678.692 60.6068 676.118V674.066ZM70.2548 677.702H67.5908V671.204H66.1148V687.332H67.5908V678.944H70.2548V677.702ZM78.3894 678.404H73.9254V673.598H78.3894V678.404ZM83.5374 675.002V677H79.8294V675.002H83.5374ZM79.8294 678.188H83.5374V680.744H85.0314V671.204H83.5374V673.814H79.8294V672.41H72.4674V679.574H79.8294V678.188ZM79.6854 686.162C77.2734 686.162 75.7974 685.46 75.7974 684.272C75.7974 683.084 77.2734 682.382 79.6854 682.382C82.1334 682.382 83.6094 683.084 83.6094 684.272C83.6094 685.46 82.1334 686.162 79.6854 686.162ZM79.6854 681.23C76.3734 681.23 74.3214 682.328 74.3214 684.272C74.3214 686.198 76.3734 687.314 79.6854 687.314C83.0154 687.314 85.0854 686.198 85.0854 684.272C85.0854 682.328 83.0154 681.23 79.6854 681.23ZM87.501 688.206C88.6904 687.825 89.3057 686.855 89.3467 685.297V683.363C89.3467 682.01 89.877 681.087 90.9375 680.595C89.877 680.114 89.3467 679.191 89.3467 677.826V676.042C89.3467 674.39 88.7344 673.367 87.5098 672.975L87.8438 671.964C88.8809 672.257 89.6602 672.734 90.1816 673.396C90.7031 674.053 90.9668 674.923 90.9727 676.007V677.853C90.9727 679.253 91.5938 679.953 92.8359 679.953V681.228C91.5938 681.228 90.9727 681.939 90.9727 683.363V685.139C90.9727 686.24 90.7061 687.122 90.1729 687.784C89.6455 688.446 88.8691 688.924 87.8438 689.217L87.501 688.206ZM100.746 688.373H99.4365V673.203H100.746V688.373ZM112.312 689.217C111.275 688.924 110.493 688.44 109.966 687.767C109.444 687.099 109.184 686.214 109.184 685.112V683.363C109.184 681.939 108.562 681.228 107.32 681.228V679.953C108.562 679.953 109.184 679.244 109.184 677.826V675.998C109.195 674.926 109.456 674.062 109.966 673.405C110.481 672.743 111.264 672.263 112.312 671.964L112.646 672.975C111.422 673.367 110.81 674.39 110.81 676.042V677.817C110.81 679.147 110.32 680.073 109.342 680.595C110.32 681.122 110.81 682.057 110.81 683.398V685.209C110.827 686.82 111.439 687.819 112.646 688.206L112.312 689.217ZM118.245 679.628L121.585 673.203H123.501L119.089 681.228V686H117.401V681.228L112.989 673.203H114.923L118.245 679.628ZM129.214 679.628L132.554 673.203H134.47L130.058 681.228V686H128.37V681.228L123.958 673.203H125.892L129.214 679.628ZM140.183 679.628L143.522 673.203H145.438L141.026 681.228V686H139.339V681.228L134.927 673.203H136.86L140.183 679.628ZM151.151 679.628L154.491 673.203H156.407L151.995 681.228V686H150.308V681.228L145.896 673.203H147.829L151.151 679.628ZM160.731 681.228H156.442V679.9H160.731V681.228ZM164.757 673.203L168.94 683.645L173.124 673.203H175.312V686H173.625V681.017L173.783 675.638L169.582 686H168.29L164.098 675.664L164.265 681.017V686H162.577V673.203H164.757ZM180.472 673.203L184.655 683.645L188.839 673.203H191.027V686H189.34V681.017L189.498 675.638L185.297 686H184.005L179.812 675.664L179.979 681.017V686H178.292V673.203H180.472ZM197.136 681.228H192.847V679.9H197.136V681.228ZM198.981 686V673.203H202.594C203.707 673.203 204.691 673.449 205.547 673.941C206.402 674.434 207.062 675.134 207.524 676.042C207.993 676.95 208.23 677.993 208.236 679.171V679.988C208.236 681.195 208.002 682.253 207.533 683.161C207.07 684.069 206.405 684.767 205.538 685.253C204.677 685.739 203.672 685.988 202.523 686H198.981ZM200.669 674.592V684.62H202.444C203.745 684.62 204.756 684.216 205.477 683.407C206.203 682.599 206.566 681.447 206.566 679.953V679.206C206.566 677.753 206.224 676.625 205.538 675.822C204.858 675.014 203.892 674.604 202.638 674.592H200.669ZM210.794 686V673.203H214.406C215.52 673.203 216.504 673.449 217.359 673.941C218.215 674.434 218.874 675.134 219.337 676.042C219.806 676.95 220.043 677.993 220.049 679.171V679.988C220.049 681.195 219.814 682.253 219.346 683.161C218.883 684.069 218.218 684.767 217.351 685.253C216.489 685.739 215.484 685.988 214.336 686H210.794ZM212.481 674.592V684.62H214.257C215.558 684.62 216.568 684.216 217.289 683.407C218.016 682.599 218.379 681.447 218.379 679.953V679.206C218.379 677.753 218.036 676.625 217.351 675.822C216.671 675.014 215.704 674.604 214.45 674.592H212.481ZM221.288 688.206C222.478 687.825 223.093 686.855 223.134 685.297V683.363C223.134 682.01 223.664 681.087 224.725 680.595C223.664 680.114 223.134 679.191 223.134 677.826V676.042C223.134 674.39 222.521 673.367 221.297 672.975L221.631 671.964C222.668 672.257 223.447 672.734 223.969 673.396C224.49 674.053 224.754 674.923 224.76 676.007V677.853C224.76 679.253 225.381 679.953 226.623 679.953V681.228C225.381 681.228 224.76 681.939 224.76 683.363V685.139C224.76 686.24 224.493 687.122 223.96 687.784C223.433 688.446 222.656 688.924 221.631 689.217L221.288 688.206Z" fill="black"/>
<rect x="0.5" y="0.5" width="359" height="59" fill="#C4C4C4" stroke="black"/>
<path d="M71.7148 42.4678C70.2744 42.0609 69.188 41.3895 68.4556 40.4536C67.7313 39.5259 67.3691 38.297 67.3691 36.7671V34.3379C67.3691 32.3604 66.5065 31.3716 64.7812 31.3716V29.6016C66.5065 29.6016 67.3691 28.6169 67.3691 26.6475V24.1084C67.3854 22.6191 67.7476 21.4188 68.4556 20.5073C69.1717 19.5877 70.2581 18.9204 71.7148 18.5054L72.1787 19.9092C70.4779 20.4544 69.6274 21.8745 69.6274 24.1694V26.6353C69.6274 28.4826 68.9479 29.7684 67.5889 30.4927C68.9479 31.2251 69.6274 32.5231 69.6274 34.3867V36.9014C69.6519 39.1393 70.5023 40.5269 72.1787 41.064L71.7148 42.4678ZM77.7217 21.925H80.5217V32.45C79.5717 32.5 78.6467 32.525 77.7217 32.55V21.925ZM82.3967 21.925H84.2467V20.275H73.9967V21.925H75.8467V32.6C74.9967 32.625 74.2467 32.625 73.5717 32.625L73.7717 34.325C76.6967 34.325 81.3967 34.225 84.8717 33.575L84.7467 32.075C84.0217 32.175 83.1967 32.25 82.3967 32.325V21.925ZM86.6467 25.975H83.5717V27.775H86.6467V38.675H88.5717V17.975H86.6467V25.975ZM90.9717 17.45V39.85H92.9467V17.45H90.9717ZM113.095 17.425V39.9H115.145V17.425H113.095ZM103.32 19.15C99.9947 19.15 97.6197 22.2 97.6197 26.975C97.6197 31.75 99.9947 34.8 103.32 34.8C106.645 34.8 109.02 31.75 109.02 26.975C109.02 22.2 106.645 19.15 103.32 19.15ZM103.32 21C105.495 21 107.045 23.35 107.045 26.975C107.045 30.625 105.495 32.975 103.32 32.975C101.12 32.975 99.5697 30.625 99.5697 26.975C99.5697 23.35 101.12 21 103.32 21ZM127.793 21.425H133.068V19.725H120.543V21.425H125.743V24.275C125.743 28.15 123.018 32.375 119.793 33.9L120.993 35.55C123.543 34.25 125.743 31.425 126.768 28.15C127.843 31.225 130.043 33.8 132.643 35L133.793 33.35C130.493 31.95 127.793 28.075 127.793 24.275V21.425ZM136.093 17.45V39.85H138.143V17.45H136.093ZM155.567 21.725H159.567V20.05H149.342V21.725H153.592V23.75C153.592 27.875 151.842 31.95 148.717 33.825L149.967 35.35C152.192 33.95 153.817 31.325 154.592 28.25C155.367 31.1 156.917 33.5 159.092 34.8L160.342 33.3C157.242 31.55 155.567 27.65 155.567 23.75V21.725ZM161.567 25.475H157.867V27.15H161.567V38.675H163.517V17.925H161.567V25.475ZM166.067 17.4V39.825H168.042V17.4H166.067ZM174.24 34.425H187.715V39.875H189.765V32.775H174.24V34.425ZM176.59 19.975H187.64V24.325H176.59V19.975ZM183.165 28.8V25.95H189.665V18.35H174.59V25.95H181.115V28.8H171.965V30.45H192.265V28.8H183.165ZM193.895 41.064C195.547 40.535 196.402 39.1882 196.458 37.0234V34.3379C196.458 32.458 197.195 31.1763 198.668 30.4927C197.195 29.8254 196.458 28.5436 196.458 26.6475V24.1694C196.458 21.8745 195.608 20.4544 193.907 19.9092L194.371 18.5054C195.812 18.9123 196.894 19.5755 197.618 20.4951C198.342 21.4066 198.709 22.6151 198.717 24.1206V26.6841C198.717 28.6291 199.579 29.6016 201.305 29.6016V31.3716C199.579 31.3716 198.717 32.3604 198.717 34.3379V36.8037C198.717 38.3337 198.347 39.5584 197.606 40.478C196.874 41.3976 195.795 42.0609 194.371 42.4678L193.895 41.064Z" fill="black"/>
<rect x="10.5" y="10.5" width="39" height="39" fill="#C4C4C4" stroke="black"/>
<path d="M18.7139 35H17.4492V24.5H18.7139V35ZM20.4092 31.2334C20.4092 30.5088 20.5505 29.8571 20.833 29.2783C21.1201 28.6995 21.5166 28.2529 22.0225 27.9385C22.5329 27.624 23.1139 27.4668 23.7656 27.4668C24.7728 27.4668 25.5863 27.8154 26.2061 28.5127C26.8304 29.21 27.1426 30.1374 27.1426 31.2949V31.3838C27.1426 32.1038 27.0036 32.751 26.7256 33.3252C26.4521 33.8949 26.0579 34.3392 25.543 34.6582C25.0326 34.9772 24.4447 35.1367 23.7793 35.1367C22.7767 35.1367 21.9632 34.7881 21.3389 34.0908C20.7191 33.3936 20.4092 32.4707 20.4092 31.3223V31.2334ZM21.6807 31.3838C21.6807 32.2041 21.8698 32.8626 22.248 33.3594C22.6309 33.8561 23.1413 34.1045 23.7793 34.1045C24.4219 34.1045 24.9323 33.8538 25.3105 33.3525C25.6888 32.8467 25.8779 32.1403 25.8779 31.2334C25.8779 30.4222 25.6842 29.766 25.2969 29.2646C24.9141 28.7588 24.4036 28.5059 23.7656 28.5059C23.1413 28.5059 22.6377 28.7542 22.2549 29.251C21.8721 29.7477 21.6807 30.4587 21.6807 31.3838ZM28.4277 31.2402C28.4277 30.0872 28.6943 29.1712 29.2275 28.4922C29.7607 27.8086 30.4671 27.4668 31.3467 27.4668C32.249 27.4668 32.9531 27.7858 33.459 28.4238L33.5205 27.6035H34.6758V34.8223C34.6758 35.7793 34.391 36.5335 33.8213 37.085C33.2562 37.6364 32.4951 37.9121 31.5381 37.9121C31.0049 37.9121 30.4831 37.7982 29.9727 37.5703C29.4622 37.3424 29.0726 37.0303 28.8037 36.6338L29.46 35.875C30.0023 36.5449 30.6654 36.8799 31.4492 36.8799C32.0645 36.8799 32.543 36.7067 32.8848 36.3604C33.2311 36.014 33.4043 35.5264 33.4043 34.8975V34.2617C32.8984 34.8451 32.208 35.1367 31.333 35.1367C30.4671 35.1367 29.7653 34.7881 29.2275 34.0908C28.6943 33.3936 28.4277 32.4434 28.4277 31.2402ZM29.6992 31.3838C29.6992 32.2178 29.8701 32.874 30.2119 33.3525C30.5537 33.8265 31.0322 34.0635 31.6475 34.0635C32.445 34.0635 33.0306 33.7012 33.4043 32.9766V29.5996C33.0169 28.8932 32.4359 28.54 31.6611 28.54C31.0459 28.54 30.5651 28.7793 30.2188 29.2578C29.8724 29.7363 29.6992 30.445 29.6992 31.3838ZM36.2549 31.2334C36.2549 30.5088 36.3962 29.8571 36.6787 29.2783C36.9658 28.6995 37.3623 28.2529 37.8682 27.9385C38.3786 27.624 38.9596 27.4668 39.6113 27.4668C40.6185 27.4668 41.432 27.8154 42.0518 28.5127C42.6761 29.21 42.9883 30.1374 42.9883 31.2949V31.3838C42.9883 32.1038 42.8493 32.751 42.5713 33.3252C42.2979 33.8949 41.9036 34.3392 41.3887 34.6582C40.8783 34.9772 40.2904 35.1367 39.625 35.1367C38.6224 35.1367 37.8089 34.7881 37.1846 34.0908C36.5648 33.3936 36.2549 32.4707 36.2549 31.3223V31.2334ZM37.5264 31.3838C37.5264 32.2041 37.7155 32.8626 38.0938 33.3594C38.4766 33.8561 38.987 34.1045 39.625 34.1045C40.2676 34.1045 40.778 33.8538 41.1562 33.3525C41.5345 32.8467 41.7236 32.1403 41.7236 31.2334C41.7236 30.4222 41.5299 29.766 41.1426 29.2646C40.7598 28.7588 40.2493 28.5059 39.6113 28.5059C38.987 28.5059 38.4834 28.7542 38.1006 29.251C37.7178 29.7477 37.5264 30.4587 37.5264 31.3838Z" fill="black"/>
<rect x="310.5" y="10.5" width="39" height="39" fill="#C4C4C4" stroke="black"/>
<path d="M319.61 35H318.346V27.6035H319.61V35ZM318.243 25.6416C318.243 25.4365 318.305 25.2633 318.428 25.1221C318.555 24.9808 318.742 24.9102 318.988 24.9102C319.234 24.9102 319.421 24.9808 319.549 25.1221C319.676 25.2633 319.74 25.4365 319.74 25.6416C319.74 25.8467 319.676 26.0176 319.549 26.1543C319.421 26.291 319.234 26.3594 318.988 26.3594C318.742 26.3594 318.555 26.291 318.428 26.1543C318.305 26.0176 318.243 25.8467 318.243 25.6416ZM324.607 34.1045C325.059 34.1045 325.453 33.9678 325.79 33.6943C326.127 33.4209 326.314 33.0791 326.351 32.6689H327.547C327.524 33.0928 327.378 33.4961 327.109 33.8789C326.84 34.2617 326.48 34.5671 326.029 34.7949C325.583 35.0228 325.109 35.1367 324.607 35.1367C323.6 35.1367 322.798 34.8018 322.201 34.1318C321.609 33.4574 321.312 32.5368 321.312 31.3701V31.1582C321.312 30.4382 321.445 29.7979 321.709 29.2373C321.973 28.6768 322.352 28.2415 322.844 27.9316C323.34 27.6217 323.926 27.4668 324.601 27.4668C325.43 27.4668 326.118 27.7152 326.665 28.2119C327.216 28.7087 327.51 29.3535 327.547 30.1465H326.351C326.314 29.668 326.132 29.276 325.804 28.9707C325.48 28.6608 325.079 28.5059 324.601 28.5059C323.958 28.5059 323.459 28.7383 323.104 29.2031C322.753 29.6634 322.577 30.3311 322.577 31.2061V31.4453C322.577 32.2975 322.753 32.9538 323.104 33.4141C323.454 33.8743 323.956 34.1045 324.607 34.1045ZM328.634 31.2334C328.634 30.5088 328.775 29.8571 329.058 29.2783C329.345 28.6995 329.741 28.2529 330.247 27.9385C330.757 27.624 331.339 27.4668 331.99 27.4668C332.997 27.4668 333.811 27.8154 334.431 28.5127C335.055 29.21 335.367 30.1374 335.367 31.2949V31.3838C335.367 32.1038 335.228 32.751 334.95 33.3252C334.677 33.8949 334.283 34.3392 333.768 34.6582C333.257 34.9772 332.669 35.1367 332.004 35.1367C331.001 35.1367 330.188 34.7881 329.563 34.0908C328.944 33.3936 328.634 32.4707 328.634 31.3223V31.2334ZM329.905 31.3838C329.905 32.2041 330.094 32.8626 330.473 33.3594C330.855 33.8561 331.366 34.1045 332.004 34.1045C332.646 34.1045 333.157 33.8538 333.535 33.3525C333.913 32.8467 334.103 32.1403 334.103 31.2334C334.103 30.4222 333.909 29.766 333.521 29.2646C333.139 28.7588 332.628 28.5059 331.99 28.5059C331.366 28.5059 330.862 28.7542 330.479 29.251C330.097 29.7477 329.905 30.4587 329.905 31.3838ZM338.149 27.6035L338.19 28.5332C338.756 27.8223 339.494 27.4668 340.405 27.4668C341.968 27.4668 342.757 28.3486 342.771 30.1123V35H341.506V30.1055C341.501 29.5723 341.378 29.1781 341.137 28.9229C340.9 28.6676 340.528 28.54 340.022 28.54C339.612 28.54 339.252 28.6494 338.942 28.8682C338.632 29.0869 338.391 29.374 338.218 29.7295V35H336.953V27.6035H338.149Z" fill="black"/>
<rect x="8.5" y="1934.5" width="343" height="304" fill="#C4C4C4" stroke="black"/>
<path d="M247.879 2225.15H240.42V2233H238.077V2215.23H249.087V2217.16H240.42V2223.23H247.879V2225.15ZM250.674 2226.27C250.674 2224.98 250.927 2223.82 251.431 2222.78C251.944 2221.75 252.652 2220.95 253.555 2220.39C254.467 2219.83 255.504 2219.55 256.668 2219.55C258.466 2219.55 259.919 2220.17 261.026 2221.42C262.141 2222.66 262.698 2224.32 262.698 2226.38V2226.54C262.698 2227.83 262.45 2228.98 261.954 2230.01C261.465 2231.03 260.761 2231.82 259.842 2232.39C258.93 2232.96 257.881 2233.24 256.692 2233.24C254.902 2233.24 253.449 2232.62 252.334 2231.38C251.228 2230.13 250.674 2228.48 250.674 2226.43V2226.27ZM252.945 2226.54C252.945 2228.01 253.283 2229.18 253.958 2230.07C254.642 2230.96 255.553 2231.4 256.692 2231.4C257.84 2231.4 258.751 2230.95 259.427 2230.06C260.102 2229.15 260.44 2227.89 260.44 2226.27C260.44 2224.83 260.094 2223.65 259.402 2222.76C258.719 2221.85 257.807 2221.4 256.668 2221.4C255.553 2221.4 254.654 2221.85 253.97 2222.73C253.287 2223.62 252.945 2224.89 252.945 2226.54ZM264.932 2226.27C264.932 2224.98 265.184 2223.82 265.689 2222.78C266.202 2221.75 266.91 2220.95 267.813 2220.39C268.724 2219.83 269.762 2219.55 270.926 2219.55C272.724 2219.55 274.177 2220.17 275.284 2221.42C276.399 2222.66 276.956 2224.32 276.956 2226.38V2226.54C276.956 2227.83 276.708 2228.98 276.211 2230.01C275.723 2231.03 275.019 2231.82 274.1 2232.39C273.188 2232.96 272.138 2233.24 270.95 2233.24C269.16 2233.24 267.707 2232.62 266.592 2231.38C265.486 2230.13 264.932 2228.48 264.932 2226.43V2226.27ZM267.203 2226.54C267.203 2228.01 267.54 2229.18 268.216 2230.07C268.899 2230.96 269.811 2231.4 270.95 2231.4C272.098 2231.4 273.009 2230.95 273.685 2230.06C274.36 2229.15 274.698 2227.89 274.698 2226.27C274.698 2224.83 274.352 2223.65 273.66 2222.76C272.977 2221.85 272.065 2221.4 270.926 2221.4C269.811 2221.4 268.912 2221.85 268.228 2222.73C267.544 2223.62 267.203 2224.89 267.203 2226.54ZM282.852 2216.59V2219.79H285.318V2221.54H282.852V2229.73C282.852 2230.26 282.962 2230.66 283.182 2230.92C283.401 2231.19 283.776 2231.32 284.305 2231.32C284.565 2231.32 284.923 2231.27 285.379 2231.17V2233C284.785 2233.16 284.207 2233.24 283.646 2233.24C282.636 2233.24 281.875 2232.94 281.363 2232.33C280.85 2231.72 280.594 2230.85 280.594 2229.73V2221.54H278.189V2219.79H280.594V2216.59H282.852ZM293.448 2233.24C291.657 2233.24 290.201 2232.66 289.078 2231.49C287.955 2230.31 287.393 2228.73 287.393 2226.76V2226.35C287.393 2225.04 287.641 2223.87 288.138 2222.84C288.642 2221.81 289.342 2221 290.237 2220.43C291.141 2219.84 292.117 2219.55 293.167 2219.55C294.884 2219.55 296.219 2220.11 297.171 2221.24C298.123 2222.38 298.599 2224 298.599 2226.1V2227.04H289.651C289.684 2228.35 290.062 2229.4 290.787 2230.2C291.519 2231 292.447 2231.4 293.57 2231.4C294.367 2231.4 295.043 2231.24 295.596 2230.91C296.15 2230.59 296.634 2230.16 297.049 2229.62L298.428 2230.69C297.321 2232.39 295.661 2233.24 293.448 2233.24ZM293.167 2221.4C292.256 2221.4 291.491 2221.74 290.872 2222.4C290.254 2223.06 289.871 2223.99 289.725 2225.19H296.341V2225.02C296.276 2223.87 295.966 2222.98 295.413 2222.36C294.86 2221.72 294.111 2221.4 293.167 2221.4ZM307.608 2221.82C307.266 2221.76 306.896 2221.73 306.497 2221.73C305.016 2221.73 304.011 2222.36 303.482 2223.62V2233H301.224V2219.79H303.421L303.458 2221.32C304.198 2220.14 305.248 2219.55 306.607 2219.55C307.046 2219.55 307.38 2219.6 307.608 2219.72V2221.82Z" fill="black"/>
</svg>
