<svg width="700" height="2239" viewBox="0 0 700 2239" fill="none" xmlns="http://www.w3.org/2000/svg">
<rect width="700" height="2239" fill="white"/>
<rect x="0.5" y="60.5" width="699" height="304" fill="#C4C4C4" stroke="black"/>
<rect x="0.5" y="60.5" width="699" height="154" fill="#C4C4C4" stroke="black"/>
<path d="M306.201 150.468C304.761 150.061 303.674 149.389 302.942 148.454C302.218 147.526 301.856 146.297 301.856 144.767V142.338C301.856 140.36 300.993 139.372 299.268 139.372V137.602C300.993 137.602 301.856 136.617 301.856 134.647V132.108C301.872 130.619 302.234 129.419 302.942 128.507C303.658 127.588 304.745 126.92 306.201 126.505L306.665 127.909C304.964 128.454 304.114 129.875 304.114 132.169V134.635C304.114 136.483 303.434 137.768 302.075 138.493C303.434 139.225 304.114 140.523 304.114 142.387V144.901C304.138 147.139 304.989 148.527 306.665 149.064L306.201 150.468ZM322.681 146H320.325V137.785H311.365V146H309.021V128.227H311.365V135.868H320.325V128.227H322.681V146ZM333.679 146H331.409V130.949L326.856 132.621V130.57L333.325 128.141H333.679V146ZM358.875 130.155H353.162V146H350.83V130.155H345.129V128.227H358.875V130.155ZM363.611 146H361.353V132.792H363.611V146ZM361.17 129.289C361.17 128.922 361.279 128.613 361.499 128.361C361.727 128.109 362.061 127.982 362.5 127.982C362.94 127.982 363.273 128.109 363.501 128.361C363.729 128.613 363.843 128.922 363.843 129.289C363.843 129.655 363.729 129.96 363.501 130.204C363.273 130.448 362.94 130.57 362.5 130.57C362.061 130.57 361.727 130.448 361.499 130.204C361.279 129.96 361.17 129.655 361.17 129.289ZM370.3 129.594V132.792H372.766V134.538H370.3V142.729C370.3 143.257 370.41 143.656 370.63 143.925C370.85 144.185 371.224 144.315 371.753 144.315C372.013 144.315 372.372 144.267 372.827 144.169V146C372.233 146.163 371.655 146.244 371.094 146.244C370.085 146.244 369.324 145.939 368.811 145.329C368.298 144.718 368.042 143.852 368.042 142.729V134.538H365.637V132.792H368.042V129.594H370.3ZM377.869 146H375.61V127.25H377.869V146ZM386.975 146.244C385.185 146.244 383.728 145.658 382.605 144.486C381.482 143.306 380.921 141.732 380.921 139.762V139.347C380.921 138.037 381.169 136.869 381.665 135.844C382.17 134.81 382.87 134.005 383.765 133.427C384.668 132.841 385.645 132.548 386.694 132.548C388.412 132.548 389.746 133.113 390.698 134.245C391.65 135.376 392.127 136.995 392.127 139.103V140.043H383.179C383.211 141.345 383.59 142.399 384.314 143.205C385.046 144.002 385.974 144.401 387.097 144.401C387.895 144.401 388.57 144.238 389.124 143.913C389.677 143.587 390.161 143.156 390.576 142.619L391.956 143.693C390.849 145.394 389.189 146.244 386.975 146.244ZM386.694 134.403C385.783 134.403 385.018 134.737 384.4 135.404C383.781 136.063 383.399 136.991 383.252 138.188H389.868V138.017C389.803 136.869 389.494 135.982 388.941 135.355C388.387 134.721 387.638 134.403 386.694 134.403ZM393.274 149.064C394.926 148.535 395.781 147.188 395.837 145.023V142.338C395.837 140.458 396.574 139.176 398.047 138.493C396.574 137.825 395.837 136.544 395.837 134.647V132.169C395.837 129.875 394.987 128.454 393.286 127.909L393.75 126.505C395.191 126.912 396.273 127.576 396.997 128.495C397.721 129.407 398.088 130.615 398.096 132.121V134.684C398.096 136.629 398.958 137.602 400.684 137.602V139.372C398.958 139.372 398.096 140.36 398.096 142.338V144.804C398.096 146.334 397.726 147.558 396.985 148.478C396.253 149.398 395.174 150.061 393.75 150.468L393.274 149.064Z" fill="black"/>
<rect x="0.5" y="215.5" width="699" height="68" fill="#C4C4C4" stroke="black"/>
<path d="M306.201 262.468C304.761 262.061 303.674 261.389 302.942 260.454C302.218 259.526 301.856 258.297 301.856 256.767V254.338C301.856 252.36 300.993 251.372 299.268 251.372V249.602C300.993 249.602 301.856 248.617 301.856 246.647V244.108C301.872 242.619 302.234 241.419 302.942 240.507C303.658 239.588 304.745 238.92 306.201 238.505L306.665 239.909C304.964 240.454 304.114 241.875 304.114 244.169V246.635C304.114 248.483 303.434 249.768 302.075 250.493C303.434 251.225 304.114 252.523 304.114 254.387V256.901C304.138 259.139 304.989 260.527 306.665 261.064L306.201 262.468ZM322.681 258H320.325V249.785H311.365V258H309.021V240.227H311.365V247.868H320.325V240.227H322.681V258ZM337.903 258H326.257V256.376L332.41 249.541C333.321 248.507 333.948 247.669 334.29 247.026C334.64 246.375 334.815 245.703 334.815 245.012C334.815 244.084 334.534 243.323 333.972 242.729C333.411 242.135 332.662 241.838 331.726 241.838C330.603 241.838 329.728 242.159 329.102 242.802C328.483 243.437 328.174 244.324 328.174 245.463H325.916C325.916 243.828 326.441 242.505 327.49 241.496C328.548 240.487 329.96 239.982 331.726 239.982C333.378 239.982 334.684 240.418 335.645 241.289C336.605 242.151 337.085 243.303 337.085 244.743C337.085 246.493 335.97 248.576 333.74 250.993L328.98 256.157H337.903V258ZM358.875 242.155H353.162V258H350.83V242.155H345.129V240.227H358.875V242.155ZM363.611 258H361.353V244.792H363.611V258ZM361.17 241.289C361.17 240.922 361.279 240.613 361.499 240.361C361.727 240.109 362.061 239.982 362.5 239.982C362.94 239.982 363.273 240.109 363.501 240.361C363.729 240.613 363.843 240.922 363.843 241.289C363.843 241.655 363.729 241.96 363.501 242.204C363.273 242.448 362.94 242.57 362.5 242.57C362.061 242.57 361.727 242.448 361.499 242.204C361.279 241.96 361.17 241.655 361.17 241.289ZM370.3 241.594V244.792H372.766V246.538H370.3V254.729C370.3 255.257 370.41 255.656 370.63 255.925C370.85 256.185 371.224 256.315 371.753 256.315C372.013 256.315 372.372 256.267 372.827 256.169V258C372.233 258.163 371.655 258.244 371.094 258.244C370.085 258.244 369.324 257.939 368.811 257.329C368.298 256.718 368.042 255.852 368.042 254.729V246.538H365.637V244.792H368.042V241.594H370.3ZM377.869 258H375.61V239.25H377.869V258ZM386.975 258.244C385.185 258.244 383.728 257.658 382.605 256.486C381.482 255.306 380.921 253.732 380.921 251.762V251.347C380.921 250.037 381.169 248.869 381.665 247.844C382.17 246.81 382.87 246.005 383.765 245.427C384.668 244.841 385.645 244.548 386.694 244.548C388.412 244.548 389.746 245.113 390.698 246.245C391.65 247.376 392.127 248.995 392.127 251.103V252.043H383.179C383.211 253.345 383.59 254.399 384.314 255.205C385.046 256.002 385.974 256.401 387.097 256.401C387.895 256.401 388.57 256.238 389.124 255.913C389.677 255.587 390.161 255.156 390.576 254.619L391.956 255.693C390.849 257.394 389.189 258.244 386.975 258.244ZM386.694 246.403C385.783 246.403 385.018 246.737 384.4 247.404C383.781 248.063 383.399 248.991 383.252 250.188H389.868V250.017C389.803 248.869 389.494 247.982 388.941 247.355C388.387 246.721 387.638 246.403 386.694 246.403ZM393.274 261.064C394.926 260.535 395.781 259.188 395.837 257.023V254.338C395.837 252.458 396.574 251.176 398.047 250.493C396.574 249.825 395.837 248.544 395.837 246.647V244.169C395.837 241.875 394.987 240.454 393.286 239.909L393.75 238.505C395.191 238.912 396.273 239.576 396.997 240.495C397.721 241.407 398.088 242.615 398.096 244.121V246.684C398.096 248.629 398.958 249.602 400.684 249.602V251.372C398.958 251.372 398.096 252.36 398.096 254.338V256.804C398.096 258.334 397.726 259.558 396.985 260.478C396.253 261.398 395.174 262.061 393.75 262.468L393.274 261.064Z" fill="black"/>
<path d="M578.803 342.725H582.803V341.05H572.578V342.725H576.828V344.75C576.828 348.875 575.078 352.95 571.953 354.825L573.203 356.35C575.428 354.95 577.053 352.325 577.828 349.25C578.603 352.1 580.153 354.5 582.328 355.8L583.578 354.3C580.478 352.55 578.803 348.65 578.803 344.75V342.725ZM584.803 346.475H581.103V348.15H584.803V359.675H586.753V338.925H584.803V346.475ZM589.303 338.4V360.825H591.278V338.4H589.303ZM597.476 355.425H610.951V360.875H613.001V353.775H597.476V355.425ZM599.826 340.975H610.876V345.325H599.826V340.975ZM606.401 349.8V346.95H612.901V339.35H597.826V346.95H604.351V349.8H595.201V351.45H615.501V349.8H606.401ZM626.726 345.075C626.726 343 628.376 341.5 630.551 341.5C632.751 341.5 634.351 343 634.351 345.075C634.351 347.175 632.751 348.675 630.551 348.675C628.376 348.675 626.726 347.175 626.726 345.075ZM640.826 343.325V346.825H636.001C636.201 346.275 636.301 345.7 636.301 345.075C636.301 344.425 636.201 343.85 636.026 343.325H640.826ZM640.826 348.5V351.7H642.901V338.425H640.826V341.65H635.076C634.051 340.5 632.451 339.775 630.551 339.775C627.226 339.775 624.776 341.95 624.776 345.075C624.776 348.225 627.226 350.425 630.551 350.425C632.451 350.425 634.051 349.7 635.076 348.5H640.826ZM635.476 359.2C632.101 359.2 630.051 358.2 630.051 356.525C630.051 354.825 632.101 353.825 635.476 353.825C638.901 353.825 640.951 354.825 640.951 356.525C640.951 358.2 638.901 359.2 635.476 359.2ZM635.476 352.225C630.876 352.225 628.026 353.8 628.026 356.525C628.026 359.25 630.876 360.825 635.476 360.825C640.101 360.825 642.976 359.25 642.976 356.525C642.976 353.8 640.101 352.225 635.476 352.225ZM650.899 354.55H663.824V360.875H665.899V352.875H650.899V354.55ZM659.049 346.75C659.199 346.225 659.299 345.675 659.299 345.05C659.299 344.45 659.199 343.9 659.049 343.375H663.824V346.75H659.049ZM653.524 348.725C651.349 348.725 649.724 347.2 649.724 345.05C649.724 342.95 651.349 341.425 653.524 341.425C655.724 341.425 657.349 342.95 657.349 345.05C657.349 347.2 655.724 348.725 653.524 348.725ZM663.824 338.45V341.725H658.174C657.124 340.45 655.474 339.675 653.524 339.675C650.224 339.675 647.774 341.9 647.774 345.05C647.774 348.225 650.224 350.475 653.524 350.475C655.474 350.475 657.099 349.7 658.149 348.425H663.824V351.65H665.899V338.425L663.824 338.45Z" fill="black"/>
<path d="M20.5547 334.217C19.5176 333.924 18.7354 333.44 18.208 332.767C17.6865 332.099 17.4258 331.214 17.4258 330.112V328.363C17.4258 326.939 16.8047 326.228 15.5625 326.228V324.953C16.8047 324.953 17.4258 324.244 17.4258 322.826V320.998C17.4375 319.926 17.6982 319.062 18.208 318.405C18.7236 317.743 19.5059 317.263 20.5547 316.964L20.8887 317.975C19.6641 318.367 19.0518 319.39 19.0518 321.042V322.817C19.0518 324.147 18.5625 325.073 17.584 325.595C18.5625 326.122 19.0518 327.057 19.0518 328.398V330.209C19.0693 331.82 19.6816 332.819 20.8887 333.206L20.5547 334.217ZM31.4316 324.088C29.0556 323.278 27.5076 321.28 27.5076 319.138V318.508H31.0716V317.32H22.4136V318.508H26.0316V319.156C26.0316 321.46 24.4116 323.548 21.9816 324.394L22.7556 325.564C24.6456 324.862 26.1036 323.44 26.7876 321.64C27.4896 323.296 28.8756 324.61 30.6756 325.24L31.4316 324.088ZM24.0696 327.976H33.1056V332.35H34.5816V326.788H24.0696V327.976ZM36.9756 320.434H34.5816V316.204H33.1056V325.924H34.5816V321.658H36.9756V320.434ZM50.4202 325.744H51.9142V316.204H50.4202V319.624H46.9102V320.83H50.4202V325.744ZM48.0802 323.836C45.7222 323.008 44.1562 321.01 44.1562 318.706V317.104H42.6802V318.76C42.6802 321.226 41.0782 323.386 38.5942 324.268L39.3682 325.474C41.3122 324.736 42.7702 323.278 43.4542 321.37C44.1562 323.044 45.5242 324.322 47.2882 324.988L48.0802 323.836ZM46.5862 331.144C44.1562 331.144 42.6802 330.442 42.6802 329.272C42.6802 328.084 44.1562 327.382 46.5862 327.382C49.0162 327.382 50.4922 328.084 50.4922 329.272C50.4922 330.442 49.0162 331.144 46.5862 331.144ZM46.5862 326.23C43.2742 326.23 41.2042 327.328 41.2042 329.272C41.2042 331.198 43.2742 332.314 46.5862 332.314C49.8982 332.314 51.9682 331.198 51.9682 329.272C51.9682 327.328 49.8982 326.23 46.5862 326.23ZM60.6068 319.066H64.1888V317.842H55.4588V319.066H59.1488V321.118C59.1488 323.854 57.2048 326.914 54.9008 328.066L55.7648 329.236C57.5828 328.3 59.1488 326.248 59.8868 323.89C60.6248 326.05 62.1368 327.94 63.9368 328.84L64.7828 327.652C62.4428 326.554 60.6068 323.692 60.6068 321.118V319.066ZM70.2548 322.702H67.5908V316.204H66.1148V332.332H67.5908V323.944H70.2548V322.702ZM78.3894 323.404H73.9254V318.598H78.3894V323.404ZM83.5374 320.002V322H79.8294V320.002H83.5374ZM79.8294 323.188H83.5374V325.744H85.0314V316.204H83.5374V318.814H79.8294V317.41H72.4674V324.574H79.8294V323.188ZM79.6854 331.162C77.2734 331.162 75.7974 330.46 75.7974 329.272C75.7974 328.084 77.2734 327.382 79.6854 327.382C82.1334 327.382 83.6094 328.084 83.6094 329.272C83.6094 330.46 82.1334 331.162 79.6854 331.162ZM79.6854 326.23C76.3734 326.23 74.3214 327.328 74.3214 329.272C74.3214 331.198 76.3734 332.314 79.6854 332.314C83.0154 332.314 85.0854 331.198 85.0854 329.272C85.0854 327.328 83.0154 326.23 79.6854 326.23ZM87.501 333.206C88.6904 332.825 89.3057 331.855 89.3467 330.297V328.363C89.3467 327.01 89.877 326.087 90.9375 325.595C89.877 325.114 89.3467 324.191 89.3467 322.826V321.042C89.3467 319.39 88.7344 318.367 87.5098 317.975L87.8438 316.964C88.8809 317.257 89.6602 317.734 90.1816 318.396C90.7031 319.053 90.9668 319.923 90.9727 321.007V322.853C90.9727 324.253 91.5938 324.953 92.8359 324.953V326.228C91.5938 326.228 90.9727 326.939 90.9727 328.363V330.139C90.9727 331.24 90.7061 332.122 90.1729 332.784C89.6455 333.446 88.8691 333.924 87.8438 334.217L87.501 333.206ZM100.746 333.373H99.4365V318.203H100.746V333.373ZM112.312 334.217C111.275 333.924 110.493 333.44 109.966 332.767C109.444 332.099 109.184 331.214 109.184 330.112V328.363C109.184 326.939 108.562 326.228 107.32 326.228V324.953C108.562 324.953 109.184 324.244 109.184 322.826V320.998C109.195 319.926 109.456 319.062 109.966 318.405C110.481 317.743 111.264 317.263 112.312 316.964L112.646 317.975C111.422 318.367 110.81 319.39 110.81 321.042V322.817C110.81 324.147 110.32 325.073 109.342 325.595C110.32 326.122 110.81 327.057 110.81 328.398V330.209C110.827 331.82 111.439 332.819 112.646 333.206L112.312 334.217ZM118.245 324.628L121.585 318.203H123.501L119.089 326.228V331H117.401V326.228L112.989 318.203H114.923L118.245 324.628ZM129.214 324.628L132.554 318.203H134.47L130.058 326.228V331H128.37V326.228L123.958 318.203H125.892L129.214 324.628ZM140.183 324.628L143.522 318.203H145.438L141.026 326.228V331H139.339V326.228L134.927 318.203H136.86L140.183 324.628ZM151.151 324.628L154.491 318.203H156.407L151.995 326.228V331H150.308V326.228L145.896 318.203H147.829L151.151 324.628ZM160.731 326.228H156.442V324.9H160.731V326.228ZM164.757 318.203L168.94 328.645L173.124 318.203H175.312V331H173.625V326.017L173.783 320.638L169.582 331H168.29L164.098 320.664L164.265 326.017V331H162.577V318.203H164.757ZM180.472 318.203L184.655 328.645L188.839 318.203H191.027V331H189.34V326.017L189.498 320.638L185.297 331H184.005L179.812 320.664L179.979 326.017V331H178.292V318.203H180.472ZM197.136 326.228H192.847V324.9H197.136V326.228ZM198.981 331V318.203H202.594C203.707 318.203 204.691 318.449 205.547 318.941C206.402 319.434 207.062 320.134 207.524 321.042C207.993 321.95 208.23 322.993 208.236 324.171V324.988C208.236 326.195 208.002 327.253 207.533 328.161C207.07 329.069 206.405 329.767 205.538 330.253C204.677 330.739 203.672 330.988 202.523 331H198.981ZM200.669 319.592V329.62H202.444C203.745 329.62 204.756 329.216 205.477 328.407C206.203 327.599 206.566 326.447 206.566 324.953V324.206C206.566 322.753 206.224 321.625 205.538 320.822C204.858 320.014 203.892 319.604 202.638 319.592H200.669ZM210.794 331V318.203H214.406C215.52 318.203 216.504 318.449 217.359 318.941C218.215 319.434 218.874 320.134 219.337 321.042C219.806 321.95 220.043 322.993 220.049 324.171V324.988C220.049 326.195 219.814 327.253 219.346 328.161C218.883 329.069 218.218 329.767 217.351 330.253C216.489 330.739 215.484 330.988 214.336 331H210.794ZM212.481 319.592V329.62H214.257C215.558 329.62 216.568 329.216 217.289 328.407C218.016 327.599 218.379 326.447 218.379 324.953V324.206C218.379 322.753 218.036 321.625 217.351 320.822C216.671 320.014 215.704 319.604 214.45 319.592H212.481ZM221.288 333.206C222.478 332.825 223.093 331.855 223.134 330.297V328.363C223.134 327.01 223.664 326.087 224.725 325.595C223.664 325.114 223.134 324.191 223.134 322.826V321.042C223.134 319.39 222.521 318.367 221.297 317.975L221.631 316.964C222.668 317.257 223.447 317.734 223.969 318.396C224.49 319.053 224.754 319.923 224.76 321.007V322.853C224.76 324.253 225.381 324.953 226.623 324.953V326.228C225.381 326.228 224.76 326.939 224.76 328.363V330.139C224.76 331.24 224.493 332.122 223.96 332.784C223.433 333.446 222.656 333.924 221.631 334.217L221.288 333.206Z" fill="black"/>
<rect x="0.5" y="1934.5" width="699" height="304" fill="#C4C4C4" stroke="black"/>
<path d="M595.879 2225.15H588.42V2233H586.077V2215.23H597.087V2217.16H588.42V2223.23H595.879V2225.15ZM598.674 2226.27C598.674 2224.98 598.927 2223.82 599.431 2222.78C599.944 2221.75 600.652 2220.95 601.555 2220.39C602.467 2219.83 603.504 2219.55 604.668 2219.55C606.466 2219.55 607.919 2220.17 609.026 2221.42C610.141 2222.66 610.698 2224.32 610.698 2226.38V2226.54C610.698 2227.83 610.45 2228.98 609.954 2230.01C609.465 2231.03 608.761 2231.82 607.842 2232.39C606.93 2232.96 605.881 2233.24 604.692 2233.24C602.902 2233.24 601.449 2232.62 600.334 2231.38C599.228 2230.13 598.674 2228.48 598.674 2226.43V2226.27ZM600.945 2226.54C600.945 2228.01 601.283 2229.18 601.958 2230.07C602.642 2230.96 603.553 2231.4 604.692 2231.4C605.84 2231.4 606.751 2230.95 607.427 2230.06C608.102 2229.15 608.44 2227.89 608.44 2226.27C608.44 2224.83 608.094 2223.65 607.402 2222.76C606.719 2221.85 605.807 2221.4 604.668 2221.4C603.553 2221.4 602.654 2221.85 601.97 2222.73C601.287 2223.62 600.945 2224.89 600.945 2226.54ZM612.932 2226.27C612.932 2224.98 613.184 2223.82 613.689 2222.78C614.202 2221.75 614.91 2220.95 615.813 2220.39C616.724 2219.83 617.762 2219.55 618.926 2219.55C620.724 2219.55 622.177 2220.17 623.284 2221.42C624.399 2222.66 624.956 2224.32 624.956 2226.38V2226.54C624.956 2227.83 624.708 2228.98 624.211 2230.01C623.723 2231.03 623.019 2231.82 622.1 2232.39C621.188 2232.96 620.138 2233.24 618.95 2233.24C617.16 2233.24 615.707 2232.62 614.592 2231.38C613.486 2230.13 612.932 2228.48 612.932 2226.43V2226.27ZM615.203 2226.54C615.203 2228.01 615.54 2229.18 616.216 2230.07C616.899 2230.96 617.811 2231.4 618.95 2231.4C620.098 2231.4 621.009 2230.95 621.685 2230.06C622.36 2229.15 622.698 2227.89 622.698 2226.27C622.698 2224.83 622.352 2223.65 621.66 2222.76C620.977 2221.85 620.065 2221.4 618.926 2221.4C617.811 2221.4 616.912 2221.85 616.228 2222.73C615.544 2223.62 615.203 2224.89 615.203 2226.54ZM630.852 2216.59V2219.79H633.318V2221.54H630.852V2229.73C630.852 2230.26 630.962 2230.66 631.182 2230.92C631.401 2231.19 631.776 2231.32 632.305 2231.32C632.565 2231.32 632.923 2231.27 633.379 2231.17V2233C632.785 2233.16 632.207 2233.24 631.646 2233.24C630.636 2233.24 629.875 2232.94 629.363 2232.33C628.85 2231.72 628.594 2230.85 628.594 2229.73V2221.54H626.189V2219.79H628.594V2216.59H630.852ZM641.448 2233.24C639.657 2233.24 638.201 2232.66 637.078 2231.49C635.955 2230.31 635.393 2228.73 635.393 2226.76V2226.35C635.393 2225.04 635.641 2223.87 636.138 2222.84C636.642 2221.81 637.342 2221 638.237 2220.43C639.141 2219.84 640.117 2219.55 641.167 2219.55C642.884 2219.55 644.219 2220.11 645.171 2221.24C646.123 2222.38 646.599 2224 646.599 2226.1V2227.04H637.651C637.684 2228.35 638.062 2229.4 638.787 2230.2C639.519 2231 640.447 2231.4 641.57 2231.4C642.367 2231.4 643.043 2231.24 643.596 2230.91C644.15 2230.59 644.634 2230.16 645.049 2229.62L646.428 2230.69C645.321 2232.39 643.661 2233.24 641.448 2233.24ZM641.167 2221.4C640.256 2221.4 639.491 2221.74 638.872 2222.4C638.254 2223.06 637.871 2223.99 637.725 2225.19H644.341V2225.02C644.276 2223.87 643.966 2222.98 643.413 2222.36C642.86 2221.72 642.111 2221.4 641.167 2221.4ZM655.608 2221.82C655.266 2221.76 654.896 2221.73 654.497 2221.73C653.016 2221.73 652.011 2222.36 651.482 2223.62V2233H649.224V2219.79H651.421L651.458 2221.32C652.198 2220.14 653.248 2219.55 654.607 2219.55C655.046 2219.55 655.38 2219.6 655.608 2219.72V2221.82Z" fill="black"/>
<rect x="0.5" y="0.5" width="699" height="59" fill="#C4C4C4" stroke="black"/>
<path d="M71.7148 42.4678C70.2744 42.0609 69.188 41.3895 68.4556 40.4536C67.7313 39.5259 67.3691 38.297 67.3691 36.7671V34.3379C67.3691 32.3604 66.5065 31.3716 64.7812 31.3716V29.6016C66.5065 29.6016 67.3691 28.6169 67.3691 26.6475V24.1084C67.3854 22.6191 67.7476 21.4188 68.4556 20.5073C69.1717 19.5877 70.2581 18.9204 71.7148 18.5054L72.1787 19.9092C70.4779 20.4544 69.6274 21.8745 69.6274 24.1694V26.6353C69.6274 28.4826 68.9479 29.7684 67.5889 30.4927C68.9479 31.2251 69.6274 32.5231 69.6274 34.3867V36.9014C69.6519 39.1393 70.5023 40.5269 72.1787 41.064L71.7148 42.4678ZM77.7217 21.925H80.5217V32.45C79.5717 32.5 78.6467 32.525 77.7217 32.55V21.925ZM82.3967 21.925H84.2467V20.275H73.9967V21.925H75.8467V32.6C74.9967 32.625 74.2467 32.625 73.5717 32.625L73.7717 34.325C76.6967 34.325 81.3967 34.225 84.8717 33.575L84.7467 32.075C84.0217 32.175 83.1967 32.25 82.3967 32.325V21.925ZM86.6467 25.975H83.5717V27.775H86.6467V38.675H88.5717V17.975H86.6467V25.975ZM90.9717 17.45V39.85H92.9467V17.45H90.9717ZM113.095 17.425V39.9H115.145V17.425H113.095ZM103.32 19.15C99.9947 19.15 97.6197 22.2 97.6197 26.975C97.6197 31.75 99.9947 34.8 103.32 34.8C106.645 34.8 109.02 31.75 109.02 26.975C109.02 22.2 106.645 19.15 103.32 19.15ZM103.32 21C105.495 21 107.045 23.35 107.045 26.975C107.045 30.625 105.495 32.975 103.32 32.975C101.12 32.975 99.5697 30.625 99.5697 26.975C99.5697 23.35 101.12 21 103.32 21ZM127.793 21.425H133.068V19.725H120.543V21.425H125.743V24.275C125.743 28.15 123.018 32.375 119.793 33.9L120.993 35.55C123.543 34.25 125.743 31.425 126.768 28.15C127.843 31.225 130.043 33.8 132.643 35L133.793 33.35C130.493 31.95 127.793 28.075 127.793 24.275V21.425ZM136.093 17.45V39.85H138.143V17.45H136.093ZM155.567 21.725H159.567V20.05H149.342V21.725H153.592V23.75C153.592 27.875 151.842 31.95 148.717 33.825L149.967 35.35C152.192 33.95 153.817 31.325 154.592 28.25C155.367 31.1 156.917 33.5 159.092 34.8L160.342 33.3C157.242 31.55 155.567 27.65 155.567 23.75V21.725ZM161.567 25.475H157.867V27.15H161.567V38.675H163.517V17.925H161.567V25.475ZM166.067 17.4V39.825H168.042V17.4H166.067ZM174.24 34.425H187.715V39.875H189.765V32.775H174.24V34.425ZM176.59 19.975H187.64V24.325H176.59V19.975ZM183.165 28.8V25.95H189.665V18.35H174.59V25.95H181.115V28.8H171.965V30.45H192.265V28.8H183.165ZM193.895 41.064C195.547 40.535 196.402 39.1882 196.458 37.0234V34.3379C196.458 32.458 197.195 31.1763 198.668 30.4927C197.195 29.8254 196.458 28.5436 196.458 26.6475V24.1694C196.458 21.8745 195.608 20.4544 193.907 19.9092L194.371 18.5054C195.812 18.9123 196.894 19.5755 197.618 20.4951C198.342 21.4066 198.709 22.6151 198.717 24.1206V26.6841C198.717 28.6291 199.579 29.6016 201.305 29.6016V31.3716C199.579 31.3716 198.717 32.3604 198.717 34.3379V36.8037C198.717 38.3337 198.347 39.5584 197.606 40.478C196.874 41.3976 195.795 42.0609 194.371 42.4678L193.895 41.064ZM214.745 31.3716H208.788V29.5283H214.745V31.3716ZM229.161 42.4678C227.721 42.0609 226.634 41.3895 225.902 40.4536C225.178 39.5259 224.815 38.297 224.815 36.7671V34.3379C224.815 32.3604 223.953 31.3716 222.228 31.3716V29.6016C223.953 29.6016 224.815 28.6169 224.815 26.6475V24.1084C224.832 22.6191 225.194 21.4188 225.902 20.5073C226.618 19.5877 227.704 18.9204 229.161 18.5054L229.625 19.9092C227.924 20.4544 227.074 21.8745 227.074 24.1694V26.6353C227.074 28.4826 226.394 29.7684 225.035 30.4927C226.394 31.2251 227.074 32.5231 227.074 34.3867V36.9014C227.098 39.1393 227.949 40.5269 229.625 41.064L229.161 42.4678ZM244.268 28.4C240.968 27.275 238.818 24.5 238.818 21.525V20.65H243.768V19H231.743V20.65H236.768V21.55C236.768 24.75 234.518 27.65 231.143 28.825L232.218 30.45C234.843 29.475 236.868 27.5 237.818 25C238.793 27.3 240.718 29.125 243.218 30L244.268 28.4ZM234.043 33.8H246.593V39.875H248.643V32.15H234.043V33.8ZM251.968 23.325H248.643V17.45H246.593V30.95H248.643V25.025H251.968V23.325ZM270.641 30.7H272.716V17.45H270.641V22.2H265.766V23.875H270.641V30.7ZM267.391 28.05C264.116 26.9 261.941 24.125 261.941 20.925V18.7H259.891V21C259.891 24.425 257.666 27.425 254.216 28.65L255.291 30.325C257.991 29.3 260.016 27.275 260.966 24.625C261.941 26.95 263.841 28.725 266.291 29.65L267.391 28.05ZM265.316 38.2C261.941 38.2 259.891 37.225 259.891 35.6C259.891 33.95 261.941 32.975 265.316 32.975C268.691 32.975 270.741 33.95 270.741 35.6C270.741 37.225 268.691 38.2 265.316 38.2ZM265.316 31.375C260.716 31.375 257.841 32.9 257.841 35.6C257.841 38.275 260.716 39.825 265.316 39.825C269.916 39.825 272.791 38.275 272.791 35.6C272.791 32.9 269.916 31.375 265.316 31.375ZM284.789 21.425H289.764V19.725H277.639V21.425H282.764V24.275C282.764 28.075 280.064 32.325 276.864 33.925L278.064 35.55C280.589 34.25 282.764 31.4 283.789 28.125C284.814 31.125 286.914 33.75 289.414 35L290.589 33.35C287.339 31.825 284.789 27.85 284.789 24.275V21.425ZM298.189 26.475H294.489V17.45H292.439V39.85H294.489V28.2H298.189V26.475ZM309.487 27.45H303.287V20.775H309.487V27.45ZM316.637 22.725V25.5H311.487V22.725H316.637ZM311.487 27.15H316.637V30.7H318.712V17.45H316.637V21.075H311.487V19.125H301.262V29.075H311.487V27.15ZM311.287 38.225C307.937 38.225 305.887 37.25 305.887 35.6C305.887 33.95 307.937 32.975 311.287 32.975C314.687 32.975 316.737 33.95 316.737 35.6C316.737 37.25 314.687 38.225 311.287 38.225ZM311.287 31.375C306.687 31.375 303.837 32.9 303.837 35.6C303.837 38.275 306.687 39.825 311.287 39.825C315.912 39.825 318.787 38.275 318.787 35.6C318.787 32.9 315.912 31.375 311.287 31.375ZM322.142 41.064C323.794 40.535 324.649 39.1882 324.706 37.0234V34.3379C324.706 32.458 325.442 31.1763 326.915 30.4927C325.442 29.8254 324.706 28.5436 324.706 26.6475V24.1694C324.706 21.8745 323.855 20.4544 322.154 19.9092L322.618 18.5054C324.059 18.9123 325.141 19.5755 325.865 20.4951C326.59 21.4066 326.956 22.6151 326.964 24.1206V26.6841C326.964 28.6291 327.826 29.6016 329.552 29.6016V31.3716C327.826 31.3716 326.964 32.3604 326.964 34.3379V36.8037C326.964 38.3337 326.594 39.5584 325.853 40.478C325.121 41.3976 324.042 42.0609 322.618 42.4678L322.142 41.064Z" fill="black"/>
<rect x="10.5" y="10.5" width="39" height="39" fill="#C4C4C4" stroke="black"/>
<path d="M18.7139 35H17.4492V24.5H18.7139V35ZM20.4092 31.2334C20.4092 30.5088 20.5505 29.8571 20.833 29.2783C21.1201 28.6995 21.5166 28.2529 22.0225 27.9385C22.5329 27.624 23.1139 27.4668 23.7656 27.4668C24.7728 27.4668 25.5863 27.8154 26.2061 28.5127C26.8304 29.21 27.1426 30.1374 27.1426 31.2949V31.3838C27.1426 32.1038 27.0036 32.751 26.7256 33.3252C26.4521 33.8949 26.0579 34.3392 25.543 34.6582C25.0326 34.9772 24.4447 35.1367 23.7793 35.1367C22.7767 35.1367 21.9632 34.7881 21.3389 34.0908C20.7191 33.3936 20.4092 32.4707 20.4092 31.3223V31.2334ZM21.6807 31.3838C21.6807 32.2041 21.8698 32.8626 22.248 33.3594C22.6309 33.8561 23.1413 34.1045 23.7793 34.1045C24.4219 34.1045 24.9323 33.8538 25.3105 33.3525C25.6888 32.8467 25.8779 32.1403 25.8779 31.2334C25.8779 30.4222 25.6842 29.766 25.2969 29.2646C24.9141 28.7588 24.4036 28.5059 23.7656 28.5059C23.1413 28.5059 22.6377 28.7542 22.2549 29.251C21.8721 29.7477 21.6807 30.4587 21.6807 31.3838ZM28.4277 31.2402C28.4277 30.0872 28.6943 29.1712 29.2275 28.4922C29.7607 27.8086 30.4671 27.4668 31.3467 27.4668C32.249 27.4668 32.9531 27.7858 33.459 28.4238L33.5205 27.6035H34.6758V34.8223C34.6758 35.7793 34.391 36.5335 33.8213 37.085C33.2562 37.6364 32.4951 37.9121 31.5381 37.9121C31.0049 37.9121 30.4831 37.7982 29.9727 37.5703C29.4622 37.3424 29.0726 37.0303 28.8037 36.6338L29.46 35.875C30.0023 36.5449 30.6654 36.8799 31.4492 36.8799C32.0645 36.8799 32.543 36.7067 32.8848 36.3604C33.2311 36.014 33.4043 35.5264 33.4043 34.8975V34.2617C32.8984 34.8451 32.208 35.1367 31.333 35.1367C30.4671 35.1367 29.7653 34.7881 29.2275 34.0908C28.6943 33.3936 28.4277 32.4434 28.4277 31.2402ZM29.6992 31.3838C29.6992 32.2178 29.8701 32.874 30.2119 33.3525C30.5537 33.8265 31.0322 34.0635 31.6475 34.0635C32.445 34.0635 33.0306 33.7012 33.4043 32.9766V29.5996C33.0169 28.8932 32.4359 28.54 31.6611 28.54C31.0459 28.54 30.5651 28.7793 30.2188 29.2578C29.8724 29.7363 29.6992 30.445 29.6992 31.3838ZM36.2549 31.2334C36.2549 30.5088 36.3962 29.8571 36.6787 29.2783C36.9658 28.6995 37.3623 28.2529 37.8682 27.9385C38.3786 27.624 38.9596 27.4668 39.6113 27.4668C40.6185 27.4668 41.432 27.8154 42.0518 28.5127C42.6761 29.21 42.9883 30.1374 42.9883 31.2949V31.3838C42.9883 32.1038 42.8493 32.751 42.5713 33.3252C42.2979 33.8949 41.9036 34.3392 41.3887 34.6582C40.8783 34.9772 40.2904 35.1367 39.625 35.1367C38.6224 35.1367 37.8089 34.7881 37.1846 34.0908C36.5648 33.3936 36.2549 32.4707 36.2549 31.3223V31.2334ZM37.5264 31.3838C37.5264 32.2041 37.7155 32.8626 38.0938 33.3594C38.4766 33.8561 38.987 34.1045 39.625 34.1045C40.2676 34.1045 40.778 33.8538 41.1562 33.3525C41.5345 32.8467 41.7236 32.1403 41.7236 31.2334C41.7236 30.4222 41.5299 29.766 41.1426 29.2646C40.7598 28.7588 40.2493 28.5059 39.6113 28.5059C38.987 28.5059 38.4834 28.7542 38.1006 29.251C37.7178 29.7477 37.5264 30.4587 37.5264 31.3838Z" fill="black"/>
<rect x="650.5" y="10.5" width="39" height="39" fill="#C4C4C4" stroke="black"/>
<path d="M659.61 35H658.346V27.6035H659.61V35ZM658.243 25.6416C658.243 25.4365 658.305 25.2633 658.428 25.1221C658.555 24.9808 658.742 24.9102 658.988 24.9102C659.234 24.9102 659.421 24.9808 659.549 25.1221C659.676 25.2633 659.74 25.4365 659.74 25.6416C659.74 25.8467 659.676 26.0176 659.549 26.1543C659.421 26.291 659.234 26.3594 658.988 26.3594C658.742 26.3594 658.555 26.291 658.428 26.1543C658.305 26.0176 658.243 25.8467 658.243 25.6416ZM664.607 34.1045C665.059 34.1045 665.453 33.9678 665.79 33.6943C666.127 33.4209 666.314 33.0791 666.351 32.6689H667.547C667.524 33.0928 667.378 33.4961 667.109 33.8789C666.84 34.2617 666.48 34.5671 666.029 34.7949C665.583 35.0228 665.109 35.1367 664.607 35.1367C663.6 35.1367 662.798 34.8018 662.201 34.1318C661.609 33.4574 661.312 32.5368 661.312 31.3701V31.1582C661.312 30.4382 661.445 29.7979 661.709 29.2373C661.973 28.6768 662.352 28.2415 662.844 27.9316C663.34 27.6217 663.926 27.4668 664.601 27.4668C665.43 27.4668 666.118 27.7152 666.665 28.2119C667.216 28.7087 667.51 29.3535 667.547 30.1465H666.351C666.314 29.668 666.132 29.276 665.804 28.9707C665.48 28.6608 665.079 28.5059 664.601 28.5059C663.958 28.5059 663.459 28.7383 663.104 29.2031C662.753 29.6634 662.577 30.3311 662.577 31.2061V31.4453C662.577 32.2975 662.753 32.9538 663.104 33.4141C663.454 33.8743 663.956 34.1045 664.607 34.1045ZM668.634 31.2334C668.634 30.5088 668.775 29.8571 669.058 29.2783C669.345 28.6995 669.741 28.2529 670.247 27.9385C670.757 27.624 671.339 27.4668 671.99 27.4668C672.997 27.4668 673.811 27.8154 674.431 28.5127C675.055 29.21 675.367 30.1374 675.367 31.2949V31.3838C675.367 32.1038 675.228 32.751 674.95 33.3252C674.677 33.8949 674.283 34.3392 673.768 34.6582C673.257 34.9772 672.669 35.1367 672.004 35.1367C671.001 35.1367 670.188 34.7881 669.563 34.0908C668.944 33.3936 668.634 32.4707 668.634 31.3223V31.2334ZM669.905 31.3838C669.905 32.2041 670.094 32.8626 670.473 33.3594C670.855 33.8561 671.366 34.1045 672.004 34.1045C672.646 34.1045 673.157 33.8538 673.535 33.3525C673.913 32.8467 674.103 32.1403 674.103 31.2334C674.103 30.4222 673.909 29.766 673.521 29.2646C673.139 28.7588 672.628 28.5059 671.99 28.5059C671.366 28.5059 670.862 28.7542 670.479 29.251C670.097 29.7477 669.905 30.4587 669.905 31.3838ZM678.149 27.6035L678.19 28.5332C678.756 27.8223 679.494 27.4668 680.405 27.4668C681.968 27.4668 682.757 28.3486 682.771 30.1123V35H681.506V30.1055C681.501 29.5723 681.378 29.1781 681.137 28.9229C680.9 28.6676 680.528 28.54 680.022 28.54C679.612 28.54 679.252 28.6494 678.942 28.8682C678.632 29.0869 678.391 29.374 678.218 29.7295V35H676.953V27.6035H678.149Z" fill="black"/>
<rect x="0.5" y="365.5" width="699" height="1568" fill="#C4C4C4" stroke="black"/>
<path d="M292.579 1144.05L292.879 1145.77L306.354 1145.15C306.279 1146.2 306.129 1147.35 305.854 1148.67L307.879 1148.82C308.504 1145.75 308.504 1143.5 308.504 1141.42V1139.5H293.129V1141.17H306.479V1141.42C306.479 1142.12 306.479 1142.82 306.454 1143.6L292.579 1144.05ZM295.354 1153.9H293.304V1160.5H308.979V1158.82H295.354V1153.9ZM301.029 1150.32V1147.07H298.979V1150.32H290.754V1151.97H310.979V1150.32H301.029ZM332.652 1138.45H330.677V1155.25H332.652V1138.45ZM326.352 1154.67H328.302V1138.9H326.352V1144.77H323.377V1146.45H326.352V1154.67ZM324.227 1149.27C321.902 1149.75 319.877 1149.87 316.727 1149.87V1146.62H322.327V1145.02H316.727V1141.95H323.227V1140.3H314.752V1151.52H316.177C319.752 1151.52 321.852 1151.42 324.427 1150.92L324.227 1149.27ZM320.127 1158.67V1153.4H318.077V1160.35H333.302V1158.67H320.127ZM338.75 1152.55C342.325 1151.82 345.5 1149.92 346.9 1147.05C348.275 1149.92 351.45 1151.82 355 1152.55L355.825 1150.87C351.525 1150.12 347.925 1147.35 347.925 1143.67H355.125V1142.02H347.925V1138.97H345.85V1142.02H338.625V1143.67H345.85C345.85 1147.35 342.25 1150.12 337.95 1150.87L338.75 1152.55ZM336.725 1156.3V1157.97H357.075V1156.3H336.725ZM368.225 1145.07C368.225 1143 369.875 1141.5 372.05 1141.5C374.25 1141.5 375.85 1143 375.85 1145.07C375.85 1147.17 374.25 1148.67 372.05 1148.67C369.875 1148.67 368.225 1147.17 368.225 1145.07ZM382.325 1143.32V1146.82H377.5C377.7 1146.27 377.8 1145.7 377.8 1145.07C377.8 1144.42 377.7 1143.85 377.525 1143.32H382.325ZM382.325 1148.5V1151.7H384.4V1138.42H382.325V1141.65H376.575C375.55 1140.5 373.95 1139.77 372.05 1139.77C368.725 1139.77 366.275 1141.95 366.275 1145.07C366.275 1148.22 368.725 1150.42 372.05 1150.42C373.95 1150.42 375.55 1149.7 376.575 1148.5H382.325ZM376.975 1159.2C373.6 1159.2 371.55 1158.2 371.55 1156.52C371.55 1154.82 373.6 1153.82 376.975 1153.82C380.4 1153.82 382.45 1154.82 382.45 1156.52C382.45 1158.2 380.4 1159.2 376.975 1159.2ZM376.975 1152.22C372.375 1152.22 369.525 1153.8 369.525 1156.52C369.525 1159.25 372.375 1160.83 376.975 1160.83C381.6 1160.83 384.475 1159.25 384.475 1156.52C384.475 1153.8 381.6 1152.22 376.975 1152.22ZM392.398 1154.55H405.323V1160.88H407.398V1152.87H392.398V1154.55ZM400.548 1146.75C400.698 1146.22 400.798 1145.67 400.798 1145.05C400.798 1144.45 400.698 1143.9 400.548 1143.38H405.323V1146.75H400.548ZM395.023 1148.72C392.848 1148.72 391.223 1147.2 391.223 1145.05C391.223 1142.95 392.848 1141.42 395.023 1141.42C397.223 1141.42 398.848 1142.95 398.848 1145.05C398.848 1147.2 397.223 1148.72 395.023 1148.72ZM405.323 1138.45V1141.72H399.673C398.623 1140.45 396.973 1139.67 395.023 1139.67C391.723 1139.67 389.273 1141.9 389.273 1145.05C389.273 1148.22 391.723 1150.47 395.023 1150.47C396.973 1150.47 398.598 1149.7 399.648 1148.42H405.323V1151.65H407.398V1138.42L405.323 1138.45Z" fill="black"/>
</svg>
