<svg width="360" height="640" viewBox="0 0 360 640" fill="none" xmlns="http://www.w3.org/2000/svg">
<rect width="360" height="640" fill="white"/>
<rect x="0.5" y="48.5" width="359" height="63" fill="white"/>
<path d="M9.43359 70.1094C8.02734 69.7148 7.32422 68.8066 7.32422 67.3848V66.2188C7.32422 65.3945 6.97656 64.9824 6.28125 64.9824V63.7695C6.96094 63.7695 7.30859 63.3809 7.32422 62.6035V61.3613C7.32422 60.6387 7.5 60.0547 7.85156 59.6094C8.20312 59.1641 8.73047 58.8418 9.43359 58.6426L9.76172 59.5859C9.46484 59.6953 9.24023 59.8867 9.08789 60.1602C8.93555 60.4297 8.85547 60.8047 8.84766 61.2852V62.5156C8.84766 63.3984 8.49805 64.0176 7.79883 64.373C8.49805 64.7324 8.84766 65.3555 8.84766 66.2422V67.4844C8.86719 68.3984 9.17188 68.957 9.76172 69.1602L9.43359 70.1094ZM13.9809 60.368H15.5889V59.084H10.6689V60.368H12.4449V60.908C12.4449 62.804 11.8689 64.784 10.2609 65.804L11.1969 66.968C12.1929 66.344 12.8409 65.264 13.2249 64.004C13.5849 65.168 14.2209 66.116 15.1929 66.704L16.1169 65.552C14.5209 64.616 13.9809 62.756 13.9809 60.908V60.368ZM16.2249 61.748H14.8209V63.032H16.2249V68.528H17.7009V58.16H16.2249V61.748ZM18.4569 57.968V69.02H19.9569V57.968H18.4569ZM22.62 66.668H28.716V69.044H30.3V65.408H22.62V66.668ZM24.3 59.648H28.68V61.076H24.3V59.648ZM27.288 63.356V62.324H30.24V58.412H22.74V62.324H25.704V63.356H21.516V64.616H31.5V63.356H27.288ZM37.1873 61.28C37.1873 60.416 37.7753 59.912 38.5913 59.912C39.4073 59.912 40.0073 60.416 40.0073 61.28C40.0073 62.132 39.4073 62.648 38.5913 62.648C37.7753 62.648 37.1873 62.132 37.1873 61.28ZM43.1993 60.68V61.88H41.4353C41.4833 61.676 41.5073 61.484 41.5073 61.28C41.5073 61.064 41.4833 60.872 41.4473 60.68H43.1993ZM43.1993 63.14V64.46H44.7833V57.98H43.1993V59.42H40.7633C40.2353 58.892 39.4793 58.568 38.5913 58.568C36.9593 58.568 35.6873 59.708 35.6873 61.28C35.6873 62.84 36.9593 63.98 38.5913 63.98C39.4553 63.98 40.2113 63.668 40.7393 63.14H43.1993ZM41.0393 67.82C39.5873 67.82 38.8193 67.508 38.8193 66.86C38.8193 66.212 39.5873 65.9 41.0393 65.9C42.4913 65.9 43.2713 66.212 43.2713 66.86C43.2713 67.508 42.4913 67.82 41.0393 67.82ZM41.0393 64.676C38.7113 64.676 37.2593 65.48 37.2593 66.86C37.2593 68.228 38.7113 69.032 41.0393 69.032C43.3793 69.032 44.8313 68.228 44.8313 66.86C44.8313 65.48 43.3793 64.676 41.0393 64.676ZM48.2984 66.272H54.2384V69.044H55.8224V65.024H48.2984V66.272ZM52.4864 61.868C52.5224 61.676 52.5464 61.484 52.5464 61.292C52.5464 61.088 52.5224 60.908 52.4864 60.728H54.2384V61.868H52.4864ZM49.6304 62.684C48.8264 62.684 48.2264 62.168 48.2264 61.292C48.2264 60.428 48.8264 59.912 49.6304 59.912C50.4464 59.912 51.0464 60.428 51.0464 61.292C51.0464 62.168 50.4464 62.684 49.6304 62.684ZM54.2384 57.98V59.468H51.8504C51.3224 58.904 50.5304 58.556 49.6304 58.556C47.9984 58.556 46.7264 59.708 46.7264 61.292C46.7264 62.888 47.9984 64.04 49.6304 64.04C50.5184 64.04 51.3104 63.692 51.8384 63.128H54.2384V64.52H55.8224V57.98H54.2384ZM62.6135 59.552C64.1015 59.552 64.9895 59.912 64.9895 60.584C64.9895 61.268 64.1015 61.604 62.6135 61.604C61.1375 61.604 60.2495 61.268 60.2495 60.584C60.2495 59.912 61.1375 59.552 62.6135 59.552ZM62.6135 62.864C65.0255 62.864 66.6215 61.988 66.6215 60.584C66.6215 59.18 65.0255 58.304 62.6135 58.304C60.2135 58.304 58.6175 59.18 58.6175 60.584C58.6175 61.988 60.2135 62.864 62.6135 62.864ZM60.4175 65.624H58.8335V68.84H66.4895V67.58H60.4175V65.624ZM57.6215 63.62V64.88H67.6055V63.62H57.6215ZM72.0808 58.7V59.96H75.5728C75.3328 61.472 73.9768 62.72 71.5648 63.368L72.2008 64.64C75.4648 63.728 77.3128 61.676 77.3128 58.7H72.0808ZM76.7608 67.808C75.4168 67.808 74.6128 67.46 74.6128 66.776C74.6128 66.092 75.4168 65.744 76.7608 65.744C78.1048 65.744 78.9088 66.092 78.9088 66.776C78.9088 67.46 78.1048 67.808 76.7608 67.808ZM76.7608 64.508C74.5288 64.508 73.0528 65.384 73.0528 66.776C73.0528 68.168 74.5288 69.044 76.7608 69.044C78.9928 69.044 80.4688 68.168 80.4688 66.776C80.4688 65.384 78.9928 64.508 76.7608 64.508ZM80.3488 60.56V57.968H78.7648V64.364H80.3488V61.868H81.8128V60.56H80.3488ZM83.6959 64.508C85.6159 64.16 87.0079 63.2 87.6919 61.88C88.3879 63.176 89.7919 64.1 91.7359 64.448L92.3359 63.2C89.9599 62.852 88.6759 61.52 88.5319 60.08H91.8439V58.82H83.5159V60.08H86.8279C86.6839 61.52 85.3999 62.9 83.0839 63.26L83.6959 64.508ZM88.4839 66.464V64.028H86.8999V66.464H82.6879V67.748H92.6959V66.464H88.4839ZM97.7589 64.472H99.6669V66.548H97.7589V64.472ZM97.5789 60.116H99.8349V63.224H97.5789V60.116ZM101.239 66.548V64.472H102.883V63.224H101.407V60.116H102.907V58.856H94.5069V60.116H96.0069V63.224H94.5669V64.472H96.1869V66.548H93.7149V67.82H103.735V66.548H101.239ZM109.05 58.832H107.466V60.44C107.466 62.588 106.554 64.724 104.622 65.552L105.57 66.86C106.89 66.236 107.79 65.048 108.282 63.572C108.774 64.928 109.626 66.02 110.898 66.596L111.798 65.312C109.926 64.508 109.05 62.492 109.05 60.44V58.832ZM112.338 57.968V69.056H113.922V57.968H112.338ZM118.997 65.48C118.253 65.48 117.701 64.976 117.701 64.136C117.701 63.296 118.253 62.78 118.997 62.78C119.741 62.78 120.281 63.296 120.281 64.124C120.281 64.976 119.741 65.48 118.997 65.48ZM118.997 61.496C117.389 61.496 116.189 62.588 116.189 64.124C116.189 65.684 117.389 66.776 118.997 66.776C120.593 66.776 121.781 65.684 121.781 64.124C121.781 62.588 120.593 61.496 118.997 61.496ZM119.777 58.172H118.193V59.612H115.745V60.872H122.177V59.612H119.777V58.172ZM126.065 62.3H124.481V57.98H122.897V69.032H124.481V63.608H126.065V62.3ZM132.652 63.668C132.7 63.368 132.724 63.032 132.724 62.684C132.724 62.264 132.688 61.868 132.616 61.508H134.536V63.668H132.652ZM129.868 65.204C129.064 65.204 128.512 64.328 128.512 62.684C128.512 61.052 129.064 60.176 129.868 60.176C130.684 60.176 131.236 61.052 131.236 62.684C131.236 64.328 130.684 65.204 129.868 65.204ZM134.536 57.968V60.236H132.184C131.692 59.288 130.864 58.748 129.868 58.748C128.224 58.748 127.012 60.26 127.012 62.684C127.012 65.12 128.224 66.644 129.868 66.644C130.936 66.656 131.788 66.032 132.28 64.952H134.536V69.056H136.12V57.968H134.536ZM147.387 59.144H144.915V57.968H143.319V59.144H140.871V60.38H147.375L147.387 59.144ZM142.923 62.9C142.923 62.3 143.415 61.976 144.123 61.976C144.819 61.976 145.323 62.3 145.323 62.9C145.323 63.512 144.819 63.836 144.123 63.836C143.415 63.836 142.923 63.512 142.923 62.9ZM146.835 62.9C146.835 61.652 145.707 60.776 144.123 60.776C142.539 60.776 141.411 61.652 141.411 62.9C141.411 64.172 142.539 65.036 144.123 65.036C145.707 65.036 146.835 64.172 146.835 62.9ZM144.027 65.636H142.443V68.84H149.967V67.58H144.027V65.636ZM149.571 61.352V57.98H147.987V66.248H149.571V62.66H151.035V61.352H149.571ZM155.835 62.072C157.863 61.928 159.243 61.28 159.891 60.368C160.539 61.292 161.931 61.928 163.959 62.072L164.439 60.884C162.411 60.752 161.319 60.152 160.971 59.504H163.983V58.268H155.811V59.504H158.823C158.463 60.152 157.359 60.752 155.343 60.884L155.835 62.072ZM164.883 63.608V62.372H154.899V63.608H159.099V64.304H156.039V65.456H162.111V66.068H156.051V68.948H163.959V67.772H157.623V67.148H163.671V64.304H160.683V63.608H164.883ZM172.958 64.472H174.866V66.548H172.958V64.472ZM172.778 60.116H175.034V63.224H172.778V60.116ZM176.438 66.548V64.472H178.082V63.224H176.606V60.116H178.106V58.856H169.706V60.116H171.206V63.224H169.766V64.472H171.386V66.548H168.914V67.82H178.934V66.548H176.438ZM184.249 58.832H182.665V60.44C182.665 62.588 181.753 64.724 179.821 65.552L180.769 66.86C182.089 66.236 182.989 65.048 183.481 63.572C183.973 64.928 184.825 66.02 186.097 66.596L186.997 65.312C185.125 64.508 184.249 62.492 184.249 60.44V58.832ZM187.537 57.968V69.056H189.121V57.968H187.537ZM203.461 59.132H199.777V57.968H198.193V59.132H194.473V60.368H203.461V59.132ZM201.133 62.708C201.133 63.2 200.425 63.428 198.985 63.428C197.545 63.428 196.849 63.2 196.849 62.708C196.849 62.192 197.545 61.976 198.985 61.976C200.425 61.976 201.133 62.192 201.133 62.708ZM195.205 62.708C195.205 63.92 196.621 64.604 198.985 64.604C201.349 64.604 202.777 63.92 202.777 62.708C202.777 61.484 201.349 60.8 198.985 60.8C196.621 60.8 195.205 61.484 195.205 62.708ZM204.001 65.132H193.993V66.404H198.193V69.044H199.777V66.404H204.001V65.132ZM211.072 68.1172C210.143 68.1172 209.385 67.832 208.799 67.2617C208.217 66.6914 207.926 65.9316 207.926 64.9824V64.8184C207.926 64.1816 208.049 63.6133 208.295 63.1133C208.541 62.6094 208.889 62.2227 209.338 61.9531C209.791 61.6797 210.307 61.543 210.885 61.543C211.752 61.543 212.434 61.8164 212.93 62.3633C213.43 62.9102 213.68 63.6855 213.68 64.6895V65.3809H209.643C209.697 65.7949 209.861 66.127 210.135 66.377C210.412 66.627 210.762 66.752 211.184 66.752C211.836 66.752 212.346 66.5156 212.713 66.043L213.545 66.9746C213.291 67.334 212.947 67.6152 212.514 67.8184C212.08 68.0176 211.6 68.1172 211.072 68.1172ZM210.879 62.9141C210.543 62.9141 210.27 63.0273 210.059 63.2539C209.852 63.4805 209.719 63.8047 209.66 64.2266H212.016V64.0918C212.008 63.7168 211.906 63.4277 211.711 63.2246C211.516 63.0176 211.238 62.9141 210.879 62.9141ZM216.434 68H214.734V59H216.434V68ZM219.621 68H217.922V59H219.621V68ZM222.809 68H221.109V61.6602H222.809V68ZM221.01 60.0195C221.01 59.7656 221.094 59.5566 221.262 59.3926C221.434 59.2285 221.666 59.1465 221.959 59.1465C222.248 59.1465 222.479 59.2285 222.65 59.3926C222.822 59.5566 222.908 59.7656 222.908 60.0195C222.908 60.2773 222.82 60.4883 222.645 60.6523C222.473 60.8164 222.244 60.8984 221.959 60.8984C221.674 60.8984 221.443 60.8164 221.268 60.6523C221.096 60.4883 221.01 60.2773 221.01 60.0195ZM229.916 64.8887C229.916 65.8652 229.693 66.6484 229.248 67.2383C228.807 67.8242 228.209 68.1172 227.455 68.1172C226.814 68.1172 226.297 67.8945 225.902 67.4492V70.4375H224.209V61.6602H225.779L225.838 62.2812C226.248 61.7891 226.783 61.543 227.443 61.543C228.225 61.543 228.832 61.832 229.266 62.4102C229.699 62.9883 229.916 63.7852 229.916 64.8008V64.8887ZM228.223 64.7656C228.223 64.1758 228.117 63.7207 227.906 63.4004C227.699 63.0801 227.396 62.9199 226.998 62.9199C226.467 62.9199 226.102 63.123 225.902 63.5293V66.125C226.109 66.543 226.479 66.752 227.01 66.752C227.818 66.752 228.223 66.0898 228.223 64.7656ZM234.404 66.248C234.404 66.041 234.301 65.8789 234.094 65.7617C233.891 65.6406 233.562 65.5332 233.109 65.4395C231.602 65.123 230.848 64.4824 230.848 63.5176C230.848 62.9551 231.08 62.4863 231.545 62.1113C232.014 61.7324 232.625 61.543 233.379 61.543C234.184 61.543 234.826 61.7324 235.307 62.1113C235.791 62.4902 236.033 62.9824 236.033 63.5879H234.34C234.34 63.3457 234.262 63.1465 234.105 62.9902C233.949 62.8301 233.705 62.75 233.373 62.75C233.088 62.75 232.867 62.8145 232.711 62.9434C232.555 63.0723 232.477 63.2363 232.477 63.4355C232.477 63.623 232.564 63.7754 232.74 63.8926C232.92 64.0059 233.221 64.1055 233.643 64.1914C234.064 64.2734 234.42 64.3672 234.709 64.4727C235.604 64.8008 236.051 65.3691 236.051 66.1777C236.051 66.7559 235.803 67.2246 235.307 67.584C234.811 67.9395 234.17 68.1172 233.385 68.1172C232.854 68.1172 232.381 68.0234 231.967 67.8359C231.557 67.6445 231.234 67.3848 231 67.0566C230.766 66.7246 230.648 66.3672 230.648 65.9844H232.254C232.27 66.2852 232.381 66.5156 232.588 66.6758C232.795 66.8359 233.072 66.916 233.42 66.916C233.744 66.916 233.988 66.8555 234.152 66.7344C234.32 66.6094 234.404 66.4473 234.404 66.248ZM238.934 68H237.234V61.6602H238.934V68ZM237.135 60.0195C237.135 59.7656 237.219 59.5566 237.387 59.3926C237.559 59.2285 237.791 59.1465 238.084 59.1465C238.373 59.1465 238.604 59.2285 238.775 59.3926C238.947 59.5566 239.033 59.7656 239.033 60.0195C239.033 60.2773 238.945 60.4883 238.77 60.6523C238.598 60.8164 238.369 60.8984 238.084 60.8984C237.799 60.8984 237.568 60.8164 237.393 60.6523C237.221 60.4883 237.135 60.2773 237.135 60.0195ZM243.768 66.248C243.768 66.041 243.664 65.8789 243.457 65.7617C243.254 65.6406 242.926 65.5332 242.473 65.4395C240.965 65.123 240.211 64.4824 240.211 63.5176C240.211 62.9551 240.443 62.4863 240.908 62.1113C241.377 61.7324 241.988 61.543 242.742 61.543C243.547 61.543 244.189 61.7324 244.67 62.1113C245.154 62.4902 245.396 62.9824 245.396 63.5879H243.703C243.703 63.3457 243.625 63.1465 243.469 62.9902C243.312 62.8301 243.068 62.75 242.736 62.75C242.451 62.75 242.23 62.8145 242.074 62.9434C241.918 63.0723 241.84 63.2363 241.84 63.4355C241.84 63.623 241.928 63.7754 242.104 63.8926C242.283 64.0059 242.584 64.1055 243.006 64.1914C243.428 64.2734 243.783 64.3672 244.072 64.4727C244.967 64.8008 245.414 65.3691 245.414 66.1777C245.414 66.7559 245.166 67.2246 244.67 67.584C244.174 67.9395 243.533 68.1172 242.748 68.1172C242.217 68.1172 241.744 68.0234 241.33 67.8359C240.92 67.6445 240.598 67.3848 240.363 67.0566C240.129 66.7246 240.012 66.3672 240.012 65.9844H241.617C241.633 66.2852 241.744 66.5156 241.951 66.6758C242.158 66.8359 242.436 66.916 242.783 66.916C243.107 66.916 243.352 66.8555 243.516 66.7344C243.684 66.6094 243.768 66.4473 243.768 66.248ZM253.492 61.04H255.688V59.78H253.492V58.244H251.908V59.78H249.676V61.04H251.908V61.424C251.908 63.08 251.08 64.952 249.304 65.78L250.144 66.992C251.392 66.428 252.256 65.312 252.724 63.992C253.204 65.24 254.068 66.272 255.28 66.812L256.12 65.6C254.344 64.808 253.492 63.008 253.492 61.424V61.04ZM257.056 57.98V62.204H255.1V63.488H257.056V69.056H258.64V57.98H257.056ZM262.611 63.188H266.199V58.916H260.979V60.176H264.579V61.94H260.991V66.488H261.987C263.991 66.488 265.611 66.416 267.411 66.104L267.243 64.82C265.683 65.084 264.291 65.168 262.611 65.18V63.188ZM268.011 57.968V69.056H269.595V57.968H268.011ZM271.125 69.1602C271.719 68.9492 272.023 68.3828 272.039 67.4609V66.2188C272.039 65.3359 272.396 64.7227 273.111 64.3789C272.396 64.0352 272.039 63.4121 272.039 62.5098V61.2852C272.023 60.375 271.719 59.8086 271.125 59.5859L271.453 58.6426C272.152 58.8379 272.678 59.1582 273.029 59.6035C273.381 60.0449 273.559 60.625 273.562 61.3438V62.6035C273.578 63.3809 273.926 63.7695 274.605 63.7695V64.9824C273.91 64.9824 273.562 65.3906 273.562 66.207V67.4785C273.531 68.8457 272.828 69.7227 271.453 70.1094L271.125 69.1602Z" fill="black"/>
<circle cx="339.5" cy="64.5" r="1.5" fill="#707070"/>
<circle cx="344.5" cy="64.5" r="1.5" fill="#707070"/>
<circle cx="349.5" cy="64.5" r="1.5" fill="#707070"/>
<path d="M9.70312 102.145C9.01172 101.949 8.49023 101.627 8.13867 101.178C7.79102 100.732 7.61719 100.143 7.61719 99.4082V98.2422C7.61719 97.293 7.20312 96.8184 6.375 96.8184V95.9688C7.20312 95.9688 7.61719 95.4961 7.61719 94.5508V93.332C7.625 92.6172 7.79883 92.041 8.13867 91.6035C8.48242 91.1621 9.00391 90.8418 9.70312 90.6426L9.92578 91.3164C9.10938 91.5781 8.70117 92.2598 8.70117 93.3613V94.5449C8.70117 95.4316 8.375 96.0488 7.72266 96.3965C8.375 96.748 8.70117 97.3711 8.70117 98.2656V99.4727C8.71289 100.547 9.12109 101.213 9.92578 101.471L9.70312 102.145ZM12.2144 91.432H11.2304V98.092H11.9144C13.0784 98.092 14.3144 98.032 15.7664 97.756L15.6704 96.904C14.3864 97.156 13.2464 97.228 12.2144 97.24V91.432ZM18.8864 90.124V94.504H17.3624V90.364H16.4384V100.336H17.3624V95.32H18.8864V100.876H19.8344V90.124H18.8864ZM26.6015 100.12C24.9095 100.12 23.9135 99.7 23.9135 98.968C23.9135 98.236 24.9095 97.816 26.6015 97.816C28.2815 97.816 29.2895 98.236 29.2895 98.968C29.2895 99.7 28.2815 100.12 26.6015 100.12ZM26.6015 97.048C24.2975 97.048 22.9175 97.732 22.9175 98.968C22.9175 100.204 24.2975 100.876 26.6015 100.876C28.9175 100.876 30.2855 100.204 30.2855 98.968C30.2855 97.732 28.9175 97.048 26.6015 97.048ZM25.1135 94.192C25.5575 94.264 26.0615 94.312 26.6015 94.312C27.1535 94.312 27.6575 94.264 28.1015 94.192V95.452H25.1135V94.192ZM23.8295 92.32C23.8295 91.54 24.8855 91.084 26.6015 91.084C28.3175 91.084 29.3735 91.54 29.3735 92.32C29.3735 93.088 28.3175 93.556 26.6015 93.556C24.8855 93.556 23.8295 93.088 23.8295 92.32ZM29.0735 95.452V93.928C29.9015 93.592 30.3815 93.04 30.3815 92.32C30.3815 91.06 28.9415 90.316 26.6015 90.316C24.2735 90.316 22.8215 91.06 22.8215 92.32C22.8215 93.052 23.2895 93.592 24.1415 93.94V95.452H21.7295V96.244H31.4735V95.452H29.0735ZM36.8611 93.316C36.8611 92.32 37.6531 91.6 38.6971 91.6C39.7531 91.6 40.5211 92.32 40.5211 93.316C40.5211 94.324 39.7531 95.044 38.6971 95.044C37.6531 95.044 36.8611 94.324 36.8611 93.316ZM43.6291 92.476V94.156H41.3131C41.4091 93.892 41.4571 93.616 41.4571 93.316C41.4571 93.004 41.4091 92.728 41.3251 92.476H43.6291ZM43.6291 94.96V96.496H44.6251V90.124H43.6291V91.672H40.8691C40.3771 91.12 39.6091 90.772 38.6971 90.772C37.1011 90.772 35.9251 91.816 35.9251 93.316C35.9251 94.828 37.1011 95.884 38.6971 95.884C39.6091 95.884 40.3771 95.536 40.8691 94.96H43.6291ZM41.0611 100.096C39.4411 100.096 38.4571 99.616 38.4571 98.812C38.4571 97.996 39.4411 97.516 41.0611 97.516C42.7051 97.516 43.6891 97.996 43.6891 98.812C43.6891 99.616 42.7051 100.096 41.0611 100.096ZM41.0611 96.748C38.8531 96.748 37.4851 97.504 37.4851 98.812C37.4851 100.12 38.8531 100.876 41.0611 100.876C43.2811 100.876 44.6611 100.12 44.6611 98.812C44.6611 97.504 43.2811 96.748 41.0611 96.748ZM48.4642 97.864H54.6682V100.9H55.6642V97.06H48.4642V97.864ZM52.3762 94.12C52.4482 93.868 52.4962 93.604 52.4962 93.304C52.4962 93.016 52.4482 92.752 52.3762 92.5H54.6682V94.12H52.3762ZM49.7242 95.068C48.6802 95.068 47.9002 94.336 47.9002 93.304C47.9002 92.296 48.6802 91.564 49.7242 91.564C50.7802 91.564 51.5602 92.296 51.5602 93.304C51.5602 94.336 50.7802 95.068 49.7242 95.068ZM54.6682 90.136V91.708H51.9562C51.4522 91.096 50.6602 90.724 49.7242 90.724C48.1402 90.724 46.9642 91.792 46.9642 93.304C46.9642 94.828 48.1402 95.908 49.7242 95.908C50.6602 95.908 51.4402 95.536 51.9442 94.924H54.6682V96.472H55.6642V90.124L54.6682 90.136ZM66.2478 95.932C66.3198 95.56 66.3678 95.152 66.3678 94.708C66.3678 94.216 66.3078 93.76 66.2118 93.34H68.6958V95.932H66.2478ZM63.6918 97.588C62.6598 97.588 61.9398 96.46 61.9398 94.708C61.9398 92.968 62.6598 91.84 63.6918 91.84C64.7118 91.84 65.4438 92.968 65.4438 94.708C65.4438 96.46 64.7118 97.588 63.6918 97.588ZM68.6958 90.124V92.536H65.9358C65.4798 91.528 64.6878 90.952 63.6918 90.952C62.1198 90.952 61.0038 92.416 61.0038 94.708C61.0038 97 62.1198 98.464 63.6918 98.464C64.7238 98.464 65.5638 97.828 66.0078 96.736H68.6958V100.912H69.6798V90.124H68.6958ZM73.2188 94.888H77.0348V91.12H72.2228V91.924H76.0748V94.096H72.2468V98.308H73.0748C75.0188 98.308 76.3868 98.248 78.0068 97.96L77.9108 97.144C76.3628 97.42 75.0548 97.492 73.2188 97.492V94.888ZM79.7228 90.112V94.264H77.6708V95.068H79.7228V100.9H80.7068V90.112H79.7228ZM83.7179 94.084C85.5059 93.916 87.1139 93.232 87.7619 92.164C88.4099 93.232 90.0179 93.916 91.7939 94.084L92.1059 93.34C90.1979 93.172 88.4819 92.356 88.3499 91.276H91.7459V90.496H83.7779V91.276H87.1739C87.0299 92.356 85.3019 93.172 83.4059 93.34L83.7179 94.084ZM92.6219 95.404V94.612H82.8779V95.404H87.2579V96.472H84.0539V97.216H90.4019V98.236H84.0899V100.768H91.6979V100.012H85.0499V98.944H91.3739V96.472H88.2539V95.404H92.6219ZM99.293 98.752V96.724H102.737V95.932H96.113V94.192H102.485V90.916H95.117V91.72H101.525V93.4H95.141V96.724H98.297V98.752H93.917V99.556H103.697V98.752H99.293ZM110.045 91.804H115.553V95.296H110.045V91.804ZM113.309 98.692V96.076H116.513V91.024H109.097V96.076H112.313V98.692H107.945V99.508H117.701V98.692H113.309ZM127.516 94.132H121.324V91.564H127.384V90.76H120.316V94.924H127.516V94.132ZM128.74 96.328H118.984V97.132H123.34V100.84H124.324V97.132H128.74V96.328ZM136.683 96.22H139.023V98.776H136.683V96.22ZM136.515 91.912H139.191V95.428H136.515V91.912ZM140.007 98.776V96.22H141.831V95.428H140.175V91.912H141.843V91.12H133.863V91.912H135.531V95.428H133.887V96.22H135.699V98.776H132.987V99.58H142.755V98.776H140.007ZM147.854 91.06H146.882V92.992C146.882 95.032 145.574 97.096 143.99 97.852L144.59 98.656C145.85 98.008 146.882 96.664 147.374 95.044C147.89 96.58 148.922 97.852 150.146 98.452L150.734 97.66C149.138 96.94 147.854 94.96 147.854 92.992V91.06ZM151.862 90.124V100.912H152.846V90.124H151.862ZM154.553 101.471C155.346 101.217 155.756 100.57 155.783 99.5312V98.2422C155.783 97.3398 156.137 96.7246 156.844 96.3965C156.137 96.0762 155.783 95.4609 155.783 94.5508V93.3613C155.783 92.2598 155.375 91.5781 154.559 91.3164L154.781 90.6426C155.473 90.8379 155.992 91.1562 156.34 91.5977C156.688 92.0352 156.863 92.6152 156.867 93.3379V94.5684C156.867 95.502 157.281 95.9688 158.109 95.9688V96.8184C157.281 96.8184 156.867 97.293 156.867 98.2422V99.4258C156.867 100.16 156.689 100.748 156.334 101.189C155.982 101.631 155.465 101.949 154.781 102.145L154.553 101.471Z" fill="black"/>
<rect x="0.5" y="48.5" width="359" height="63" stroke="black"/>
<rect x="0.5" y="112.5" width="359" height="63" fill="white"/>
<path d="M10.02 124.368H11.628V123.084H6.708V124.368H8.484V124.908C8.484 126.804 7.908 128.784 6.3 129.804L7.236 130.968C8.232 130.344 8.88 129.264 9.264 128.004C9.624 129.168 10.26 130.116 11.232 130.704L12.156 129.552C10.56 128.616 10.02 126.756 10.02 124.908V124.368ZM12.264 125.748H10.86V127.032H12.264V132.528H13.74V122.16H12.264V125.748ZM14.496 121.968V133.02H15.996V121.968H14.496ZM18.6591 130.668H24.7551V133.044H26.3391V129.408H18.6591V130.668ZM20.3391 123.648H24.7191V125.076H20.3391V123.648ZM23.3271 127.356V126.324H26.2791V122.412H18.7791V126.324H21.7431V127.356H17.5551V128.616H27.5391V127.356H23.3271Z" fill="black"/>
<circle cx="339.5" cy="128.5" r="1.5" fill="#707070"/>
<circle cx="344.5" cy="128.5" r="1.5" fill="#707070"/>
<circle cx="349.5" cy="128.5" r="1.5" fill="#707070"/>
<path d="M12.852 159.188C11.304 158.66 10.248 157.316 10.248 155.864V154.676H9.264V155.78C9.264 157.424 8.22 158.888 6.588 159.476L7.104 160.256C8.364 159.776 9.324 158.792 9.768 157.532C10.248 158.636 11.172 159.524 12.336 159.956L12.852 159.188ZM11.568 164.108C9.972 164.108 9 163.664 9 162.92C9 162.164 9.972 161.72 11.568 161.72C13.152 161.72 14.124 162.164 14.124 162.92C14.124 163.664 13.152 164.108 11.568 164.108ZM11.568 160.952C9.372 160.952 8.016 161.66 8.016 162.92C8.016 164.168 9.372 164.876 11.568 164.876C13.752 164.876 15.108 164.168 15.108 162.92C15.108 161.66 13.752 160.952 11.568 160.952ZM14.988 156.908V154.136H14.004V160.652H14.988V157.724H16.584V156.908H14.988ZM20.8671 155.144H19.9191V157.196C19.9191 159.044 19.0311 160.976 17.5551 161.84L18.1671 162.572C19.2351 161.912 20.0151 160.7 20.3991 159.272C20.7831 160.58 21.5031 161.72 22.5231 162.344L23.0871 161.576C21.6711 160.712 20.8671 158.888 20.8671 157.16V155.144ZM23.6991 157.988H21.9231V158.804H23.6991V164.36H24.6231V154.364H23.6991V157.988ZM25.8831 154.124V164.888H26.8191V154.124H25.8831ZM37.4387 156.92V157.724H39.5627V160.544H40.5587V154.136H39.5627V156.92H37.4387ZM38.0387 159.368C36.4787 158.816 35.4227 157.46 35.4227 156.08V155.708H37.7867V154.916H32.0387V155.708H34.4387V156.08C34.4387 157.628 33.3347 159.08 31.7267 159.668L32.2427 160.448C33.5027 159.968 34.4987 158.96 34.9547 157.712C35.4227 158.816 36.3467 159.704 37.5467 160.136L38.0387 159.368ZM37.0067 164.12C35.3867 164.12 34.4027 163.664 34.4027 162.884C34.4027 162.104 35.3867 161.636 37.0067 161.636C38.6267 161.636 39.6107 162.104 39.6107 162.884C39.6107 163.664 38.6267 164.12 37.0067 164.12ZM37.0067 160.88C34.7987 160.88 33.4187 161.612 33.4187 162.884C33.4187 164.156 34.7987 164.888 37.0067 164.888C39.2147 164.888 40.5947 164.156 40.5947 162.884C40.5947 161.612 39.2147 160.88 37.0067 160.88ZM44.8538 157.616H50.3498V159.596H44.8538V157.616ZM48.0938 162.704V160.388H51.3098V154.892H50.3498V156.812H44.8538V154.892H43.8818V160.388H47.0978V162.704H42.7298V163.508H52.4858V162.704H48.0938Z" fill="black"/>
<rect x="0.5" y="112.5" width="359" height="63" stroke="black"/>
<rect x="0.5" y="592.5" width="359" height="47" fill="#C4C4C4" stroke="#707070"/>
<mask id="mask0" mask-type="alpha" maskUnits="userSpaceOnUse" x="156" y="568" width="48" height="48">
<rect x="156.5" y="568.5" width="47" height="47" rx="23.5" fill="white" stroke="black"/>
</mask>
<g mask="url(#mask0)">
<rect x="156" y="592" width="48" height="24" fill="white"/>
</g>
<rect x="160.5" y="572.5" width="39" height="39" rx="19.5" fill="#C4C4C4" stroke="#707070"/>
<rect x="170" y="590" width="20" height="4" fill="#707070"/>
<rect x="178" y="602" width="20" height="4" transform="rotate(-90 178 602)" fill="#707070"/>
<mask id="mask1" mask-type="alpha" maskUnits="userSpaceOnUse" x="156" y="568" width="48" height="48">
<rect x="156.5" y="568.5" width="47" height="47" rx="23.5" stroke="#707070"/>
</mask>
<g mask="url(#mask1)">
<rect x="156" y="592" width="48" height="24" fill="#707070"/>
</g>
<circle cx="326.769" cy="615.769" r="2.76923" fill="#707070"/>
<circle cx="336" cy="615.769" r="2.76923" fill="#707070"/>
<circle cx="345.231" cy="615.769" r="2.76923" fill="#707070"/>
<rect x="12" y="615" width="24" height="3" fill="#707070"/>
<rect x="12" y="607" width="24" height="3" fill="#707070"/>
<rect x="12" y="623" width="24" height="3" fill="#707070"/>
<rect x="0.5" y="0.5" width="359" height="47" fill="#C4C4C4" stroke="#707070"/>
<path d="M28.312 17.324H26.45V26.718H28.312V17.324ZM25.498 23.302C23.398 22.63 22.502 20.978 22.502 19.27V18.024H20.626V19.27C20.626 20.992 19.702 22.798 17.56 23.526L18.498 24.996C19.996 24.478 21.004 23.428 21.592 22.126C22.152 23.33 23.132 24.282 24.56 24.772L25.498 23.302ZM21.578 28.51V25.822H19.73V29.98H28.634V28.51H21.578ZM42.1429 23.554H40.2949C40.6589 21.44 40.6589 19.942 40.6589 18.85V18.024H31.8529V19.522H38.8249C38.8109 20.53 38.7549 21.832 38.4329 23.554H30.4949V25.052H33.0989V30.232H34.9329V25.052H37.5649V30.232H39.3989V25.052H42.1429V23.554ZM50.4858 23.764H47.8538V19.9H50.4858V23.764ZM46.0198 23.764H44.3398V25.234H54.0278V23.764H52.3198V19.9H54.0698V18.43H44.2698V19.9H46.0198V23.764ZM43.3598 27.208V28.706H55.0358V27.208H43.3598ZM62.9867 27.278V25.36H66.8927V23.876H59.4167V22.434H66.5987V18.136H57.5687V19.606H64.7787V20.992H57.5827V25.36H61.1387V27.278H56.2387V28.79H67.9147V27.278H62.9867ZM74.4516 20.488V21.986H75.8236V25.108H77.5456V17.548H75.8236V20.488H74.4516ZM75.4596 23.414C73.8216 22.77 73.1776 21.44 73.1776 20.054V19.704H75.0536V18.234H69.3556V19.704H71.3856V20.054C71.3856 21.496 70.6996 22.966 68.9496 23.652L69.8876 25.066C71.0636 24.604 71.8336 23.778 72.2956 22.756C72.7296 23.68 73.4576 24.422 74.5496 24.842L75.4596 23.414ZM71.2316 27.11H78.2596V30.218H80.1076V25.654H71.2316V27.11ZM78.3576 17.31V25.164H80.1076V17.31H78.3576ZM92.4265 23.96H85.2445V22.518H92.0345V21.09H85.2445V19.732H92.3285V18.248H83.3685V25.416H92.4265V23.96ZM81.9965 27.222V28.72H93.6725V27.222H81.9965Z" fill="black"/>
<circle cx="114.5" cy="24.5" r="13.5" fill="#707070"/>
<path d="M117.499 30H110.677V28.6465L113.896 25.2148C114.339 24.7318 114.664 24.3102 114.874 23.9502C115.088 23.5902 115.195 23.2484 115.195 22.9248C115.195 22.4827 115.084 22.1364 114.86 21.8857C114.637 21.6305 114.318 21.5029 113.903 21.5029C113.457 21.5029 113.104 21.6579 112.844 21.9678C112.589 22.2731 112.461 22.6764 112.461 23.1777H110.479C110.479 22.5716 110.622 22.0179 110.909 21.5166C111.201 21.0153 111.611 20.6234 112.14 20.3408C112.668 20.0537 113.268 19.9102 113.938 19.9102C114.963 19.9102 115.758 20.1562 116.323 20.6484C116.893 21.1406 117.178 21.8356 117.178 22.7334C117.178 23.2256 117.05 23.7269 116.795 24.2373C116.54 24.7477 116.102 25.3424 115.482 26.0215L113.22 28.4072H117.499V30Z" fill="white"/>
</svg>
