<svg width="125" height="156" viewBox="0 0 125 156" fill="none" xmlns="http://www.w3.org/2000/svg">
<g clip-path="url(#clip0)">
<rect width="125" height="31.2" fill="white"/>
<path d="M21.6909 13.1578H19.0029V12.0658H18.0189V13.1578H15.3429V13.9138H21.6909V13.1578ZM16.8789 16.1578C16.8789 15.5098 17.5149 15.1258 18.5109 15.1258C19.5069 15.1258 20.1549 15.5098 20.1549 16.1578C20.1549 16.7938 19.5069 17.1898 18.5109 17.1898C17.5149 17.1898 16.8789 16.7938 16.8789 16.1578ZM21.0909 16.1578C21.0909 15.0658 20.0709 14.3938 18.5109 14.3938C16.9629 14.3938 15.9429 15.0658 15.9429 16.1578C15.9429 17.2498 16.9629 17.9218 18.5109 17.9218C20.0709 17.9218 21.0909 17.2498 21.0909 16.1578ZM17.8149 21.0298H23.6589V18.6418H16.8189V19.3738H22.6869V20.3098H16.8549V22.8178H24.0549V22.0618H17.8149V21.0298ZM23.6589 14.7298V12.1378H22.6749V18.0898H23.6589V15.5458H25.2549V14.7298H23.6589ZM38.1545 12.1738H37.1705V17.6938H38.1545V12.1738ZM30.5225 14.9578C30.5225 14.0218 31.3025 13.3618 32.3465 13.3618C33.4025 13.3618 34.1705 14.0218 34.1705 14.9578C34.1705 15.8818 33.4025 16.5418 32.3465 16.5418C31.3025 16.5418 30.5225 15.8818 30.5225 14.9578ZM35.1305 14.9578C35.1305 13.5298 33.9545 12.5578 32.3465 12.5578C30.7385 12.5578 29.5745 13.5298 29.5745 14.9578C29.5745 16.3738 30.7385 17.3338 32.3465 17.3338C33.9545 17.3338 35.1305 16.3738 35.1305 14.9578ZM32.1785 22.0138V20.8258H38.1545V18.2218H31.1825V19.0018H37.1825V20.0938H31.2065V22.7938H38.5145V22.0138H32.1785ZM50.8621 13.6378C50.8621 14.4778 50.8621 15.2698 50.5741 16.3738L51.5341 16.4818C51.8341 15.3778 51.8341 14.5018 51.8341 13.6378V12.7258H44.5021V13.5178H50.8621V13.6378ZM48.1621 22.1578C46.4821 22.1578 45.4021 21.7018 45.4021 20.9578C45.4021 20.1898 46.4821 19.7338 48.1621 19.7338C49.8541 19.7338 50.9341 20.1898 50.9341 20.9578C50.9341 21.7018 49.8541 22.1578 48.1621 22.1578ZM48.1621 18.9778C45.8701 18.9778 44.4181 19.7098 44.4181 20.9578C44.4181 22.1818 45.8701 22.9258 48.1621 22.9258C50.4541 22.9258 51.9181 22.1818 51.9181 20.9578C51.9181 19.7098 50.4541 18.9778 48.1621 18.9778ZM48.3181 17.1898V15.1258H47.3341V17.1898H43.3621V17.9818H53.0461V17.1898H48.3181ZM59.2252 13.3978C60.8692 13.3978 61.9852 13.9978 61.9852 14.9458C61.9852 15.8938 60.8692 16.5058 59.2252 16.5058C57.5932 16.5058 56.4772 15.8938 56.4772 14.9458C56.4772 13.9978 57.5932 13.3978 59.2252 13.3978ZM59.2252 17.2978C61.4692 17.2978 62.9932 16.3858 62.9932 14.9458C62.9932 13.5058 61.4692 12.6058 59.2252 12.6058C56.9932 12.6058 55.4692 13.5058 55.4692 14.9458C55.4692 16.3858 56.9932 17.2978 59.2252 17.2978ZM64.1212 18.3058H54.3772V19.1098H56.8852V22.9378H57.8812V19.1098H60.5812V22.9378H61.5772V19.1098H64.1212V18.3058ZM68.5723 19.7218C67.6003 19.7218 66.8923 19.0258 66.8923 18.0658C66.8923 17.0938 67.6003 16.3978 68.5723 16.3978C69.5563 16.3978 70.2643 17.0938 70.2643 18.0658C70.2643 19.0258 69.5563 19.7218 68.5723 19.7218ZM68.5723 15.5818C67.0603 15.5818 65.9683 16.6138 65.9683 18.0658C65.9683 19.5298 67.0603 20.5378 68.5723 20.5378C70.1083 20.5378 71.2003 19.5298 71.2003 18.0658C71.2003 16.6138 70.1083 15.5818 68.5723 15.5818ZM69.0523 12.3058H68.0683V13.9018H65.3563V14.6938H71.7043V13.9018H69.0523V12.3058ZM75.4723 16.6018H73.7083V12.1858H72.7243V22.9378H73.7083V17.4298H75.4723V16.6018ZM77.0913 13.3378V14.1298H81.1353C80.9313 16.6858 79.4913 18.7498 76.5993 20.1298L77.1273 20.9338C80.7033 19.1818 82.1313 16.4458 82.1313 13.3378H77.0913ZM84.3033 12.1738V22.9378H85.2873V12.1738H84.3033Z" fill="black"/>
<rect y="31.2" width="125" height="31.2" fill="white"/>
<path d="M23.1309 43.3738V54.1618H24.1149V43.3738H23.1309ZM18.4389 44.2018C16.8429 44.2018 15.7029 45.6658 15.7029 47.9578C15.7029 50.2498 16.8429 51.7138 18.4389 51.7138C20.0349 51.7138 21.1749 50.2498 21.1749 47.9578C21.1749 45.6658 20.0349 44.2018 18.4389 44.2018ZM18.4389 45.0898C19.4829 45.0898 20.2269 46.2178 20.2269 47.9578C20.2269 49.7098 19.4829 50.8378 18.4389 50.8378C17.3829 50.8378 16.6389 49.7098 16.6389 47.9578C16.6389 46.2178 17.3829 45.0898 18.4389 45.0898ZM35.586 47.5138C33.666 47.2258 31.734 45.8938 31.734 44.3698V43.7578H30.702V44.3698C30.702 45.9058 28.806 47.2138 26.85 47.5138L27.234 48.3178C28.938 48.0178 30.546 47.0818 31.218 45.7618C31.902 47.0698 33.522 48.0178 35.202 48.3178L35.586 47.5138ZM36.102 49.5298H26.346V50.3338H28.818V54.2218H29.802V50.3338H32.646V54.2218H33.63V50.3338H36.102V49.5298ZM42.749 52.0018V49.9738H46.193V49.1818H39.569V47.4418H45.941V44.1658H38.573V44.9698H44.981V46.6498H38.597V49.9738H41.753V52.0018H37.373V52.8058H47.153V52.0018H42.749ZM60.0046 46.6738H53.6086V44.5978H59.9326V43.8058H52.6246V47.4658H60.0046V46.6738ZM56.2606 53.3578C54.5686 53.3578 53.5726 52.9378 53.5726 52.1818C53.5726 51.4258 54.5686 51.0058 56.2606 51.0058C57.9526 51.0058 58.9486 51.4258 58.9486 52.1818C58.9486 52.9378 57.9406 53.3578 56.2606 53.3578ZM56.2606 50.2378C53.9686 50.2378 52.5766 50.9338 52.5766 52.1818C52.5766 53.4298 53.9686 54.1258 56.2606 54.1258C58.5526 54.1258 59.9446 53.4298 59.9446 52.1818C59.9446 50.9338 58.5526 50.2378 56.2606 50.2378ZM51.4006 48.4978V49.3138H61.1446V48.4978H51.4006ZM63.5197 51.7258H70.0237V54.0418H71.0077V50.9218H63.5197V51.7258ZM67.8157 49.2898V48.1618H71.1757V47.3938H64.6597V46.2658H70.9477V43.6498H63.6637V44.4178H69.9757V45.5338H63.6877V48.1618H66.8197V49.2898H62.4277V50.0938H72.1957V49.2898H67.8157ZM76.6348 50.9218C75.6628 50.9218 74.9548 50.2258 74.9548 49.2658C74.9548 48.2938 75.6628 47.5978 76.6348 47.5978C77.6188 47.5978 78.3268 48.2938 78.3268 49.2658C78.3268 50.2258 77.6188 50.9218 76.6348 50.9218ZM76.6348 46.7818C75.1228 46.7818 74.0308 47.8138 74.0308 49.2658C74.0308 50.7298 75.1228 51.7378 76.6348 51.7378C78.1708 51.7378 79.2628 50.7298 79.2628 49.2658C79.2628 47.8138 78.1708 46.7818 76.6348 46.7818ZM77.1148 43.5058H76.1308V45.1018H73.4188V45.8938H79.7668V45.1018H77.1148V43.5058ZM83.5348 47.8018H81.7708V43.3858H80.7868V54.1378H81.7708V48.6298H83.5348V47.8018ZM85.1538 44.5378V45.3298H89.1978C88.9938 47.8858 87.5538 49.9498 84.6618 51.3298L85.1898 52.1338C88.7658 50.3818 90.1938 47.6458 90.1938 44.5378H85.1538ZM92.3658 43.3738V54.1378H93.3498V43.3738H92.3658Z" fill="black"/>
<rect y="62.3999" width="125" height="31.2" fill="white"/>
<path d="M23.1789 82.578H24.1749V74.586H23.1789V76.626H21.3789V77.418H23.1789V78.678H21.3789V79.482H23.1789V82.578ZM17.6469 76.242H19.2669V80.058C18.7269 80.082 18.1749 80.106 17.6469 80.118V76.242ZM21.6309 79.866C21.1869 79.914 20.7069 79.962 20.2269 79.998V76.242H21.2949V75.45H15.6309V76.242H16.6989V80.13C16.2189 80.142 15.7509 80.142 15.3429 80.142L15.4509 80.958C17.1909 80.958 19.6269 80.922 21.6909 80.598L21.6309 79.866ZM18.2589 84.294V81.93H17.2749V85.098H24.4509V84.294H18.2589ZM32.934 79.482C31.35 78.99 30.222 77.73 30.222 76.314V76.074H32.658V75.27H26.754V76.074H29.214V76.314C29.214 77.79 28.11 79.134 26.478 79.65L26.982 80.43C28.266 79.986 29.262 79.05 29.73 77.862C30.222 78.978 31.218 79.842 32.454 80.238L32.934 79.482ZM34.206 84.39H29.214V82.998H34.206V84.39ZM34.206 82.23H29.214V80.922H28.242V85.194H35.178V80.922H34.206V82.23ZM34.194 74.574V80.406H35.178V74.574H34.194Z" fill="black"/>
<rect y="93.6001" width="125" height="31.2" fill="white"/>
<path d="M18.1749 113.238C17.1309 113.238 16.3989 112.11 16.3989 110.358C16.3989 108.618 17.1309 107.49 18.1749 107.49C19.2069 107.49 19.9389 108.618 19.9389 110.358C19.9389 112.11 19.2069 113.238 18.1749 113.238ZM18.1749 106.602C16.5909 106.602 15.4629 108.066 15.4629 110.358C15.4629 112.65 16.5909 114.114 18.1749 114.114C19.7589 114.114 20.8749 112.65 20.8749 110.358C20.8749 108.066 19.7589 106.602 18.1749 106.602ZM25.3629 110.07H23.5869V105.786H22.6029V116.538H23.5869V110.898H25.3629V110.07ZM27.03 106.89V107.694H30.906C30.87 108.354 30.762 108.978 30.582 109.578L26.49 109.854L26.658 110.718L30.282 110.37C29.622 111.81 28.434 113.034 26.442 114.018L26.982 114.774C30.834 112.854 31.89 110.01 31.89 106.89H27.03ZM36.354 110.142H34.626V105.774H33.642V116.538H34.626V110.958H36.354V110.142ZM45.209 105.774V116.562H46.193V105.774H45.209ZM40.517 106.602C38.921 106.602 37.781 108.066 37.781 110.358C37.781 112.65 38.921 114.114 40.517 114.114C42.113 114.114 43.253 112.65 43.253 110.358C43.253 108.066 42.113 106.602 40.517 106.602ZM40.517 107.49C41.561 107.49 42.305 108.618 42.305 110.358C42.305 112.11 41.561 113.238 40.517 113.238C39.461 113.238 38.717 112.11 38.717 110.358C38.717 108.618 39.461 107.49 40.517 107.49ZM48.4241 114.294V115.11H58.1801V114.294H48.4241ZM49.5761 106.554V112.158H57.0041V106.554H56.0441V108.522H50.5481V106.554H49.5761ZM50.5481 109.314H56.0441V111.354H50.5481V109.314ZM64.8271 114.402V112.374H68.2711V111.582H61.6471V109.842H68.0191V106.566H60.6511V107.37H67.0591V109.05H60.6751V112.374H63.8311V114.402H59.4511V115.206H69.2311V114.402H64.8271ZM75.4588 114.57H77.9548V112.158H74.5108V112.89H77.0308V113.874H74.5348V116.418H75.0988C76.6228 116.418 77.3548 116.406 78.3148 116.226L78.2308 115.494C77.3908 115.65 76.7068 115.674 75.4588 115.674V114.57ZM79.4788 112.878H81.2548V115.686H79.4788V112.878ZM78.6388 116.418H82.0948V112.158H78.6388V116.418ZM75.5668 107.802C75.5668 107.07 76.5868 106.638 78.3388 106.638C80.1028 106.638 81.1108 107.07 81.1108 107.802C81.1108 108.534 80.1028 108.954 78.3388 108.954C76.5868 108.954 75.5668 108.534 75.5668 107.802ZM78.8308 110.514V109.686C80.8948 109.602 82.1188 108.942 82.1188 107.802C82.1188 106.578 80.7148 105.894 78.3388 105.894C75.9748 105.894 74.5588 106.578 74.5588 107.802C74.5588 108.93 75.7708 109.59 77.8468 109.686V110.514H73.4788V111.306H83.1988V110.514H78.8308ZM85.1538 106.938V107.73H89.1978C88.9938 110.286 87.5538 112.35 84.6618 113.73L85.1898 114.534C88.7658 112.782 90.1938 110.046 90.1938 106.938H85.1538ZM92.3658 105.774V116.538H93.3498V105.774H92.3658ZM96.1929 106.938V107.73H100.237C100.033 110.286 98.5929 112.35 95.7009 113.73L96.2289 114.534C99.8049 112.782 101.233 110.046 101.233 106.938H96.1929ZM103.405 105.774V116.538H104.389V105.774H103.405Z" fill="black"/>
<rect y="124.8" width="125" height="31.2" fill="white"/>
<path d="M21.5469 142.038C19.9989 141.498 18.9309 140.154 18.9309 138.702V137.514H17.9469V138.63C17.9469 140.238 16.9029 141.666 15.2829 142.242L15.7749 143.034C17.0469 142.566 17.9949 141.594 18.4509 140.37C18.9189 141.486 19.8549 142.374 21.0549 142.818L21.5469 142.038ZM16.6509 144.834H22.6749V147.75H23.6589V144.042H16.6509V144.834ZM25.2549 139.818H23.6589V136.986H22.6749V143.502H23.6589V140.634H25.2549V139.818ZM29.502 139.038H31.422V138.234H26.514V139.038H28.554V140.01C28.554 141.99 27.714 143.946 26.214 144.846L26.814 145.578C27.882 144.906 28.662 143.646 29.034 142.17C29.406 143.538 30.15 144.69 31.194 145.314L31.794 144.594C30.306 143.754 29.502 141.882 29.502 140.01V139.038ZM32.382 140.838H30.606V141.642H32.382V147.174H33.318V137.214H32.382V140.838ZM34.542 136.962V147.726H35.49V136.962H34.542Z" fill="black"/>
<line y1="30.5" x2="125" y2="30.5" stroke="black"/>
<line y1="93.5" x2="125" y2="93.5" stroke="black"/>
</g>
<rect x="0.5" y="0.5" width="124" height="155" rx="11.5" stroke="black"/>
<defs>
<clipPath id="clip0">
</clipPath>
</defs>
</svg>
