<svg width="360" height="218" viewBox="0 0 360 218" fill="none" xmlns="http://www.w3.org/2000/svg">
<rect width="360" height="218" fill="#C4C4C4"/>
<path d="M157.857 108.928C157.857 109.768 157.709 110.504 157.412 111.137C157.115 111.77 156.689 112.258 156.135 112.602C155.584 112.945 154.951 113.117 154.236 113.117C153.529 113.117 152.898 112.947 152.344 112.607C151.789 112.268 151.359 111.783 151.055 111.154C150.75 110.521 150.596 109.795 150.592 108.975V108.553C150.592 107.713 150.742 106.975 151.043 106.338C151.348 105.697 151.775 105.207 152.326 104.867C152.881 104.523 153.514 104.352 154.225 104.352C154.936 104.352 155.566 104.523 156.117 104.867C156.672 105.207 157.1 105.697 157.4 106.338C157.705 106.975 157.857 107.711 157.857 108.547V108.928ZM156.076 108.541C156.076 107.646 155.916 106.967 155.596 106.502C155.275 106.037 154.818 105.805 154.225 105.805C153.635 105.805 153.18 106.035 152.859 106.496C152.539 106.953 152.377 107.625 152.373 108.512V108.928C152.373 109.799 152.533 110.475 152.854 110.955C153.174 111.436 153.635 111.676 154.236 111.676C154.826 111.676 155.279 111.445 155.596 110.984C155.912 110.52 156.072 109.844 156.076 108.957V108.541ZM164.268 109.303H160.893V111.588H164.854V113H159.135V104.469H164.842V105.893H160.893V107.926H164.268V109.303ZM168.182 104.469L170.373 110.656L172.553 104.469H174.861V113H173.098V110.668L173.273 106.643L170.971 113H169.764L167.467 106.648L167.643 110.668V113H165.885V104.469H168.182ZM183.809 110.762C183.809 110.43 183.691 110.176 183.457 110C183.223 109.82 182.801 109.633 182.191 109.438C181.582 109.238 181.1 109.043 180.744 108.852C179.775 108.328 179.291 107.623 179.291 106.736C179.291 106.275 179.42 105.865 179.678 105.506C179.939 105.143 180.312 104.859 180.797 104.656C181.285 104.453 181.832 104.352 182.438 104.352C183.047 104.352 183.59 104.463 184.066 104.686C184.543 104.904 184.912 105.215 185.174 105.617C185.439 106.02 185.572 106.477 185.572 106.988H183.814C183.814 106.598 183.691 106.295 183.445 106.08C183.199 105.861 182.854 105.752 182.408 105.752C181.979 105.752 181.645 105.844 181.406 106.027C181.168 106.207 181.049 106.445 181.049 106.742C181.049 107.02 181.188 107.252 181.465 107.439C181.746 107.627 182.158 107.803 182.701 107.967C183.701 108.268 184.43 108.641 184.887 109.086C185.344 109.531 185.572 110.086 185.572 110.75C185.572 111.488 185.293 112.068 184.734 112.49C184.176 112.908 183.424 113.117 182.479 113.117C181.822 113.117 181.225 112.998 180.686 112.76C180.146 112.518 179.734 112.188 179.449 111.77C179.168 111.352 179.027 110.867 179.027 110.316H180.791C180.791 111.258 181.354 111.729 182.479 111.729C182.896 111.729 183.223 111.645 183.457 111.477C183.691 111.305 183.809 111.066 183.809 110.762ZM188.309 107.352C188.758 106.812 189.322 106.543 190.002 106.543C191.377 106.543 192.074 107.342 192.094 108.939V113H190.4V108.986C190.4 108.623 190.322 108.355 190.166 108.184C190.01 108.008 189.75 107.92 189.387 107.92C188.891 107.92 188.531 108.111 188.309 108.494V113H186.615V104H188.309V107.352ZM197.045 113C196.967 112.848 196.91 112.658 196.875 112.432C196.465 112.889 195.932 113.117 195.275 113.117C194.654 113.117 194.139 112.938 193.729 112.578C193.322 112.219 193.119 111.766 193.119 111.219C193.119 110.547 193.367 110.031 193.863 109.672C194.363 109.312 195.084 109.131 196.025 109.127H196.805V108.764C196.805 108.471 196.729 108.236 196.576 108.061C196.428 107.885 196.191 107.797 195.867 107.797C195.582 107.797 195.357 107.865 195.193 108.002C195.033 108.139 194.953 108.326 194.953 108.564H193.26C193.26 108.197 193.373 107.857 193.6 107.545C193.826 107.232 194.146 106.988 194.561 106.812C194.975 106.633 195.439 106.543 195.955 106.543C196.736 106.543 197.355 106.74 197.812 107.135C198.273 107.525 198.504 108.076 198.504 108.787V111.535C198.508 112.137 198.592 112.592 198.756 112.9V113H197.045ZM195.645 111.822C195.895 111.822 196.125 111.768 196.336 111.658C196.547 111.545 196.703 111.395 196.805 111.207V110.117H196.172C195.324 110.117 194.873 110.41 194.818 110.996L194.812 111.096C194.812 111.307 194.887 111.48 195.035 111.617C195.184 111.754 195.387 111.822 195.645 111.822ZM203.367 108.248C203.137 108.217 202.934 108.201 202.758 108.201C202.117 108.201 201.697 108.418 201.498 108.852V113H199.805V106.66H201.404L201.451 107.416C201.791 106.834 202.262 106.543 202.863 106.543C203.051 106.543 203.227 106.568 203.391 106.619L203.367 108.248ZM206.988 113.117C206.059 113.117 205.301 112.832 204.715 112.262C204.133 111.691 203.842 110.932 203.842 109.982V109.818C203.842 109.182 203.965 108.613 204.211 108.113C204.457 107.609 204.805 107.223 205.254 106.953C205.707 106.68 206.223 106.543 206.801 106.543C207.668 106.543 208.35 106.816 208.846 107.363C209.346 107.91 209.596 108.686 209.596 109.689V110.381H205.559C205.613 110.795 205.777 111.127 206.051 111.377C206.328 111.627 206.678 111.752 207.1 111.752C207.752 111.752 208.262 111.516 208.629 111.043L209.461 111.975C209.207 112.334 208.863 112.615 208.43 112.818C207.996 113.018 207.516 113.117 206.988 113.117ZM206.795 107.914C206.459 107.914 206.186 108.027 205.975 108.254C205.768 108.48 205.635 108.805 205.576 109.227H207.932V109.092C207.924 108.717 207.822 108.428 207.627 108.225C207.432 108.018 207.154 107.914 206.795 107.914Z" fill="black"/>
</svg>
