<svg width="293" height="204" viewBox="0 0 293 204" fill="none" xmlns="http://www.w3.org/2000/svg">
<path d="M274 0H19C8.50659 0 0 8.50659 0 19V185C0 195.493 8.50659 204 19 204H274C284.493 204 293 195.493 293 185V19C293 8.50659 284.493 0 274 0Z" fill="white"/>
<path d="M274 0.5H19C8.78273 0.5 0.5 8.78273 0.5 19V185C0.5 195.217 8.78273 203.5 19 203.5H274C284.217 203.5 292.5 195.217 292.5 185V19C292.5 8.78273 284.217 0.5 274 0.5Z" stroke="#707070"/>
<path d="M135.4 31.376C135.4 29.968 136.456 28.976 137.864 28.976C139.272 28.976 140.328 29.968 140.328 31.376C140.328 32.784 139.272 33.776 137.864 33.776C136.456 33.776 135.4 32.784 135.4 31.376ZM141.608 31.376C141.608 29.296 140.008 27.84 137.864 27.84C135.72 27.84 134.12 29.296 134.12 31.376C134.12 33.456 135.72 34.912 137.864 34.912C140.008 34.912 141.608 33.456 141.608 31.376ZM137.368 36.32H136.056V40.864H145.624V39.792H137.368V36.32ZM144.984 31.2V26.832H143.672V37.392H144.984V32.288H147.096V31.2H144.984ZM150.583 28.576H149.271V37.456H150.183C151.735 37.456 153.383 37.376 155.319 37.008L155.191 35.872C153.479 36.208 151.959 36.304 150.583 36.32V28.576ZM159.479 26.832V32.672H157.447V27.152H156.215V40.448H157.447V33.76H159.479V41.168H160.743V26.832H159.479Z" fill="black"/>
<path d="M110.484 87.3232C109.735 87.1117 109.17 86.7625 108.79 86.2759C108.413 85.7935 108.225 85.1545 108.225 84.3589V83.0957C108.225 82.0674 107.776 81.5532 106.879 81.5532V80.6328C107.776 80.6328 108.225 80.1208 108.225 79.0967V77.7764C108.233 77.002 108.421 76.3778 108.79 75.9038C109.162 75.4256 109.727 75.0786 110.484 74.8628L110.726 75.5928C109.841 75.8763 109.399 76.6147 109.399 77.8081V79.0903C109.399 80.0509 109.046 80.7196 108.339 81.0962C109.046 81.4771 109.399 82.152 109.399 83.1211V84.4287C109.412 85.5924 109.854 86.314 110.726 86.5933L110.484 87.3232ZM114.986 76.537H117.066V75.666H111.749V76.537H113.959V77.59C113.959 79.735 113.049 81.854 111.424 82.829L112.074 83.622C113.231 82.894 114.076 81.529 114.479 79.93C114.882 81.412 115.688 82.66 116.819 83.336L117.469 82.556C115.857 81.646 114.986 79.618 114.986 77.59V76.537ZM118.106 78.487H116.182V79.358H118.106V85.351H119.12V74.561H118.106V78.487ZM120.446 74.288V85.949H121.473V74.288H120.446ZM124.696 83.141H131.703V85.975H132.769V82.283H124.696V83.141ZM125.918 75.627H131.664V77.889H125.918V75.627ZM129.337 80.216V78.734H132.717V74.782H124.878V78.734H128.271V80.216H123.513V81.074H134.069V80.216H129.337ZM134.917 86.5933C135.776 86.3182 136.22 85.6178 136.25 84.4922V83.0957C136.25 82.1182 136.632 81.4517 137.398 81.0962C136.632 80.7492 136.25 80.0827 136.25 79.0967V77.8081C136.25 76.6147 135.807 75.8763 134.923 75.5928L135.164 74.8628C135.913 75.0744 136.476 75.4193 136.853 75.8975C137.229 76.3714 137.42 76.9998 137.424 77.7827V79.1157C137.424 80.1271 137.872 80.6328 138.77 80.6328V81.5532C137.872 81.5532 137.424 82.0674 137.424 83.0957V84.3779C137.424 85.1735 137.231 85.8104 136.846 86.2886C136.465 86.7668 135.905 87.1117 135.164 87.3232L134.917 86.5933ZM150.031 75.614H147.119V74.197H146.053V75.614H143.154V76.472H150.031V75.614ZM144.818 79.111C144.818 78.357 145.52 77.863 146.586 77.863C147.652 77.863 148.367 78.357 148.367 79.111C148.367 79.878 147.652 80.372 146.586 80.372C145.52 80.372 144.818 79.878 144.818 79.111ZM149.381 79.111C149.381 77.863 148.25 77.057 146.586 77.057C144.922 77.057 143.804 77.863 143.804 79.111C143.804 80.372 144.922 81.178 146.586 81.178C148.25 81.178 149.381 80.372 149.381 79.111ZM148.51 85.13C146.807 85.13 145.767 84.688 145.767 83.934C145.767 83.18 146.807 82.738 148.51 82.738C150.213 82.738 151.253 83.18 151.253 83.934C151.253 84.688 150.213 85.13 148.51 85.13ZM148.51 81.919C146.157 81.919 144.714 82.647 144.714 83.934C144.714 85.208 146.157 85.949 148.51 85.949C150.85 85.949 152.306 85.208 152.306 83.934C152.306 82.647 150.85 81.919 148.51 81.919ZM152.163 77.538V74.301H151.097V81.802H152.163V78.422H153.879V77.538H152.163ZM156.244 83.141H163.251V85.975H164.317V82.283H156.244V83.141ZM157.466 75.627H163.212V77.889H157.466V75.627ZM160.885 80.216V78.734H164.265V74.782H156.426V78.734H159.819V80.216H155.061V81.074H165.617V80.216H160.885ZM172.298 75.302C174.209 75.302 175.301 75.744 175.301 76.524C175.301 77.304 174.209 77.746 172.298 77.746C170.387 77.746 169.295 77.304 169.295 76.524C169.295 75.744 170.387 75.302 172.298 75.302ZM172.298 78.539C174.859 78.539 176.393 77.837 176.393 76.524C176.393 75.211 174.859 74.496 172.298 74.496C169.737 74.496 168.203 75.211 168.203 76.524C168.203 77.837 169.737 78.539 172.298 78.539ZM169.373 83.817H176.224V81.191H168.294V81.997H175.171V83.037H168.333V85.832H176.575V85H169.373V83.817ZM167.02 79.332V80.19H177.576V79.332H167.02ZM106.52 94.787C104.843 94.202 103.686 92.746 103.686 91.173V89.886H102.62V91.095C102.62 92.837 101.489 94.384 99.7343 95.008L100.267 95.866C101.645 95.359 102.672 94.306 103.166 92.98C103.673 94.189 104.687 95.151 105.987 95.632L106.52 94.787ZM101.216 97.816H107.742V100.975H108.808V96.958H101.216V97.816ZM110.537 92.382H108.808V89.314H107.742V96.373H108.808V93.266H110.537V92.382ZM115.138 91.537H117.218V90.666H111.901V91.537H114.111V92.59C114.111 94.735 113.201 96.854 111.576 97.829L112.226 98.622C113.383 97.894 114.228 96.529 114.631 94.93C115.034 96.412 115.84 97.66 116.971 98.336L117.621 97.556C116.009 96.646 115.138 94.618 115.138 92.59V91.537ZM118.258 93.487H116.334V94.358H118.258V100.351H119.272V89.561H118.258V93.487ZM120.598 89.288V100.949H121.625V89.288H120.598ZM127.097 97.478C126.044 97.478 125.277 96.724 125.277 95.684C125.277 94.631 126.044 93.877 127.097 93.877C128.163 93.877 128.93 94.631 128.93 95.684C128.93 96.724 128.163 97.478 127.097 97.478ZM127.097 92.993C125.459 92.993 124.276 94.111 124.276 95.684C124.276 97.27 125.459 98.362 127.097 98.362C128.761 98.362 129.944 97.27 129.944 95.684C129.944 94.111 128.761 92.993 127.097 92.993ZM127.617 89.444H126.551V91.173H123.613V92.031H130.49V91.173H127.617V89.444ZM134.572 94.098H132.661V89.314H131.595V100.962H132.661V94.995H134.572V94.098ZM139.771 90.315H138.718V92.408C138.718 94.618 137.301 96.854 135.585 97.673L136.235 98.544C137.6 97.842 138.718 96.386 139.251 94.631C139.81 96.295 140.928 97.673 142.254 98.323L142.891 97.465C141.162 96.685 139.771 94.54 139.771 92.408V90.315ZM144.113 89.301V100.988H145.179V89.301H144.113ZM157.437 89.314H156.41V96.035H157.437V89.314ZM154.096 93.474V95.853H155.097V89.561H154.096V92.616H152.25C152.562 91.875 152.718 91.056 152.718 90.172H148.207V91.03H151.626C151.418 92.993 150.079 94.527 147.7 95.476L148.259 96.269C149.845 95.58 151.054 94.644 151.808 93.474H154.096ZM155.955 96.438H154.915V97.192C154.915 98.089 154.369 99.285 153.264 99.974C152.185 99.337 151.652 98.245 151.652 97.192V96.438H150.625V97.192C150.625 98.336 149.741 99.597 148.272 100.13L148.805 100.91C149.91 100.494 150.703 99.675 151.132 98.739C151.47 99.714 152.159 100.572 153.277 101.014C154.369 100.559 155.071 99.649 155.422 98.7C155.812 99.688 156.618 100.507 157.775 100.91L158.295 100.13C156.826 99.623 155.955 98.401 155.955 97.192V96.438ZM162.675 97.387C161.557 97.387 160.777 96.165 160.777 94.267C160.777 92.382 161.557 91.16 162.675 91.16C163.78 91.16 164.56 92.382 164.56 94.267C164.56 96.165 163.78 97.387 162.675 97.387ZM168.096 89.301V93.747H165.561C165.392 91.563 164.248 90.198 162.675 90.198C160.972 90.198 159.763 91.784 159.763 94.267C159.763 96.75 160.972 98.336 162.675 98.336C164.3 98.336 165.457 96.906 165.561 94.618H168.096V100.988H169.162V89.301H168.096ZM175.167 95.84C175.648 95.957 176.207 96.022 176.779 96.022C177.364 96.022 177.923 95.957 178.417 95.84V98.583H175.167V95.84ZM176.779 90.874C178.651 90.874 180.003 91.732 180.003 93.032C180.003 94.332 178.651 95.19 176.779 95.19C174.907 95.19 173.568 94.332 173.568 93.032C173.568 91.732 174.907 90.874 176.779 90.874ZM179.483 98.583V95.424C180.445 94.917 181.017 94.085 181.017 93.032C181.017 91.212 179.262 90.042 176.779 90.042C174.309 90.042 172.541 91.212 172.541 93.032C172.541 94.085 173.126 94.93 174.101 95.437V98.583H171.501V99.467H182.096V98.583H179.483ZM185.05 97.3975C185.059 96.8939 185.116 96.4961 185.222 96.2041C185.327 95.9121 185.543 95.5884 185.869 95.2329L186.701 94.376C187.056 93.974 187.234 93.5423 187.234 93.0811C187.234 92.6367 187.118 92.2897 186.885 92.04C186.652 91.7861 186.313 91.6592 185.869 91.6592C185.438 91.6592 185.09 91.7734 184.828 92.002C184.566 92.2305 184.435 92.5373 184.435 92.9224H183.26C183.269 92.2368 183.512 91.6846 183.99 91.2656C184.473 90.8424 185.099 90.6309 185.869 90.6309C186.669 90.6309 187.291 90.8467 187.735 91.2783C188.184 91.7057 188.408 92.2939 188.408 93.043C188.408 93.7835 188.065 94.5135 187.38 95.2329L186.688 95.9185C186.379 96.2612 186.225 96.7542 186.225 97.3975H185.05ZM185 99.4097C185 99.2192 185.057 99.0605 185.171 98.9336C185.289 98.8024 185.463 98.7368 185.691 98.7368C185.92 98.7368 186.093 98.8024 186.212 98.9336C186.33 99.0605 186.39 99.2192 186.39 99.4097C186.39 99.6001 186.33 99.7588 186.212 99.8857C186.093 100.008 185.92 100.07 185.691 100.07C185.463 100.07 185.289 100.008 185.171 99.8857C185.057 99.7588 185 99.6001 185 99.4097Z" fill="black"/>
<path d="M125 144H34C31.2386 144 29 146.239 29 149V184C29 186.761 31.2386 189 34 189H125C127.761 189 130 186.761 130 184V149C130 146.239 127.761 144 125 144Z" fill="white"/>
<path d="M125 144.5H34C31.5147 144.5 29.5 146.515 29.5 149V184C29.5 186.485 31.5147 188.5 34 188.5H125C127.485 188.5 129.5 186.485 129.5 184V149C129.5 146.515 127.485 144.5 125 144.5Z" stroke="#707070"/>
<path d="M68.664 166.047C70.029 165.709 71.069 164.929 71.563 163.902C72.07 164.851 73.084 165.553 74.423 165.878L74.852 165.046C73.201 164.669 72.07 163.668 72.07 162.498V162.472H74.644V161.627H72.07V160.327H71.004V161.627H68.443V162.472H71.017V162.498C71.017 163.746 69.886 164.812 68.209 165.202L68.664 166.047ZM75.359 166.476C72.811 166.84 69.886 166.853 67.663 166.853L67.806 167.75C68.781 167.75 69.886 167.737 71.03 167.698V171.624H72.096V167.633C73.201 167.568 74.345 167.451 75.437 167.269L75.359 166.476ZM76.191 160.314V171.975H77.257V160.314H76.191ZM89.71 165.995C87.669 165.631 85.446 163.915 85.446 161.978V161.081H84.328V161.978C84.328 163.915 82.118 165.631 80.077 165.995L80.519 166.879C82.313 166.502 84.133 165.293 84.887 163.629C85.641 165.293 87.474 166.502 89.255 166.879L89.71 165.995ZM85.42 169.57V166.736H84.354V169.57H79.648V170.441H90.23V169.57H85.42Z" fill="black"/>
<path d="M253 144H162C159.239 144 157 146.239 157 149V184C157 186.761 159.239 189 162 189H253C255.761 189 258 186.761 258 184V149C258 146.239 255.761 144 253 144Z" fill="#5D5D5D"/>
<path d="M253 144.5H162C159.515 144.5 157.5 146.515 157.5 149V184C157.5 186.485 159.515 188.5 162 188.5H253C255.485 188.5 257.5 186.485 257.5 184V149C257.5 146.515 255.485 144.5 253 144.5Z" stroke="#707070"/>
<path d="M202.449 165.787C200.772 165.202 199.615 163.746 199.615 162.173V160.886H198.549V162.095C198.549 163.837 197.418 165.384 195.663 166.008L196.196 166.866C197.574 166.359 198.601 165.306 199.095 163.98C199.602 165.189 200.616 166.151 201.916 166.632L202.449 165.787ZM197.145 168.816H203.671V171.975H204.737V167.958H197.145V168.816ZM206.466 163.382H204.737V160.314H203.671V167.373H204.737V164.266H206.466V163.382ZM211.067 162.537H213.147V161.666H207.83V162.537H210.04V163.59C210.04 165.735 209.13 167.854 207.505 168.829L208.155 169.622C209.312 168.894 210.157 167.529 210.56 165.93C210.963 167.412 211.769 168.66 212.9 169.336L213.55 168.556C211.938 167.646 211.067 165.618 211.067 163.59V162.537ZM214.187 164.487H212.263V165.358H214.187V171.351H215.201V160.561H214.187V164.487ZM216.527 160.288V171.949H217.554V160.288H216.527Z" fill="white"/>
</svg>
