<svg width="293" height="204" viewBox="0 0 293 204" fill="none" xmlns="http://www.w3.org/2000/svg">
<path d="M274 0H19C8.50659 0 0 8.50659 0 19V185C0 195.493 8.50659 204 19 204H274C284.493 204 293 195.493 293 185V19C293 8.50659 284.493 0 274 0Z" fill="white"/>
<path d="M274 0.5H19C8.78273 0.5 0.5 8.78273 0.5 19V185C0.5 195.217 8.78273 203.5 19 203.5H274C284.217 203.5 292.5 195.217 292.5 185V19C292.5 8.78273 284.217 0.5 274 0.5Z" stroke="#707070"/>
<path d="M135.4 31.376C135.4 29.968 136.456 28.976 137.864 28.976C139.272 28.976 140.328 29.968 140.328 31.376C140.328 32.784 139.272 33.776 137.864 33.776C136.456 33.776 135.4 32.784 135.4 31.376ZM141.608 31.376C141.608 29.296 140.008 27.84 137.864 27.84C135.72 27.84 134.12 29.296 134.12 31.376C134.12 33.456 135.72 34.912 137.864 34.912C140.008 34.912 141.608 33.456 141.608 31.376ZM137.368 36.32H136.056V40.864H145.624V39.792H137.368V36.32ZM144.984 31.2V26.832H143.672V37.392H144.984V32.288H147.096V31.2H144.984ZM150.583 28.576H149.271V37.456H150.183C151.735 37.456 153.383 37.376 155.319 37.008L155.191 35.872C153.479 36.208 151.959 36.304 150.583 36.32V28.576ZM159.479 26.832V32.672H157.447V27.152H156.215V40.448H157.447V33.76H159.479V41.168H160.743V26.832H159.479Z" fill="black"/>
<path d="M90.9336 87.3232C90.1846 87.1117 89.6196 86.7625 89.2388 86.2759C88.8621 85.7935 88.6738 85.1545 88.6738 84.3589V83.0957C88.6738 82.0674 88.2253 81.5532 87.3281 81.5532V80.6328C88.2253 80.6328 88.6738 80.1208 88.6738 79.0967V77.7764C88.6823 77.002 88.8706 76.3778 89.2388 75.9038C89.6112 75.4256 90.1761 75.0786 90.9336 74.8628L91.1748 75.5928C90.2904 75.8763 89.8481 76.6147 89.8481 77.8081V79.0903C89.8481 80.0509 89.4948 80.7196 88.7881 81.0962C89.4948 81.4771 89.8481 82.152 89.8481 83.1211V84.4287C89.8608 85.5924 90.3031 86.314 91.1748 86.5933L90.9336 87.3232ZM98.5681 77.408V78.279H100.531V79.852H98.5681V80.723H100.531V83.193H101.61V74.314H100.531V77.408H98.5681ZM98.5681 75.731H95.8901V74.288H94.8241V75.731H92.0421V76.589H98.5681V75.731ZM93.7191 79.449C93.7191 78.63 94.3821 78.071 95.3441 78.071C96.3061 78.071 96.9691 78.63 96.9691 79.449C96.9691 80.281 96.3061 80.853 95.3441 80.853C94.3821 80.853 93.7191 80.281 93.7191 79.449ZM97.9831 79.449C97.9831 78.123 96.8911 77.239 95.3441 77.239C93.7971 77.239 92.7051 78.123 92.7051 79.449C92.7051 80.788 93.7971 81.685 95.3441 81.685C96.8911 81.685 97.9831 80.788 97.9831 79.449ZM95.1881 84.831V82.439H94.1221V85.702H101.883V84.831H95.1881ZM107.42 76.55H109.539V75.679H104.131V76.55H106.393V77.46C106.393 79.826 105.522 81.815 103.858 82.751L104.508 83.557C105.717 82.855 106.536 81.594 106.926 80.008C107.342 81.386 108.148 82.517 109.292 83.154L109.916 82.335C108.265 81.477 107.42 79.592 107.42 77.46V76.55ZM112.893 74.288V79.007H111.359V74.561H110.358V85.39H111.359V79.891H112.893V85.962H113.92V74.288H112.893ZM120.329 83.141H127.336V85.975H128.402V82.283H120.329V83.141ZM121.551 75.627H127.297V77.889H121.551V75.627ZM124.97 80.216V78.734H128.35V74.782H120.511V78.734H123.904V80.216H119.146V81.074H129.702V80.216H124.97ZM132.288 83.349H139.334V85.858H140.4V82.478H132.288V83.349ZM136.942 80.71V79.488H140.582V78.656H133.523V77.434H140.335V74.6H132.444V75.432H139.282V76.641H132.47V79.488H135.863V80.71H131.105V81.581H141.687V80.71H136.942ZM147.887 79.514H144.663V76.043H147.887V79.514ZM151.605 77.057V78.5H148.927V77.057H151.605ZM148.927 79.358H151.605V81.204H152.684V74.314H151.605V76.199H148.927V75.185H143.61V80.359H148.927V79.358ZM148.823 85.117C147.081 85.117 146.015 84.61 146.015 83.752C146.015 82.894 147.081 82.387 148.823 82.387C150.591 82.387 151.657 82.894 151.657 83.752C151.657 84.61 150.591 85.117 148.823 85.117ZM148.823 81.555C146.431 81.555 144.949 82.348 144.949 83.752C144.949 85.143 146.431 85.949 148.823 85.949C151.228 85.949 152.723 85.143 152.723 83.752C152.723 82.348 151.228 81.555 148.823 81.555ZM154.467 86.5933C155.326 86.3182 155.771 85.6178 155.8 84.4922V83.0957C155.8 82.1182 156.183 81.4517 156.949 81.0962C156.183 80.7492 155.8 80.0827 155.8 79.0967V77.8081C155.8 76.6147 155.358 75.8763 154.474 75.5928L154.715 74.8628C155.464 75.0744 156.027 75.4193 156.403 75.8975C156.78 76.3714 156.97 76.9998 156.975 77.7827V79.1157C156.975 80.1271 157.423 80.6328 158.32 80.6328V81.5532C157.423 81.5532 156.975 82.0674 156.975 83.0957V84.3779C156.975 85.1735 156.782 85.8104 156.397 86.2886C156.016 86.7668 155.455 87.1117 154.715 87.3232L154.467 86.5933ZM163.836 83.141H170.843V85.975H171.909V82.283H163.836V83.141ZM165.058 75.627H170.804V77.889H165.058V75.627ZM168.477 80.216V78.734H171.857V74.782H164.018V78.734H167.411V80.216H162.653V81.074H173.209V80.216H168.477ZM175.795 83.349H182.841V85.858H183.907V82.478H175.795V83.349ZM180.449 80.71V79.488H184.089V78.656H177.03V77.434H183.842V74.6H175.951V75.432H182.789V76.641H175.977V79.488H179.37V80.71H174.612V81.581H185.194V80.71H180.449ZM191.849 75.302C193.76 75.302 194.852 75.744 194.852 76.524C194.852 77.304 193.76 77.746 191.849 77.746C189.938 77.746 188.846 77.304 188.846 76.524C188.846 75.744 189.938 75.302 191.849 75.302ZM191.849 78.539C194.41 78.539 195.944 77.837 195.944 76.524C195.944 75.211 194.41 74.496 191.849 74.496C189.288 74.496 187.754 75.211 187.754 76.524C187.754 77.837 189.288 78.539 191.849 78.539ZM188.924 83.817H195.775V81.191H187.845V81.997H194.722V83.037H187.884V85.832H196.126V85H188.924V83.817ZM186.571 79.332V80.19H197.127V79.332H186.571ZM106.52 94.787C104.843 94.202 103.686 92.746 103.686 91.173V89.886H102.62V91.095C102.62 92.837 101.489 94.384 99.7343 95.008L100.267 95.866C101.645 95.359 102.672 94.306 103.166 92.98C103.673 94.189 104.687 95.151 105.987 95.632L106.52 94.787ZM101.216 97.816H107.742V100.975H108.808V96.958H101.216V97.816ZM110.537 92.382H108.808V89.314H107.742V96.373H108.808V93.266H110.537V92.382ZM115.138 91.537H117.218V90.666H111.901V91.537H114.111V92.59C114.111 94.735 113.201 96.854 111.576 97.829L112.226 98.622C113.383 97.894 114.228 96.529 114.631 94.93C115.034 96.412 115.84 97.66 116.971 98.336L117.621 97.556C116.009 96.646 115.138 94.618 115.138 92.59V91.537ZM118.258 93.487H116.334V94.358H118.258V100.351H119.272V89.561H118.258V93.487ZM120.598 89.288V100.949H121.625V89.288H120.598ZM127.097 97.478C126.044 97.478 125.277 96.724 125.277 95.684C125.277 94.631 126.044 93.877 127.097 93.877C128.163 93.877 128.93 94.631 128.93 95.684C128.93 96.724 128.163 97.478 127.097 97.478ZM127.097 92.993C125.459 92.993 124.276 94.111 124.276 95.684C124.276 97.27 125.459 98.362 127.097 98.362C128.761 98.362 129.944 97.27 129.944 95.684C129.944 94.111 128.761 92.993 127.097 92.993ZM127.617 89.444H126.551V91.173H123.613V92.031H130.49V91.173H127.617V89.444ZM134.572 94.098H132.661V89.314H131.595V100.962H132.661V94.995H134.572V94.098ZM139.771 90.315H138.718V92.408C138.718 94.618 137.301 96.854 135.585 97.673L136.235 98.544C137.6 97.842 138.718 96.386 139.251 94.631C139.81 96.295 140.928 97.673 142.254 98.323L142.891 97.465C141.162 96.685 139.771 94.54 139.771 92.408V90.315ZM144.113 89.301V100.988H145.179V89.301H144.113ZM157.437 89.314H156.41V96.035H157.437V89.314ZM154.096 93.474V95.853H155.097V89.561H154.096V92.616H152.25C152.562 91.875 152.718 91.056 152.718 90.172H148.207V91.03H151.626C151.418 92.993 150.079 94.527 147.7 95.476L148.259 96.269C149.845 95.58 151.054 94.644 151.808 93.474H154.096ZM155.955 96.438H154.915V97.192C154.915 98.089 154.369 99.285 153.264 99.974C152.185 99.337 151.652 98.245 151.652 97.192V96.438H150.625V97.192C150.625 98.336 149.741 99.597 148.272 100.13L148.805 100.91C149.91 100.494 150.703 99.675 151.132 98.739C151.47 99.714 152.159 100.572 153.277 101.014C154.369 100.559 155.071 99.649 155.422 98.7C155.812 99.688 156.618 100.507 157.775 100.91L158.295 100.13C156.826 99.623 155.955 98.401 155.955 97.192V96.438ZM162.675 97.387C161.557 97.387 160.777 96.165 160.777 94.267C160.777 92.382 161.557 91.16 162.675 91.16C163.78 91.16 164.56 92.382 164.56 94.267C164.56 96.165 163.78 97.387 162.675 97.387ZM168.096 89.301V93.747H165.561C165.392 91.563 164.248 90.198 162.675 90.198C160.972 90.198 159.763 91.784 159.763 94.267C159.763 96.75 160.972 98.336 162.675 98.336C164.3 98.336 165.457 96.906 165.561 94.618H168.096V100.988H169.162V89.301H168.096ZM175.167 95.84C175.648 95.957 176.207 96.022 176.779 96.022C177.364 96.022 177.923 95.957 178.417 95.84V98.583H175.167V95.84ZM176.779 90.874C178.651 90.874 180.003 91.732 180.003 93.032C180.003 94.332 178.651 95.19 176.779 95.19C174.907 95.19 173.568 94.332 173.568 93.032C173.568 91.732 174.907 90.874 176.779 90.874ZM179.483 98.583V95.424C180.445 94.917 181.017 94.085 181.017 93.032C181.017 91.212 179.262 90.042 176.779 90.042C174.309 90.042 172.541 91.212 172.541 93.032C172.541 94.085 173.126 94.93 174.101 95.437V98.583H171.501V99.467H182.096V98.583H179.483ZM185.05 97.3975C185.059 96.8939 185.116 96.4961 185.222 96.2041C185.327 95.9121 185.543 95.5884 185.869 95.2329L186.701 94.376C187.056 93.974 187.234 93.5423 187.234 93.0811C187.234 92.6367 187.118 92.2897 186.885 92.04C186.652 91.7861 186.313 91.6592 185.869 91.6592C185.438 91.6592 185.09 91.7734 184.828 92.002C184.566 92.2305 184.435 92.5373 184.435 92.9224H183.26C183.269 92.2368 183.512 91.6846 183.99 91.2656C184.473 90.8424 185.099 90.6309 185.869 90.6309C186.669 90.6309 187.291 90.8467 187.735 91.2783C188.184 91.7057 188.408 92.2939 188.408 93.043C188.408 93.7835 188.065 94.5135 187.38 95.2329L186.688 95.9185C186.379 96.2612 186.225 96.7542 186.225 97.3975H185.05ZM185 99.4097C185 99.2192 185.057 99.0605 185.171 98.9336C185.289 98.8024 185.463 98.7368 185.691 98.7368C185.92 98.7368 186.093 98.8024 186.212 98.9336C186.33 99.0605 186.39 99.2192 186.39 99.4097C186.39 99.6001 186.33 99.7588 186.212 99.8857C186.093 100.008 185.92 100.07 185.691 100.07C185.463 100.07 185.289 100.008 185.171 99.8857C185.057 99.7588 185 99.6001 185 99.4097Z" fill="black"/>
<path d="M125 144H34C31.2386 144 29 146.239 29 149V184C29 186.761 31.2386 189 34 189H125C127.761 189 130 186.761 130 184V149C130 146.239 127.761 144 125 144Z" fill="white"/>
<path d="M125 144.5H34C31.5147 144.5 29.5 146.515 29.5 149V184C29.5 186.485 31.5147 188.5 34 188.5H125C127.485 188.5 129.5 186.485 129.5 184V149C129.5 146.515 127.485 144.5 125 144.5Z" stroke="#707070"/>
<path d="M68.664 166.047C70.029 165.709 71.069 164.929 71.563 163.902C72.07 164.851 73.084 165.553 74.423 165.878L74.852 165.046C73.201 164.669 72.07 163.668 72.07 162.498V162.472H74.644V161.627H72.07V160.327H71.004V161.627H68.443V162.472H71.017V162.498C71.017 163.746 69.886 164.812 68.209 165.202L68.664 166.047ZM75.359 166.476C72.811 166.84 69.886 166.853 67.663 166.853L67.806 167.75C68.781 167.75 69.886 167.737 71.03 167.698V171.624H72.096V167.633C73.201 167.568 74.345 167.451 75.437 167.269L75.359 166.476ZM76.191 160.314V171.975H77.257V160.314H76.191ZM89.71 165.995C87.669 165.631 85.446 163.915 85.446 161.978V161.081H84.328V161.978C84.328 163.915 82.118 165.631 80.077 165.995L80.519 166.879C82.313 166.502 84.133 165.293 84.887 163.629C85.641 165.293 87.474 166.502 89.255 166.879L89.71 165.995ZM85.42 169.57V166.736H84.354V169.57H79.648V170.441H90.23V169.57H85.42Z" fill="black"/>
<path d="M253 144H162C159.239 144 157 146.239 157 149V184C157 186.761 159.239 189 162 189H253C255.761 189 258 186.761 258 184V149C258 146.239 255.761 144 253 144Z" fill="#5D5D5D"/>
<path d="M253 144.5H162C159.515 144.5 157.5 146.515 157.5 149V184C157.5 186.485 159.515 188.5 162 188.5H253C255.485 188.5 257.5 186.485 257.5 184V149C257.5 146.515 255.485 144.5 253 144.5Z" stroke="#707070"/>
<path d="M202.449 165.787C200.772 165.202 199.615 163.746 199.615 162.173V160.886H198.549V162.095C198.549 163.837 197.418 165.384 195.663 166.008L196.196 166.866C197.574 166.359 198.601 165.306 199.095 163.98C199.602 165.189 200.616 166.151 201.916 166.632L202.449 165.787ZM197.145 168.816H203.671V171.975H204.737V167.958H197.145V168.816ZM206.466 163.382H204.737V160.314H203.671V167.373H204.737V164.266H206.466V163.382ZM211.067 162.537H213.147V161.666H207.83V162.537H210.04V163.59C210.04 165.735 209.13 167.854 207.505 168.829L208.155 169.622C209.312 168.894 210.157 167.529 210.56 165.93C210.963 167.412 211.769 168.66 212.9 169.336L213.55 168.556C211.938 167.646 211.067 165.618 211.067 163.59V162.537ZM214.187 164.487H212.263V165.358H214.187V171.351H215.201V160.561H214.187V164.487ZM216.527 160.288V171.949H217.554V160.288H216.527Z" fill="white"/>
</svg>
