<svg width="360" height="450" viewBox="0 0 360 450" fill="none" xmlns="http://www.w3.org/2000/svg">
<path d="M12 0.5H348C354.351 0.5 359.5 5.64873 359.5 12V449.5H0.5V12C0.5 5.64872 5.64873 0.5 12 0.5Z" fill="white"/>
<rect y="18" width="360" height="48" fill="white"/>
<path d="M22.16 46.224H30.288V49.392H32.4V44.544H22.16V46.224ZM24.4 36.864H30.24V38.768H24.4V36.864ZM28.384 41.808V40.432H32.32V35.216H22.32V40.432H26.272V41.808H20.688V43.488H34V41.808H28.384ZM36.8788 46.704H45.1028V49.328H47.2148V45.04H36.8788V46.704ZM43.1348 42.528V41.472H47.4228V39.872H39.1508V38.912H47.1188V34.928H37.0388V36.528H45.0388V37.424H37.0707V41.472H41.0228V42.528H35.4068V44.208H48.7508V42.528H43.1348ZM64.3179 45.52H66.4299V34.64H64.3179V37.776H61.6139V39.488H64.3179V45.52ZM62.9099 41.744C60.6059 40.928 59.6139 39.056 59.6139 37.136V35.536H57.4699V37.12C57.4699 39.216 56.4459 41.264 54.0139 42.08L55.1179 43.728C56.8299 43.104 57.9659 41.904 58.5899 40.384C59.1979 41.744 60.2539 42.816 61.7899 43.376L62.9099 41.744ZM58.8139 47.44V44.432H56.7019V49.12H66.7499V47.44H58.8139ZM75.4526 41.056C74.1086 41.264 72.9406 41.344 71.3566 41.36V40.112H74.9726V38.512H71.3566V37.296H75.1166V35.632H69.3246V43.056H70.3486C72.5406 43.056 73.9646 43.008 75.6446 42.736L75.4526 41.056ZM71.2446 45.952H79.2766V49.392H81.3886V44.272H71.2446V45.952ZM79.3886 34.64V38.256H78.2046V34.896H76.2366V43.536H78.2046V39.936H79.3886V43.632H81.3886V34.64H79.3886Z" fill="black"/>
<rect y="66" width="360" height="48" fill="white"/>
<rect x="12" y="74" width="336" height="32" rx="16" fill="#C4C4C4"/>
<path d="M33.16 85.588C33.16 86.428 33.16 87.22 32.872 88.324L33.832 88.432C34.132 87.328 34.132 86.452 34.132 85.588V84.676H26.8V85.468H33.16V85.588ZM30.46 94.108C28.78 94.108 27.7 93.652 27.7 92.908C27.7 92.14 28.78 91.684 30.46 91.684C32.152 91.684 33.232 92.14 33.232 92.908C33.232 93.652 32.152 94.108 30.46 94.108ZM30.46 90.928C28.168 90.928 26.716 91.66 26.716 92.908C26.716 94.132 28.168 94.876 30.46 94.876C32.752 94.876 34.216 94.132 34.216 92.908C34.216 91.66 32.752 90.928 30.46 90.928ZM30.616 89.14V87.076H29.632V89.14H25.66V89.932H35.344V89.14H30.616ZM41.5351 94.132C39.8071 94.132 38.8351 93.796 38.8351 93.148C38.8351 92.512 39.8071 92.164 41.5351 92.164C43.2751 92.164 44.2351 92.512 44.2351 93.148C44.2351 93.796 43.2751 94.132 41.5351 94.132ZM41.5351 91.432C39.1951 91.432 37.8511 92.032 37.8511 93.148C37.8511 94.276 39.1951 94.876 41.5351 94.876C43.8751 94.876 45.2191 94.276 45.2191 93.148C45.2191 92.032 43.8751 91.432 41.5351 91.432ZM42.0271 89.824V88.768H45.2671V88H38.9311V86.944H44.9191V86.2H38.9311V85.204H45.2071V84.436H37.9471V88.768H41.0431V89.824H36.6631V90.616H46.4071V89.824H42.0271ZM56.7051 86.3945H53.9629V94H52.8438V86.3945H50.1074V85.4688H56.7051V86.3945ZM56.9277 90.7715C56.9277 90.1504 57.0488 89.5918 57.291 89.0957C57.5371 88.5996 57.877 88.2168 58.3105 87.9473C58.748 87.6777 59.2461 87.543 59.8047 87.543C60.668 87.543 61.3652 87.8418 61.8965 88.4395C62.4316 89.0371 62.6992 89.832 62.6992 90.8242V90.9004C62.6992 91.5176 62.5801 92.0723 62.3418 92.5645C62.1074 93.0527 61.7695 93.4336 61.3281 93.707C60.8906 93.9805 60.3867 94.1172 59.8164 94.1172C58.957 94.1172 58.2598 93.8184 57.7246 93.2207C57.1934 92.623 56.9277 91.832 56.9277 90.8477V90.7715ZM58.0176 90.9004C58.0176 91.6035 58.1797 92.168 58.5039 92.5938C58.832 93.0195 59.2695 93.2324 59.8164 93.2324C60.3672 93.2324 60.8047 93.0176 61.1289 92.5879C61.4531 92.1543 61.6152 91.5488 61.6152 90.7715C61.6152 90.0762 61.4492 89.5137 61.1172 89.084C60.7891 88.6504 60.3516 88.4336 59.8047 88.4336C59.2695 88.4336 58.8379 88.6465 58.5098 89.0723C58.1816 89.498 58.0176 90.1074 58.0176 90.9004ZM63.7949 90.7773C63.7949 89.8047 64.0254 89.0234 64.4863 88.4336C64.9473 87.8398 65.5508 87.543 66.2969 87.543C67.0391 87.543 67.627 87.7969 68.0605 88.3047V85H69.1445V94H68.1484L68.0957 93.3203C67.6621 93.8516 67.0586 94.1172 66.2852 94.1172C65.5508 94.1172 64.9512 93.8164 64.4863 93.2148C64.0254 92.6133 63.7949 91.8281 63.7949 90.8594V90.7773ZM64.8789 90.9004C64.8789 91.6191 65.0273 92.1816 65.3242 92.5879C65.6211 92.9941 66.0312 93.1973 66.5547 93.1973C67.2422 93.1973 67.7441 92.8887 68.0605 92.2715V89.3594C67.7363 88.7617 67.2383 88.4629 66.5664 88.4629C66.0352 88.4629 65.6211 88.668 65.3242 89.0781C65.0273 89.4883 64.8789 90.0957 64.8789 90.9004ZM70.5449 90.7715C70.5449 90.1504 70.666 89.5918 70.9082 89.0957C71.1543 88.5996 71.4941 88.2168 71.9277 87.9473C72.3652 87.6777 72.8633 87.543 73.4219 87.543C74.2852 87.543 74.9824 87.8418 75.5137 88.4395C76.0488 89.0371 76.3164 89.832 76.3164 90.8242V90.9004C76.3164 91.5176 76.1973 92.0723 75.959 92.5645C75.7246 93.0527 75.3867 93.4336 74.9453 93.707C74.5078 93.9805 74.0039 94.1172 73.4336 94.1172C72.5742 94.1172 71.877 93.8184 71.3418 93.2207C70.8105 92.623 70.5449 91.832 70.5449 90.8477V90.7715ZM71.6348 90.9004C71.6348 91.6035 71.7969 92.168 72.1211 92.5938C72.4492 93.0195 72.8867 93.2324 73.4336 93.2324C73.9844 93.2324 74.4219 93.0176 74.7461 92.5879C75.0703 92.1543 75.2324 91.5488 75.2324 90.7715C75.2324 90.0762 75.0664 89.5137 74.7344 89.084C74.4062 88.6504 73.9688 88.4336 73.4219 88.4336C72.8867 88.4336 72.4551 88.6465 72.127 89.0723C71.7988 89.498 71.6348 90.1074 71.6348 90.9004Z" fill="black"/>
<rect y="114" width="360" height="48" fill="white"/>
<path d="M34.468 132.124H33.484V140.02H34.468V132.124ZM32.116 137.488C30.52 136.9 29.428 135.436 29.428 133.816V132.724H28.444V133.816C28.444 135.496 27.364 137.056 25.744 137.68L26.26 138.484C27.52 137.956 28.492 136.912 28.948 135.604C29.428 136.828 30.376 137.8 31.6 138.268L32.116 137.488ZM28.528 141.844V139.288H27.544V142.648H34.792V141.844H28.528ZM46.4071 137.512H44.7511C45.0751 135.808 45.0751 134.584 45.0751 133.612V132.808H37.9111V133.624H44.1031C44.1031 134.584 44.1031 135.808 43.7671 137.512H36.6871V138.316H39.1831V142.876H40.1671V138.316H42.8671V142.876H43.8391V138.316H46.4071V137.512ZM53.9061 137.74H51.2301V133.996H53.9061V137.74ZM50.2461 137.74H48.6021V138.544H56.5341V137.74H54.8901V133.996H56.5581V133.204H48.5781V133.996H50.2461V137.74ZM47.7141 140.692V141.508H57.4701V140.692H47.7141ZM64.1172 140.752V138.724H67.5612V137.932H60.9372V136.192H67.3092V132.916H59.9412V133.72H66.3492V135.4H59.9652V138.724H63.1212V140.752H58.7412V141.556H68.5212V140.752H64.1172ZM74.2323 134.896V135.7H75.8523V138.628H76.7883V132.364H75.8523V134.896H74.2323ZM75.0723 137.44C73.7283 136.864 72.9723 135.592 72.9723 134.404V133.804H74.8203V133H70.0443V133.804H72.0243V134.416C72.0243 135.7 71.2323 137.092 69.8403 137.692L70.3563 138.448C71.4003 137.98 72.1443 137.092 72.5163 136.048C72.8883 136.984 73.5963 137.764 74.5803 138.196L75.0723 137.44ZM71.6403 139.984H77.8923V142.9H78.8763V139.192H71.6403V139.984ZM77.9283 132.136V138.712H78.8763V132.136H77.9283ZM89.4713 137.932H83.0753V136.228H89.1233V135.448H83.0753V133.852H89.3633V133.06H82.0793V138.724H89.4713V137.932ZM80.8193 140.692V141.496H90.5873V140.692H80.8193Z" fill="black"/>
<rect y="162" width="360" height="48" fill="white"/>
<path d="M31 188.752V186.724H34.444V185.932H27.82V184.192H34.192V180.916H26.824V181.72H33.232V183.4H26.848V186.724H30.004V188.752H25.624V189.556H35.404V188.752H31ZM39.8311 182.188H41.7511V181.384H36.8431V182.188H38.8831V183.16C38.8831 185.14 38.0431 187.096 36.5431 187.996L37.1431 188.728C38.2111 188.056 38.9911 186.796 39.3631 185.32C39.7351 186.688 40.4791 187.84 41.5231 188.464L42.1231 187.744C40.6351 186.904 39.8311 185.032 39.8311 183.16V182.188ZM42.7111 183.988H40.9351V184.792H42.7111V190.324H43.6471V180.364H42.7111V183.988ZM44.8711 180.112V190.876H45.8191V180.112H44.8711ZM49.1661 184.912H52.9581V184.12H49.1661V181.9H53.1981V181.096H48.1821V188.296H49.0221C51.0501 188.296 52.4421 188.224 54.0981 187.936L54.0021 187.144C52.4181 187.408 51.0741 187.492 49.1661 187.492V184.912ZM57.7701 184.444H55.9941V180.124H55.0101V190.876H55.9941V185.272H57.7701V184.444Z" fill="black"/>
<rect y="210" width="360" height="48" fill="white"/>
<path d="M27.028 229.996H30.04V235.36H27.028V229.996ZM26.068 236.152H31V229.204H26.068V236.152ZM35.692 232.42H33.916V228.136H32.932V238.888H33.916V233.248H35.692V232.42ZM42.6511 232.372H40.9591C41.2591 231.424 41.3791 230.404 41.3791 229.396H37.2631V230.188H40.4311C40.3951 230.776 40.3111 231.34 40.1551 231.904L36.7351 232.132L36.8671 232.972L39.8911 232.672C39.3631 233.932 38.3791 235.06 36.7351 235.948L37.2991 236.656C39.0151 235.696 40.0591 234.496 40.6591 233.176H42.6511V238.336H43.5751V228.4H42.6511V232.372ZM44.8831 228.112V238.876H45.8191V228.112H44.8831ZM56.5461 228.136H55.5621V234.796H56.5461V228.136ZM54.3261 232.936C52.8261 233.188 51.5541 233.236 49.3101 233.236V231.832H53.1621V231.052H49.3101V229.708H53.4621V228.916H48.3261V234.028H49.2021C51.5541 234.028 52.8621 233.98 54.4341 233.716L54.3261 232.936ZM52.9701 238.108C51.3381 238.108 50.3421 237.664 50.3421 236.92C50.3421 236.152 51.3381 235.72 52.9701 235.72C54.6141 235.72 55.6101 236.152 55.6101 236.92C55.6101 237.664 54.6141 238.108 52.9701 238.108ZM52.9701 234.952C50.7381 234.952 49.3701 235.66 49.3701 236.92C49.3701 238.168 50.7381 238.876 52.9701 238.876C55.2141 238.876 56.5821 238.168 56.5821 236.92C56.5821 235.66 55.2141 234.952 52.9701 234.952Z" fill="black"/>
<rect y="258" width="360" height="48" fill="white"/>
<path d="M34.468 276.136H33.484V284.008H34.468V276.136ZM32.212 281.692C30.628 281.164 29.512 279.856 29.512 278.404V277.816H31.948V277.024H26.044V277.816H28.504V278.404C28.504 279.94 27.412 281.344 25.78 281.908L26.296 282.676C27.568 282.22 28.564 281.248 29.02 280.024C29.512 281.152 30.496 282.04 31.732 282.472L32.212 281.692ZM28.528 285.844V283.264H27.544V286.648H34.792V285.844H28.528ZM43.4431 279.856H44.8111V282.94H45.7591V276.124H44.8111V279.052H43.4431V276.328H42.5071V282.544H43.4431V279.856ZM42.0751 277.408H39.8431V276.208H38.8711V277.408H36.6151V278.188H42.0871L42.0751 277.408ZM37.9471 280.588C37.9471 279.928 38.5111 279.484 39.3631 279.484C40.2031 279.484 40.7791 279.928 40.7791 280.588C40.7791 281.26 40.2031 281.704 39.3631 281.704C38.5111 281.704 37.9471 281.26 37.9471 280.588ZM41.6551 280.588C41.6551 279.484 40.7191 278.752 39.3631 278.752C38.0071 278.752 37.0591 279.484 37.0591 280.588C37.0591 281.716 38.0071 282.436 39.3631 282.436C40.7191 282.436 41.6551 281.716 41.6551 280.588ZM42.2191 286.12C40.5751 286.12 39.5911 285.712 39.5911 285.004C39.5911 284.284 40.5751 283.876 42.2191 283.876C43.8511 283.876 44.8351 284.284 44.8351 285.004C44.8351 285.712 43.8511 286.12 42.2191 286.12ZM42.2191 283.12C39.9751 283.12 38.6191 283.792 38.6191 285.004C38.6191 286.204 39.9751 286.876 42.2191 286.876C44.4631 286.876 45.8191 286.204 45.8191 285.004C45.8191 283.792 44.4631 283.12 42.2191 283.12ZM48.6141 280.516C50.3781 280.3 51.9981 279.508 52.5861 278.32C53.1861 279.508 54.7941 280.3 56.5581 280.516L56.9061 279.736C55.0221 279.52 53.3061 278.596 53.2221 277.408H56.5701V276.616H48.6141V277.408H51.9501C51.8661 278.596 50.1501 279.52 48.2661 279.736L48.6141 280.516ZM55.2621 284.98C55.2621 285.7 54.2541 286.12 52.5741 286.12C50.8821 286.12 49.8861 285.7 49.8861 284.98C49.8861 284.26 50.8821 283.852 52.5741 283.852C54.2541 283.852 55.2621 284.26 55.2621 284.98ZM57.4461 281.956V281.164H47.7141V281.956H52.0821V283.108C50.0781 283.204 48.8901 283.864 48.8901 284.98C48.8901 286.204 50.2821 286.876 52.5861 286.876C54.8781 286.876 56.2581 286.204 56.2581 284.98C56.2581 283.864 55.0821 283.204 53.0781 283.108V281.956H57.4461Z" fill="black"/>
<rect y="306" width="360" height="48" fill="white"/>
<path d="M27.16 326.74C27.16 325.924 27.868 325.372 28.9 325.372C29.908 325.372 30.628 325.924 30.628 326.74C30.628 327.568 29.908 328.108 28.9 328.108C27.868 328.108 27.16 327.568 27.16 326.74ZM32.332 329.608C31.396 329.752 30.4 329.824 29.404 329.884V328.828C30.688 328.672 31.552 327.88 31.552 326.74C31.552 325.48 30.46 324.628 28.9 324.628C27.328 324.628 26.248 325.48 26.248 326.74C26.248 327.892 27.112 328.684 28.42 328.84V329.92C27.412 329.956 26.452 329.968 25.624 329.968L25.756 330.772C27.592 330.772 30.148 330.736 32.392 330.328L32.332 329.608ZM28.156 331.672H27.172V334.636H34.36V333.832H28.156V331.672ZM33.976 327.772V324.136H32.992V332.368H33.976V328.588H35.548V327.772H33.976ZM40.3711 330.712H42.8311V332.752H40.3711V330.712ZM43.8031 332.752V330.712H45.4831V329.908H38.8591V328.18H45.2311V324.916H37.8631V325.72H44.2711V327.388H37.8871V330.712H39.3991V332.752H36.6631V333.556H46.4431V332.752H43.8031Z" fill="black"/>
<rect x="0.5" y="354.5" width="359" height="47" fill="white" stroke="black"/>
<path d="M28.504 379.588C27.46 379.588 26.728 378.46 26.728 376.708C26.728 374.968 27.46 373.84 28.504 373.84C29.536 373.84 30.268 374.968 30.268 376.708C30.268 378.46 29.536 379.588 28.504 379.588ZM28.504 372.952C26.92 372.952 25.792 374.416 25.792 376.708C25.792 379 26.92 380.464 28.504 380.464C30.088 380.464 31.204 379 31.204 376.708C31.204 374.416 30.088 372.952 28.504 372.952ZM35.692 376.42H33.916V372.136H32.932V382.888H33.916V377.248H35.692V376.42ZM37.3591 373.24V374.044H41.2351C41.1991 374.704 41.0911 375.328 40.9111 375.928L36.8191 376.204L36.9871 377.068L40.6111 376.72C39.9511 378.16 38.7631 379.384 36.7711 380.368L37.3111 381.124C41.1631 379.204 42.2191 376.36 42.2191 373.24H37.3591ZM46.6831 376.492H44.9551V372.124H43.9711V382.888H44.9551V377.308H46.6831V376.492ZM55.5381 372.124V382.912H56.5221V372.124H55.5381ZM50.8461 372.952C49.2501 372.952 48.1101 374.416 48.1101 376.708C48.1101 379 49.2501 380.464 50.8461 380.464C52.4421 380.464 53.5821 379 53.5821 376.708C53.5821 374.416 52.4421 372.952 50.8461 372.952ZM50.8461 373.84C51.8901 373.84 52.6341 374.968 52.6341 376.708C52.6341 378.46 51.8901 379.588 50.8461 379.588C49.7901 379.588 49.0461 378.46 49.0461 376.708C49.0461 374.968 49.7901 373.84 50.8461 373.84ZM58.7532 380.644V381.46H68.5092V380.644H58.7532ZM59.9052 372.904V378.508H67.3332V372.904H66.3732V374.872H60.8772V372.904H59.9052ZM60.8772 375.664H66.3732V377.704H60.8772V375.664ZM74.8928 375.616H80.3888V377.596H74.8928V375.616ZM78.1328 380.704V378.388H81.3488V372.892H80.3888V374.812H74.8928V372.892H73.9208V378.388H77.1368V380.704H72.7688V381.508H82.5248V380.704H78.1328ZM84.4439 373.288V374.08H88.4879C88.2839 376.636 86.8439 378.7 83.9519 380.08L84.4799 380.884C88.0559 379.132 89.4839 376.396 89.4839 373.288H84.4439ZM91.6559 372.124V382.888H92.6399V372.124H91.6559Z" fill="black"/>
<rect x="0.5" y="402.5" width="359" height="47" fill="white" stroke="black"/>
<path d="M51.852 421.132H50.904V423.184C50.904 425.044 50.004 426.964 48.516 427.828L49.14 428.572C50.196 427.924 50.988 426.712 51.372 425.308C51.756 426.592 52.5 427.696 53.52 428.296L54.108 427.516C52.68 426.724 51.852 424.9 51.852 423.148V421.132ZM56.844 420.124V424.456H55.416V420.364H54.48V430.348H55.416V425.26H56.844V430.888H57.78V420.124H56.844ZM63.7316 428.284H70.1996V430.9H71.1836V427.492H63.7316V428.284ZM64.8596 421.348H70.1636V423.436H64.8596V421.348ZM68.0156 425.584V424.216H71.1356V420.568H63.8996V424.216H67.0316V425.584H62.6396V426.376H72.3836V425.584H68.0156ZM74.7707 428.476H81.2747V430.792H82.2587V427.672H74.7707V428.476ZM79.0667 426.04V424.912H82.4267V424.144H75.9107V423.016H82.1987V420.4H74.9147V421.168H81.2267V422.284H74.9387V424.912H78.0707V426.04H73.6787V426.844H83.4467V426.04H79.0667ZM92.1343 425.284H89.1103V421.876H92.1343V425.284ZM93.0943 421.084H88.1503V426.064H93.0943V421.084ZM90.3463 427.264H89.3623V430.648H96.5383V429.844H90.3463V427.264ZM96.0583 423.4V420.112H95.0743V427.996H96.0583V424.228H97.6423V423.4H96.0583ZM107.325 422.956H101.025V421.276H107.217V420.484H100.041V423.748H107.325V422.956ZM100.905 428.884H107.229V426.352H99.9094V427.12H106.257V428.152H99.9454V430.756H107.553V429.988H100.905V428.884ZM98.7454 424.612V425.416H108.489V424.612H98.7454ZM110.42 421.288V422.08H114.464C114.26 424.636 112.82 426.7 109.928 428.08L110.456 428.884C114.032 427.132 115.46 424.396 115.46 421.288H110.42ZM117.632 420.124V430.888H118.616V420.124H117.632Z" fill="black"/>
<rect x="14" y="424" width="20" height="4" fill="#707070"/>
<rect x="22" y="436" width="20" height="4" transform="rotate(-90 22 436)" fill="#707070"/>
<rect x="164" y="6" width="32" height="6" rx="3" fill="#707070"/>
<path d="M12 0.5H348C354.351 0.5 359.5 5.64873 359.5 12V449.5H0.5V12C0.5 5.64872 5.64873 0.5 12 0.5Z" stroke="#828282"/>
</svg>
