<svg width="360" height="284" viewBox="0 0 360 284" fill="none" xmlns="http://www.w3.org/2000/svg">
<path d="M12 0.5H348C354.351 0.5 359.5 5.64873 359.5 12V283.5H0.5V12C0.5 5.64872 5.64873 0.5 12 0.5Z" fill="white"/>
<rect x="164" y="6" width="32" height="6" rx="3" fill="#707070"/>
<path d="M33.312 34.68H28.4V33.528H26.288V34.68H21.328V36.264H33.312V34.68ZM24.304 45.48H30.336V46.648H24.304V45.48ZM22.24 48.2H32.416V43.928H22.24V48.2ZM24.672 38.728C24.672 38.248 25.52 38.056 27.344 38.056C29.184 38.056 30.016 38.248 30.016 38.728C30.016 39.208 29.184 39.416 27.344 39.416C25.52 39.416 24.672 39.208 24.672 38.728ZM28.4 41.528V40.792C30.896 40.648 32.288 39.96 32.288 38.728C32.288 37.336 30.512 36.632 27.344 36.632C24.192 36.632 22.416 37.336 22.416 38.728C22.416 39.96 23.808 40.648 26.288 40.792V41.528H20.672V43.16H34.016V41.528H28.4ZM38.3028 36.984H39.3908V43.224C39.0388 43.256 38.6548 43.272 38.3028 43.272V36.984ZM41.2788 36.984H42.2228V35.304H35.5188V36.984H36.4148V43.32C35.9988 43.32 35.6148 43.32 35.2628 43.32L35.4868 45.032C37.3108 45.032 40.2868 44.984 42.5748 44.488L42.4308 42.968C42.0788 43.016 41.6788 43.048 41.2788 43.096V36.984ZM43.2628 39.016H41.8548V40.856H43.2628V47.704H45.2308V33.944H43.2628V39.016ZM46.1908 33.64V48.392H48.1908V33.64H46.1908ZM60.2215 33.624V48.408H62.3335V33.624H60.2215ZM54.4135 34.664C52.1895 34.664 50.5415 36.68 50.5415 39.912C50.5415 43.16 52.1895 45.192 54.4135 45.192C56.6375 45.192 58.2855 43.16 58.2855 39.912C58.2855 36.68 56.6375 34.664 54.4135 34.664ZM54.4135 36.568C55.5015 36.568 56.2535 37.736 56.2535 39.912C56.2535 42.104 55.5015 43.272 54.4135 43.272C53.3255 43.272 52.5735 42.104 52.5735 39.912C52.5735 37.736 53.3255 36.568 54.4135 36.568ZM70.5403 36.792H73.5803V35.048H65.3243V36.792H68.3963V37.608C68.3963 40.12 67.1963 42.824 64.7323 43.928L65.9323 45.608C67.6603 44.824 68.8443 43.208 69.5003 41.288C70.1563 43.064 71.3243 44.504 73.0363 45.24L74.1883 43.576C71.7243 42.552 70.5403 40.008 70.5403 37.608V36.792ZM74.9403 33.64V48.376H77.0523V33.64H74.9403ZM86.0754 36.696H88.9554V43.128H86.0754V36.696ZM83.9954 44.792H91.0354V35.032H83.9954V44.792ZM97.2274 39.192H95.0834V33.656H92.9714V48.376H95.0834V40.936H97.2274V39.192ZM105.866 39.192H104.346C104.65 37.992 104.762 36.68 104.762 35.288H99.0181V36.984H102.73C102.682 37.576 102.602 38.136 102.474 38.664L98.2821 38.888L98.5221 40.648L101.914 40.296C101.226 41.704 100.058 42.92 98.2021 44.008L99.3701 45.48C101.61 44.184 102.986 42.632 103.77 40.872H105.866V47.72H107.834V33.96H105.866V39.192ZM108.938 33.624V48.36H110.938V33.624H108.938ZM125.225 33.64H123.097V42.568H125.225V33.64ZM121.881 39.896C120.041 40.168 118.425 40.232 115.881 40.248V39.096H120.441V37.464H115.881V36.328H120.873V34.664H113.785V41.912H115.049C118.153 41.912 119.993 41.864 122.073 41.528L121.881 39.896ZM120.249 46.76C118.345 46.76 117.321 46.392 117.321 45.576C117.321 44.776 118.345 44.392 120.249 44.392C122.169 44.392 123.177 44.776 123.177 45.576C123.177 46.392 122.169 46.76 120.249 46.76ZM120.249 42.776C117.129 42.776 115.225 43.816 115.225 45.576C115.225 47.368 117.129 48.376 120.249 48.376C123.369 48.376 125.289 47.368 125.289 45.576C125.289 43.816 123.369 42.776 120.249 42.776Z" fill="black"/>
<path d="M327.505 36.76H330.529V35.048H322.353V36.76H325.377V37.272C325.377 40.008 324.209 42.84 321.745 43.992L322.993 45.656C324.689 44.808 325.841 43.176 326.465 41.192C327.105 43.032 328.241 44.552 329.905 45.368L331.121 43.704C328.673 42.584 327.505 39.864 327.505 37.272V36.76ZM332.225 33.624V38.776H329.633V40.488H332.225V48.408H334.337V33.624H332.225ZM345.472 40.328C343.152 39.64 342.144 37.992 342.112 36.312H344.992V34.616H337.024V36.312H339.952C339.92 38.152 338.864 40.024 336.48 40.824L337.536 42.472C339.264 41.912 340.432 40.744 341.088 39.288C341.728 40.504 342.848 41.48 344.464 41.96L345.472 40.328ZM343.472 46.76C341.584 46.76 340.576 46.36 340.576 45.528C340.576 44.68 341.584 44.28 343.472 44.28C345.344 44.28 346.352 44.68 346.352 45.528C346.352 46.36 345.344 46.76 343.472 46.76ZM343.472 42.648C340.4 42.648 338.48 43.72 338.48 45.528C338.48 47.32 340.4 48.376 343.472 48.376C346.528 48.376 348.448 47.32 348.448 45.528C348.448 43.72 346.528 42.648 343.472 42.648ZM348.288 37.032V33.64H346.176V42.392H348.288V38.76H350.24V37.032H348.288Z" fill="black"/>
<rect width="360" height="218" transform="translate(0 66)" fill="#C4C4C4"/>
<path d="M148.049 174.928C148.049 175.768 147.9 176.504 147.604 177.137C147.307 177.77 146.881 178.258 146.326 178.602C145.775 178.945 145.143 179.117 144.428 179.117C143.721 179.117 143.09 178.947 142.535 178.607C141.98 178.268 141.551 177.783 141.246 177.154C140.941 176.521 140.787 175.795 140.783 174.975V174.553C140.783 173.713 140.934 172.975 141.234 172.338C141.539 171.697 141.967 171.207 142.518 170.867C143.072 170.523 143.705 170.352 144.416 170.352C145.127 170.352 145.758 170.523 146.309 170.867C146.863 171.207 147.291 171.697 147.592 172.338C147.896 172.975 148.049 173.711 148.049 174.547V174.928ZM146.268 174.541C146.268 173.646 146.107 172.967 145.787 172.502C145.467 172.037 145.01 171.805 144.416 171.805C143.826 171.805 143.371 172.035 143.051 172.496C142.73 172.953 142.568 173.625 142.564 174.512V174.928C142.564 175.799 142.725 176.475 143.045 176.955C143.365 177.436 143.826 177.676 144.428 177.676C145.018 177.676 145.471 177.445 145.787 176.984C146.104 176.52 146.264 175.844 146.268 174.957V174.541ZM154.459 175.303H151.084V177.588H155.045V179H149.326V170.469H155.033V171.893H151.084V173.926H154.459V175.303ZM158.373 170.469L160.564 176.656L162.744 170.469H165.053V179H163.289V176.668L163.465 172.643L161.162 179H159.955L157.658 172.648L157.834 176.668V179H156.076V170.469H158.373ZM172.248 175.578L171.334 176.562V179H169.576V170.469H171.334V174.336L172.107 173.275L174.281 170.469H176.443L173.414 174.26L176.531 179H174.439L172.248 175.578ZM179.848 179.117C178.918 179.117 178.16 178.832 177.574 178.262C176.992 177.691 176.701 176.932 176.701 175.982V175.818C176.701 175.182 176.824 174.613 177.07 174.113C177.316 173.609 177.664 173.223 178.113 172.953C178.566 172.68 179.082 172.543 179.66 172.543C180.527 172.543 181.209 172.816 181.705 173.363C182.205 173.91 182.455 174.686 182.455 175.689V176.381H178.418C178.473 176.795 178.637 177.127 178.91 177.377C179.188 177.627 179.537 177.752 179.959 177.752C180.611 177.752 181.121 177.516 181.488 177.043L182.32 177.975C182.066 178.334 181.723 178.615 181.289 178.818C180.855 179.018 180.375 179.117 179.848 179.117ZM179.654 173.914C179.318 173.914 179.045 174.027 178.834 174.254C178.627 174.48 178.494 174.805 178.436 175.227H180.791V175.092C180.783 174.717 180.682 174.428 180.486 174.225C180.291 174.018 180.014 173.914 179.654 173.914ZM185.707 176.604L186.879 172.66H188.695L186.146 179.984L186.006 180.318C185.627 181.146 185.002 181.561 184.131 181.561C183.885 181.561 183.635 181.523 183.381 181.449V180.166L183.639 180.172C183.959 180.172 184.197 180.123 184.354 180.025C184.514 179.928 184.639 179.766 184.729 179.539L184.928 179.018L182.707 172.66H184.529L185.707 176.604ZM195.076 175.889C195.076 176.904 194.859 177.697 194.426 178.268C193.992 178.834 193.387 179.117 192.609 179.117C191.922 179.117 191.373 178.854 190.963 178.326L190.887 179H189.363V170H191.057V173.229C191.447 172.771 191.961 172.543 192.598 172.543C193.371 172.543 193.977 172.828 194.414 173.398C194.855 173.965 195.076 174.764 195.076 175.795V175.889ZM193.383 175.766C193.383 175.125 193.281 174.658 193.078 174.365C192.875 174.068 192.572 173.92 192.17 173.92C191.631 173.92 191.26 174.141 191.057 174.582V177.084C191.264 177.529 191.639 177.752 192.182 177.752C192.729 177.752 193.088 177.482 193.26 176.943C193.342 176.686 193.383 176.293 193.383 175.766ZM195.861 175.771C195.861 175.143 195.982 174.582 196.225 174.09C196.467 173.598 196.814 173.217 197.268 172.947C197.725 172.678 198.254 172.543 198.855 172.543C199.711 172.543 200.408 172.805 200.947 173.328C201.49 173.852 201.793 174.562 201.855 175.461L201.867 175.895C201.867 176.867 201.596 177.648 201.053 178.238C200.51 178.824 199.781 179.117 198.867 179.117C197.953 179.117 197.223 178.824 196.676 178.238C196.133 177.652 195.861 176.855 195.861 175.848V175.771ZM197.555 175.895C197.555 176.496 197.668 176.957 197.895 177.277C198.121 177.594 198.445 177.752 198.867 177.752C199.277 177.752 199.598 177.596 199.828 177.283C200.059 176.967 200.174 176.463 200.174 175.771C200.174 175.182 200.059 174.725 199.828 174.4C199.598 174.076 199.273 173.914 198.855 173.914C198.441 173.914 198.121 174.076 197.895 174.4C197.668 174.721 197.555 175.219 197.555 175.895ZM206.584 179C206.506 178.848 206.449 178.658 206.414 178.432C206.004 178.889 205.471 179.117 204.814 179.117C204.193 179.117 203.678 178.938 203.268 178.578C202.861 178.219 202.658 177.766 202.658 177.219C202.658 176.547 202.906 176.031 203.402 175.672C203.902 175.312 204.623 175.131 205.564 175.127H206.344V174.764C206.344 174.471 206.268 174.236 206.115 174.061C205.967 173.885 205.73 173.797 205.406 173.797C205.121 173.797 204.896 173.865 204.732 174.002C204.572 174.139 204.492 174.326 204.492 174.564H202.799C202.799 174.197 202.912 173.857 203.139 173.545C203.365 173.232 203.686 172.988 204.1 172.812C204.514 172.633 204.979 172.543 205.494 172.543C206.275 172.543 206.895 172.74 207.352 173.135C207.812 173.525 208.043 174.076 208.043 174.787V177.535C208.047 178.137 208.131 178.592 208.295 178.9V179H206.584ZM205.184 177.822C205.434 177.822 205.664 177.768 205.875 177.658C206.086 177.545 206.242 177.395 206.344 177.207V176.117H205.711C204.863 176.117 204.412 176.41 204.357 176.996L204.352 177.096C204.352 177.307 204.426 177.48 204.574 177.617C204.723 177.754 204.926 177.822 205.184 177.822ZM212.906 174.248C212.676 174.217 212.473 174.201 212.297 174.201C211.656 174.201 211.236 174.418 211.037 174.852V179H209.344V172.66H210.943L210.99 173.416C211.33 172.834 211.801 172.543 212.402 172.543C212.59 172.543 212.766 172.568 212.93 172.619L212.906 174.248ZM213.346 175.783C213.346 174.795 213.566 174.008 214.008 173.422C214.453 172.836 215.061 172.543 215.83 172.543C216.447 172.543 216.957 172.773 217.359 173.234V170H219.059V179H217.529L217.447 178.326C217.025 178.854 216.482 179.117 215.818 179.117C215.072 179.117 214.473 178.824 214.02 178.238C213.57 177.648 213.346 176.83 213.346 175.783ZM215.039 175.906C215.039 176.5 215.143 176.955 215.35 177.271C215.557 177.588 215.857 177.746 216.252 177.746C216.775 177.746 217.145 177.525 217.359 177.084V174.582C217.148 174.141 216.783 173.92 216.264 173.92C215.447 173.92 215.039 174.582 215.039 175.906Z" fill="black"/>
<path d="M12 0.5H348C354.351 0.5 359.5 5.64873 359.5 12V283.5H0.5V12C0.5 5.64872 5.64873 0.5 12 0.5Z" stroke="black"/>
</svg>
