<svg width="360" height="287" viewBox="0 0 360 287" fill="none" xmlns="http://www.w3.org/2000/svg">
<path d="M12 0.5H348C354.351 0.5 359.5 5.64873 359.5 12V286.5H0.5V12C0.5 5.64872 5.64873 0.5 12 0.5Z" fill="white"/>
<rect x="164" y="6" width="32" height="6" rx="3" fill="#707070"/>
<line x1="21.5" y1="32" x2="21.5" y2="55" stroke="black" stroke-width="3"/>
<path d="M34.328 35.624V41.368H33.144V35.88H31.176V45.32C29.144 44.184 28.456 41.784 28.456 39.24V36.92H26.408V39.4C26.408 41.896 25.624 44.552 23.416 45.864L24.728 47.416C26.04 46.616 26.904 45.272 27.416 43.656C27.896 45.096 28.712 46.28 29.96 46.984L31.176 45.352V49.704H33.144V43.064H34.328V50.36H36.328V35.624H34.328ZM46.1188 47.032V44.84H50.5828V43.144H42.0388V41.496H50.2468V36.584H39.9268V38.264H48.1668V39.848H39.9428V44.84H44.0068V47.032H38.4068V48.76H51.7508V47.032H46.1188ZM59.7815 37.592C61.6535 37.592 62.8055 38.056 62.8055 38.968C62.8055 39.88 61.6535 40.344 59.7815 40.344C57.9415 40.344 56.7735 39.88 56.7735 38.968C56.7735 38.056 57.9415 37.592 59.7815 37.592ZM59.7815 42.024C62.9655 42.024 65.0775 40.84 65.0775 38.968C65.0775 37.112 62.9655 35.912 59.7815 35.912C56.6135 35.912 54.4855 37.112 54.4855 38.968C54.4855 40.84 56.6135 42.024 59.7815 42.024ZM56.8215 45.704H54.6775V50.12H65.0135V48.44H56.8215V45.704ZM53.1255 42.792V44.472H58.8375V47H60.9975V44.472H66.4695V42.792H53.1255ZM73.3006 47.224H81.4286V50.392H83.5406V45.544H73.3006V47.224ZM75.5406 37.864H81.3806V39.768H75.5406V37.864ZM79.5246 42.808V41.432H83.4606V36.216H73.4606V41.432H77.4126V42.808H71.8286V44.488H85.1406V42.808H79.5246ZM88.0194 47.704H96.2434V50.328H98.3554V46.04H88.0194V47.704ZM94.2754 43.528V42.472H98.5634V40.872H90.2914V39.912H98.2594V35.928H88.1794V37.528H96.1794V38.424H88.2114V42.472H92.1634V43.528H86.5474V45.208H99.8914V43.528H94.2754ZM115.347 35.624V50.408H117.459V35.624H115.347ZM109.539 36.664C107.315 36.664 105.667 38.68 105.667 41.912C105.667 45.16 107.315 47.192 109.539 47.192C111.763 47.192 113.411 45.16 113.411 41.912C113.411 38.68 111.763 36.664 109.539 36.664ZM109.539 38.568C110.627 38.568 111.379 39.736 111.379 41.912C111.379 44.104 110.627 45.272 109.539 45.272C108.451 45.272 107.699 44.104 107.699 41.912C107.699 39.736 108.451 38.568 109.539 38.568ZM129.601 38.36H121.633V42.296H131.969V40.696H123.713V39.848H131.681V35.928H121.601V37.528H129.601V38.36ZM123.729 47.288H129.697V48.552H123.729V47.288ZM121.649 50.2H131.761V45.624H121.649V50.2ZM119.969 43.08V44.744H133.313V43.08H119.969Z" fill="#707070"/>
<path d="M327.505 36.76H330.529V35.048H322.353V36.76H325.377V37.272C325.377 40.008 324.209 42.84 321.745 43.992L322.993 45.656C324.689 44.808 325.841 43.176 326.465 41.192C327.105 43.032 328.241 44.552 329.905 45.368L331.121 43.704C328.673 42.584 327.505 39.864 327.505 37.272V36.76ZM332.225 33.624V38.776H329.633V40.488H332.225V48.408H334.337V33.624H332.225ZM345.472 40.328C343.152 39.64 342.144 37.992 342.112 36.312H344.992V34.616H337.024V36.312H339.952C339.92 38.152 338.864 40.024 336.48 40.824L337.536 42.472C339.264 41.912 340.432 40.744 341.088 39.288C341.728 40.504 342.848 41.48 344.464 41.96L345.472 40.328ZM343.472 46.76C341.584 46.76 340.576 46.36 340.576 45.528C340.576 44.68 341.584 44.28 343.472 44.28C345.344 44.28 346.352 44.68 346.352 45.528C346.352 46.36 345.344 46.76 343.472 46.76ZM343.472 42.648C340.4 42.648 338.48 43.72 338.48 45.528C338.48 47.32 340.4 48.376 343.472 48.376C346.528 48.376 348.448 47.32 348.448 45.528C348.448 43.72 346.528 42.648 343.472 42.648ZM348.288 37.032V33.64H346.176V42.392H348.288V38.76H350.24V37.032H348.288Z" fill="#707070"/>
<rect width="360" height="218" transform="translate(0 69)" fill="#C4C4C4"/>
<path d="M148.049 177.928C148.049 178.768 147.9 179.504 147.604 180.137C147.307 180.77 146.881 181.258 146.326 181.602C145.775 181.945 145.143 182.117 144.428 182.117C143.721 182.117 143.09 181.947 142.535 181.607C141.98 181.268 141.551 180.783 141.246 180.154C140.941 179.521 140.787 178.795 140.783 177.975V177.553C140.783 176.713 140.934 175.975 141.234 175.338C141.539 174.697 141.967 174.207 142.518 173.867C143.072 173.523 143.705 173.352 144.416 173.352C145.127 173.352 145.758 173.523 146.309 173.867C146.863 174.207 147.291 174.697 147.592 175.338C147.896 175.975 148.049 176.711 148.049 177.547V177.928ZM146.268 177.541C146.268 176.646 146.107 175.967 145.787 175.502C145.467 175.037 145.01 174.805 144.416 174.805C143.826 174.805 143.371 175.035 143.051 175.496C142.73 175.953 142.568 176.625 142.564 177.512V177.928C142.564 178.799 142.725 179.475 143.045 179.955C143.365 180.436 143.826 180.676 144.428 180.676C145.018 180.676 145.471 180.445 145.787 179.984C146.104 179.52 146.264 178.844 146.268 177.957V177.541ZM154.459 178.303H151.084V180.588H155.045V182H149.326V173.469H155.033V174.893H151.084V176.926H154.459V178.303ZM158.373 173.469L160.564 179.656L162.744 173.469H165.053V182H163.289V179.668L163.465 175.643L161.162 182H159.955L157.658 175.648L157.834 179.668V182H156.076V173.469H158.373ZM172.248 178.578L171.334 179.562V182H169.576V173.469H171.334V177.336L172.107 176.275L174.281 173.469H176.443L173.414 177.26L176.531 182H174.439L172.248 178.578ZM179.848 182.117C178.918 182.117 178.16 181.832 177.574 181.262C176.992 180.691 176.701 179.932 176.701 178.982V178.818C176.701 178.182 176.824 177.613 177.07 177.113C177.316 176.609 177.664 176.223 178.113 175.953C178.566 175.68 179.082 175.543 179.66 175.543C180.527 175.543 181.209 175.816 181.705 176.363C182.205 176.91 182.455 177.686 182.455 178.689V179.381H178.418C178.473 179.795 178.637 180.127 178.91 180.377C179.188 180.627 179.537 180.752 179.959 180.752C180.611 180.752 181.121 180.516 181.488 180.043L182.32 180.975C182.066 181.334 181.723 181.615 181.289 181.818C180.855 182.018 180.375 182.117 179.848 182.117ZM179.654 176.914C179.318 176.914 179.045 177.027 178.834 177.254C178.627 177.48 178.494 177.805 178.436 178.227H180.791V178.092C180.783 177.717 180.682 177.428 180.486 177.225C180.291 177.018 180.014 176.914 179.654 176.914ZM185.707 179.604L186.879 175.66H188.695L186.146 182.984L186.006 183.318C185.627 184.146 185.002 184.561 184.131 184.561C183.885 184.561 183.635 184.523 183.381 184.449V183.166L183.639 183.172C183.959 183.172 184.197 183.123 184.354 183.025C184.514 182.928 184.639 182.766 184.729 182.539L184.928 182.018L182.707 175.66H184.529L185.707 179.604ZM195.076 178.889C195.076 179.904 194.859 180.697 194.426 181.268C193.992 181.834 193.387 182.117 192.609 182.117C191.922 182.117 191.373 181.854 190.963 181.326L190.887 182H189.363V173H191.057V176.229C191.447 175.771 191.961 175.543 192.598 175.543C193.371 175.543 193.977 175.828 194.414 176.398C194.855 176.965 195.076 177.764 195.076 178.795V178.889ZM193.383 178.766C193.383 178.125 193.281 177.658 193.078 177.365C192.875 177.068 192.572 176.92 192.17 176.92C191.631 176.92 191.26 177.141 191.057 177.582V180.084C191.264 180.529 191.639 180.752 192.182 180.752C192.729 180.752 193.088 180.482 193.26 179.943C193.342 179.686 193.383 179.293 193.383 178.766ZM195.861 178.771C195.861 178.143 195.982 177.582 196.225 177.09C196.467 176.598 196.814 176.217 197.268 175.947C197.725 175.678 198.254 175.543 198.855 175.543C199.711 175.543 200.408 175.805 200.947 176.328C201.49 176.852 201.793 177.562 201.855 178.461L201.867 178.895C201.867 179.867 201.596 180.648 201.053 181.238C200.51 181.824 199.781 182.117 198.867 182.117C197.953 182.117 197.223 181.824 196.676 181.238C196.133 180.652 195.861 179.855 195.861 178.848V178.771ZM197.555 178.895C197.555 179.496 197.668 179.957 197.895 180.277C198.121 180.594 198.445 180.752 198.867 180.752C199.277 180.752 199.598 180.596 199.828 180.283C200.059 179.967 200.174 179.463 200.174 178.771C200.174 178.182 200.059 177.725 199.828 177.4C199.598 177.076 199.273 176.914 198.855 176.914C198.441 176.914 198.121 177.076 197.895 177.4C197.668 177.721 197.555 178.219 197.555 178.895ZM206.584 182C206.506 181.848 206.449 181.658 206.414 181.432C206.004 181.889 205.471 182.117 204.814 182.117C204.193 182.117 203.678 181.938 203.268 181.578C202.861 181.219 202.658 180.766 202.658 180.219C202.658 179.547 202.906 179.031 203.402 178.672C203.902 178.312 204.623 178.131 205.564 178.127H206.344V177.764C206.344 177.471 206.268 177.236 206.115 177.061C205.967 176.885 205.73 176.797 205.406 176.797C205.121 176.797 204.896 176.865 204.732 177.002C204.572 177.139 204.492 177.326 204.492 177.564H202.799C202.799 177.197 202.912 176.857 203.139 176.545C203.365 176.232 203.686 175.988 204.1 175.812C204.514 175.633 204.979 175.543 205.494 175.543C206.275 175.543 206.895 175.74 207.352 176.135C207.812 176.525 208.043 177.076 208.043 177.787V180.535C208.047 181.137 208.131 181.592 208.295 181.9V182H206.584ZM205.184 180.822C205.434 180.822 205.664 180.768 205.875 180.658C206.086 180.545 206.242 180.395 206.344 180.207V179.117H205.711C204.863 179.117 204.412 179.41 204.357 179.996L204.352 180.096C204.352 180.307 204.426 180.48 204.574 180.617C204.723 180.754 204.926 180.822 205.184 180.822ZM212.906 177.248C212.676 177.217 212.473 177.201 212.297 177.201C211.656 177.201 211.236 177.418 211.037 177.852V182H209.344V175.66H210.943L210.99 176.416C211.33 175.834 211.801 175.543 212.402 175.543C212.59 175.543 212.766 175.568 212.93 175.619L212.906 177.248ZM213.346 178.783C213.346 177.795 213.566 177.008 214.008 176.422C214.453 175.836 215.061 175.543 215.83 175.543C216.447 175.543 216.957 175.773 217.359 176.234V173H219.059V182H217.529L217.447 181.326C217.025 181.854 216.482 182.117 215.818 182.117C215.072 182.117 214.473 181.824 214.02 181.238C213.57 180.648 213.346 179.83 213.346 178.783ZM215.039 178.906C215.039 179.5 215.143 179.955 215.35 180.271C215.557 180.588 215.857 180.746 216.252 180.746C216.775 180.746 217.145 180.525 217.359 180.084V177.582C217.148 177.141 216.783 176.92 216.264 176.92C215.447 176.92 215.039 177.582 215.039 178.906Z" fill="black"/>
<path d="M12 0.5H348C354.351 0.5 359.5 5.64873 359.5 12V286.5H0.5V12C0.5 5.64872 5.64873 0.5 12 0.5Z" stroke="black"/>
</svg>
