<svg width="360" height="335" viewBox="0 0 360 335" fill="none" xmlns="http://www.w3.org/2000/svg">
<path d="M12 0.5H348C354.351 0.5 359.5 5.64873 359.5 12V334.5H0.5V12C0.5 5.64873 5.64873 0.5 12 0.5Z" fill="white"/>
<rect x="164" y="6" width="32" height="6" rx="3" fill="#707070"/>
<line x1="21.5" y1="32" x2="21.5" y2="55" stroke="black" stroke-width="3"/>
<path d="M34.328 35.624V41.368H33.144V35.88H31.176V45.32C29.144 44.184 28.456 41.784 28.456 39.24V36.92H26.408V39.4C26.408 41.896 25.624 44.552 23.416 45.864L24.728 47.416C26.04 46.616 26.904 45.272 27.416 43.656C27.896 45.096 28.712 46.28 29.96 46.984L31.176 45.352V49.704H33.144V43.064H34.328V50.36H36.328V35.624H34.328ZM51.0631 36.728H47.7831V35.528H45.6551V36.728H42.3751V38.312H51.0631V36.728ZM45.1271 41.08C45.1271 40.456 45.7511 40.152 46.7271 40.152C47.7031 40.152 48.3271 40.456 48.3271 41.08C48.3271 41.688 47.7031 41.992 46.7271 41.992C45.7511 41.992 45.1271 41.688 45.1271 41.08ZM50.3431 41.08C50.3431 39.592 48.9191 38.664 46.7271 38.664C44.5511 38.664 43.1111 39.592 43.1111 41.08C43.1111 42.552 44.5511 43.48 46.7271 43.48C48.9191 43.48 50.3431 42.552 50.3431 41.08ZM46.3751 47.912H53.9911V44.168H44.2631V45.704H51.9111V46.472H44.2791V50.264H54.4231V48.728H46.3751V47.912ZM53.9911 38.76V35.624H51.8791V43.592H53.9911V40.488H55.9431V38.76H53.9911ZM73.3343 35.64H71.2063V43.016H73.3343V35.64ZM63.3503 39.432C63.3503 38.392 64.1663 37.768 65.2543 37.768C66.3423 37.768 67.1263 38.392 67.1263 39.432C67.1263 40.488 66.3423 41.096 65.2543 41.096C64.1663 41.096 63.3503 40.488 63.3503 39.432ZM69.1743 39.432C69.1743 37.48 67.4943 36.072 65.2543 36.072C62.9983 36.072 61.3023 37.48 61.3023 39.432C61.3023 41.4 62.9983 42.808 65.2543 42.808C67.4943 42.808 69.1743 41.4 69.1743 39.432ZM65.6223 48.568V47.64H73.3343V43.624H63.5103V45.24H71.2383V46.136H63.5263V50.2H73.7023V48.568H65.6223Z" fill="#707070"/>
<path d="M327.505 36.76H330.529V35.048H322.353V36.76H325.377V37.272C325.377 40.008 324.209 42.84 321.745 43.992L322.993 45.656C324.689 44.808 325.841 43.176 326.465 41.192C327.105 43.032 328.241 44.552 329.905 45.368L331.121 43.704C328.673 42.584 327.505 39.864 327.505 37.272V36.76ZM332.225 33.624V38.776H329.633V40.488H332.225V48.408H334.337V33.624H332.225ZM345.472 40.328C343.152 39.64 342.144 37.992 342.112 36.312H344.992V34.616H337.024V36.312H339.952C339.92 38.152 338.864 40.024 336.48 40.824L337.536 42.472C339.264 41.912 340.432 40.744 341.088 39.288C341.728 40.504 342.848 41.48 344.464 41.96L345.472 40.328ZM343.472 46.76C341.584 46.76 340.576 46.36 340.576 45.528C340.576 44.68 341.584 44.28 343.472 44.28C345.344 44.28 346.352 44.68 346.352 45.528C346.352 46.36 345.344 46.76 343.472 46.76ZM343.472 42.648C340.4 42.648 338.48 43.72 338.48 45.528C338.48 47.32 340.4 48.376 343.472 48.376C346.528 48.376 348.448 47.32 348.448 45.528C348.448 43.72 346.528 42.648 343.472 42.648ZM348.288 37.032V33.64H346.176V42.392H348.288V38.76H350.24V37.032H348.288Z" fill="#707070"/>
<path d="M21.828 88.144H20.88V90.196C20.88 92.044 19.992 93.976 18.516 94.84L19.128 95.572C20.196 94.912 20.976 93.7 21.36 92.272C21.744 93.58 22.464 94.72 23.484 95.344L24.048 94.576C22.632 93.712 21.828 91.888 21.828 90.16V88.144ZM24.66 90.988H22.884V91.804H24.66V97.36H25.584V87.364H24.66V90.988ZM26.844 87.124V97.888H27.78V87.124H26.844ZM37.2111 91.408H31.8711V89.824H37.2111V91.408ZM38.1951 87.556H37.2111V89.032H31.8711V87.556H30.8991V92.212H38.1951V87.556ZM39.4311 93.508H29.6631V94.3H34.0311V97.9H35.0151V94.3H39.4311V93.508ZM50.0747 88.336H47.3867V87.028H46.4027V88.336H43.7267V89.128H50.0747V88.336ZM45.2627 91.564C45.2627 90.868 45.9107 90.412 46.8947 90.412C47.8787 90.412 48.5387 90.868 48.5387 91.564C48.5387 92.272 47.8787 92.728 46.8947 92.728C45.9107 92.728 45.2627 92.272 45.2627 91.564ZM49.4747 91.564C49.4747 90.412 48.4307 89.668 46.8947 89.668C45.3587 89.668 44.3267 90.412 44.3267 91.564C44.3267 92.728 45.3587 93.472 46.8947 93.472C48.4307 93.472 49.4747 92.728 49.4747 91.564ZM48.6707 97.12C47.0987 97.12 46.1387 96.712 46.1387 96.016C46.1387 95.32 47.0987 94.912 48.6707 94.912C50.2427 94.912 51.2027 95.32 51.2027 96.016C51.2027 96.712 50.2427 97.12 48.6707 97.12ZM48.6707 94.156C46.4987 94.156 45.1667 94.828 45.1667 96.016C45.1667 97.192 46.4987 97.876 48.6707 97.876C50.8307 97.876 52.1747 97.192 52.1747 96.016C52.1747 94.828 50.8307 94.156 48.6707 94.156ZM52.0427 90.112V87.124H51.0587V94.048H52.0427V90.928H53.6267V90.112H52.0427ZM55.8098 95.284H62.2778V97.9H63.2618V94.492H55.8098V95.284ZM56.9378 88.348H62.2418V90.436H56.9378V88.348ZM60.0938 92.584V91.216H63.2138V87.568H55.9778V91.216H59.1098V92.584H54.7178V93.376H64.4618V92.584H60.0938ZM76.5934 87.136V92.908H77.5774V87.136H76.5934ZM70.6414 93.436V97.744H77.5774V93.436H76.6054V94.756H71.6134V93.436H70.6414ZM71.6134 95.524H76.6054V96.952H71.6134V95.524ZM71.7934 87.64C70.1734 87.64 68.9974 88.648 68.9974 90.112C68.9974 91.6 70.1734 92.596 71.7934 92.596C73.4254 92.596 74.6134 91.6 74.6134 90.112C74.6134 88.648 73.4254 87.64 71.7934 87.64ZM71.7934 88.456C72.8854 88.456 73.6534 89.14 73.6534 90.112C73.6534 91.096 72.8854 91.78 71.7934 91.78C70.7254 91.78 69.9574 91.096 69.9574 90.112C69.9574 89.14 70.7254 88.456 71.7934 88.456ZM85.4724 92.2C84.2244 92.404 83.1924 92.452 81.2004 92.452V90.82H84.8484V87.772H80.2044V88.576H83.8884V90.064H80.2404V93.256H81.0084C83.1564 93.256 84.2484 93.22 85.5684 92.992L85.4724 92.2ZM81.4404 95.128H87.6564V97.9H88.6524V94.324H81.4404V95.128ZM87.6564 87.136V88.72H85.5564V89.524H87.6564V90.964H85.5564V91.756H87.6564V93.748H88.6524V87.136H87.6564Z" fill="#707070"/>
<rect width="360" height="218" transform="translate(0 117)" fill="#C4C4C4"/>
<path d="M148.049 225.928C148.049 226.768 147.9 227.504 147.604 228.137C147.307 228.77 146.881 229.258 146.326 229.602C145.775 229.945 145.143 230.117 144.428 230.117C143.721 230.117 143.09 229.947 142.535 229.607C141.98 229.268 141.551 228.783 141.246 228.154C140.941 227.521 140.787 226.795 140.783 225.975V225.553C140.783 224.713 140.934 223.975 141.234 223.338C141.539 222.697 141.967 222.207 142.518 221.867C143.072 221.523 143.705 221.352 144.416 221.352C145.127 221.352 145.758 221.523 146.309 221.867C146.863 222.207 147.291 222.697 147.592 223.338C147.896 223.975 148.049 224.711 148.049 225.547V225.928ZM146.268 225.541C146.268 224.646 146.107 223.967 145.787 223.502C145.467 223.037 145.01 222.805 144.416 222.805C143.826 222.805 143.371 223.035 143.051 223.496C142.73 223.953 142.568 224.625 142.564 225.512V225.928C142.564 226.799 142.725 227.475 143.045 227.955C143.365 228.436 143.826 228.676 144.428 228.676C145.018 228.676 145.471 228.445 145.787 227.984C146.104 227.52 146.264 226.844 146.268 225.957V225.541ZM154.459 226.303H151.084V228.588H155.045V230H149.326V221.469H155.033V222.893H151.084V224.926H154.459V226.303ZM158.373 221.469L160.564 227.656L162.744 221.469H165.053V230H163.289V227.668L163.465 223.643L161.162 230H159.955L157.658 223.648L157.834 227.668V230H156.076V221.469H158.373ZM172.248 226.578L171.334 227.562V230H169.576V221.469H171.334V225.336L172.107 224.275L174.281 221.469H176.443L173.414 225.26L176.531 230H174.439L172.248 226.578ZM179.848 230.117C178.918 230.117 178.16 229.832 177.574 229.262C176.992 228.691 176.701 227.932 176.701 226.982V226.818C176.701 226.182 176.824 225.613 177.07 225.113C177.316 224.609 177.664 224.223 178.113 223.953C178.566 223.68 179.082 223.543 179.66 223.543C180.527 223.543 181.209 223.816 181.705 224.363C182.205 224.91 182.455 225.686 182.455 226.689V227.381H178.418C178.473 227.795 178.637 228.127 178.91 228.377C179.188 228.627 179.537 228.752 179.959 228.752C180.611 228.752 181.121 228.516 181.488 228.043L182.32 228.975C182.066 229.334 181.723 229.615 181.289 229.818C180.855 230.018 180.375 230.117 179.848 230.117ZM179.654 224.914C179.318 224.914 179.045 225.027 178.834 225.254C178.627 225.48 178.494 225.805 178.436 226.227H180.791V226.092C180.783 225.717 180.682 225.428 180.486 225.225C180.291 225.018 180.014 224.914 179.654 224.914ZM185.707 227.604L186.879 223.66H188.695L186.146 230.984L186.006 231.318C185.627 232.146 185.002 232.561 184.131 232.561C183.885 232.561 183.635 232.523 183.381 232.449V231.166L183.639 231.172C183.959 231.172 184.197 231.123 184.354 231.025C184.514 230.928 184.639 230.766 184.729 230.539L184.928 230.018L182.707 223.66H184.529L185.707 227.604ZM195.076 226.889C195.076 227.904 194.859 228.697 194.426 229.268C193.992 229.834 193.387 230.117 192.609 230.117C191.922 230.117 191.373 229.854 190.963 229.326L190.887 230H189.363V221H191.057V224.229C191.447 223.771 191.961 223.543 192.598 223.543C193.371 223.543 193.977 223.828 194.414 224.398C194.855 224.965 195.076 225.764 195.076 226.795V226.889ZM193.383 226.766C193.383 226.125 193.281 225.658 193.078 225.365C192.875 225.068 192.572 224.92 192.17 224.92C191.631 224.92 191.26 225.141 191.057 225.582V228.084C191.264 228.529 191.639 228.752 192.182 228.752C192.729 228.752 193.088 228.482 193.26 227.943C193.342 227.686 193.383 227.293 193.383 226.766ZM195.861 226.771C195.861 226.143 195.982 225.582 196.225 225.09C196.467 224.598 196.814 224.217 197.268 223.947C197.725 223.678 198.254 223.543 198.855 223.543C199.711 223.543 200.408 223.805 200.947 224.328C201.49 224.852 201.793 225.562 201.855 226.461L201.867 226.895C201.867 227.867 201.596 228.648 201.053 229.238C200.51 229.824 199.781 230.117 198.867 230.117C197.953 230.117 197.223 229.824 196.676 229.238C196.133 228.652 195.861 227.855 195.861 226.848V226.771ZM197.555 226.895C197.555 227.496 197.668 227.957 197.895 228.277C198.121 228.594 198.445 228.752 198.867 228.752C199.277 228.752 199.598 228.596 199.828 228.283C200.059 227.967 200.174 227.463 200.174 226.771C200.174 226.182 200.059 225.725 199.828 225.4C199.598 225.076 199.273 224.914 198.855 224.914C198.441 224.914 198.121 225.076 197.895 225.4C197.668 225.721 197.555 226.219 197.555 226.895ZM206.584 230C206.506 229.848 206.449 229.658 206.414 229.432C206.004 229.889 205.471 230.117 204.814 230.117C204.193 230.117 203.678 229.938 203.268 229.578C202.861 229.219 202.658 228.766 202.658 228.219C202.658 227.547 202.906 227.031 203.402 226.672C203.902 226.312 204.623 226.131 205.564 226.127H206.344V225.764C206.344 225.471 206.268 225.236 206.115 225.061C205.967 224.885 205.73 224.797 205.406 224.797C205.121 224.797 204.896 224.865 204.732 225.002C204.572 225.139 204.492 225.326 204.492 225.564H202.799C202.799 225.197 202.912 224.857 203.139 224.545C203.365 224.232 203.686 223.988 204.1 223.812C204.514 223.633 204.979 223.543 205.494 223.543C206.275 223.543 206.895 223.74 207.352 224.135C207.812 224.525 208.043 225.076 208.043 225.787V228.535C208.047 229.137 208.131 229.592 208.295 229.9V230H206.584ZM205.184 228.822C205.434 228.822 205.664 228.768 205.875 228.658C206.086 228.545 206.242 228.395 206.344 228.207V227.117H205.711C204.863 227.117 204.412 227.41 204.357 227.996L204.352 228.096C204.352 228.307 204.426 228.48 204.574 228.617C204.723 228.754 204.926 228.822 205.184 228.822ZM212.906 225.248C212.676 225.217 212.473 225.201 212.297 225.201C211.656 225.201 211.236 225.418 211.037 225.852V230H209.344V223.66H210.943L210.99 224.416C211.33 223.834 211.801 223.543 212.402 223.543C212.59 223.543 212.766 223.568 212.93 223.619L212.906 225.248ZM213.346 226.783C213.346 225.795 213.566 225.008 214.008 224.422C214.453 223.836 215.061 223.543 215.83 223.543C216.447 223.543 216.957 223.773 217.359 224.234V221H219.059V230H217.529L217.447 229.326C217.025 229.854 216.482 230.117 215.818 230.117C215.072 230.117 214.473 229.824 214.02 229.238C213.57 228.648 213.346 227.83 213.346 226.783ZM215.039 226.906C215.039 227.5 215.143 227.955 215.35 228.271C215.557 228.588 215.857 228.746 216.252 228.746C216.775 228.746 217.145 228.525 217.359 228.084V225.582C217.148 225.141 216.783 224.92 216.264 224.92C215.447 224.92 215.039 225.582 215.039 226.906Z" fill="black"/>
<path d="M12 0.5H348C354.351 0.5 359.5 5.64873 359.5 12V334.5H0.5V12C0.5 5.64873 5.64873 0.5 12 0.5Z" stroke="black"/>
</svg>
