<svg width="125" height="63" viewBox="0 0 125 63" fill="none" xmlns="http://www.w3.org/2000/svg">
<g clip-path="url(#clip0)">
<rect width="125" height="31.2" fill="white"/>
<path d="M16.3869 20.3343H22.8549V22.9503H23.8389V19.5423H16.3869V20.3343ZM17.5149 13.3983H22.8189V15.4863H17.5149V13.3983ZM20.6709 17.6343V16.2663H23.7909V12.6183H16.5549V16.2663H19.6869V17.6343H15.2949V18.4263H25.0389V17.6343H20.6709ZM27.426 20.5263H33.93V22.8423H34.914V19.7223H27.426V20.5263ZM31.722 18.0903V16.9623H35.082V16.1943H28.566V15.0663H34.854V12.4503H27.57V13.2183H33.882V14.3343H27.594V16.9623H30.726V18.0903H26.334V18.8943H36.102V18.0903H31.722ZM42.245 12.8463C40.013 12.8463 38.333 14.0343 38.333 15.8223C38.333 17.6223 40.013 18.7983 42.245 18.7983C44.477 18.7983 46.157 17.6223 46.157 15.8223C46.157 14.0343 44.477 12.8463 42.245 12.8463ZM42.245 13.6503C43.949 13.6503 45.221 14.5263 45.221 15.8223C45.221 17.1303 43.949 17.9943 42.245 17.9943C40.553 17.9943 39.269 17.1303 39.269 15.8223C39.269 14.5263 40.553 13.6503 42.245 13.6503ZM37.373 20.6943V21.5103H47.153V20.6943H37.373ZM53.7881 20.8023V18.7743H57.2321V17.9823H50.6081V16.2423H56.9801V12.9663H49.6121V13.7703H56.0201V15.4503H49.6361V18.7743H52.7921V20.8023H48.4121V21.6063H58.1921V20.8023H53.7881ZM64.4197 20.9703H66.9157V18.5583H63.4717V19.2903H65.9917V20.2743H63.4957V22.8183H64.0597C65.5837 22.8183 66.3157 22.8063 67.2757 22.6263L67.1917 21.8943C66.3517 22.0503 65.6677 22.0743 64.4197 22.0743V20.9703ZM68.4397 19.2783H70.2157V22.0863H68.4397V19.2783ZM67.5997 22.8183H71.0557V18.5583H67.5997V22.8183ZM64.5277 14.2023C64.5277 13.4703 65.5477 13.0383 67.2997 13.0383C69.0637 13.0383 70.0717 13.4703 70.0717 14.2023C70.0717 14.9343 69.0637 15.3543 67.2997 15.3543C65.5477 15.3543 64.5277 14.9343 64.5277 14.2023ZM67.7917 16.9143V16.0863C69.8557 16.0023 71.0797 15.3423 71.0797 14.2023C71.0797 12.9783 69.6757 12.2943 67.2997 12.2943C64.9357 12.2943 63.5197 12.9783 63.5197 14.2023C63.5197 15.3303 64.7317 15.9903 66.8077 16.0863V16.9143H62.4397V17.7063H72.1597V16.9143H67.7917ZM74.1148 13.3383V14.1303H78.1588C77.9548 16.6863 76.5148 18.7503 73.6228 20.1303L74.1508 20.9343C77.7268 19.1823 79.1548 16.4463 79.1548 13.3383H74.1148ZM81.3268 12.1743V22.9383H82.3108V12.1743H81.3268ZM85.1538 13.3383V14.1303H89.1978C88.9938 16.6863 87.5538 18.7503 84.6618 20.1303L85.1898 20.9343C88.7658 19.1823 90.1938 16.4463 90.1938 13.3383H85.1538ZM92.3658 12.1743V22.9383H93.3498V12.1743H92.3658Z" fill="black"/>
<rect y="31.2" width="125" height="31.2" fill="white"/>
<path d="M21.5469 48.438C19.9989 47.898 18.9309 46.554 18.9309 45.102V43.914H17.9469V45.03C17.9469 46.638 16.9029 48.066 15.2829 48.642L15.7749 49.434C17.0469 48.966 17.9949 47.994 18.4509 46.77C18.9189 47.886 19.8549 48.774 21.0549 49.218L21.5469 48.438ZM16.6509 51.234H22.6749V54.15H23.6589V50.442H16.6509V51.234ZM25.2549 46.218H23.6589V43.386H22.6749V49.902H23.6589V47.034H25.2549V46.218ZM29.502 45.438H31.422V44.634H26.514V45.438H28.554V46.41C28.554 48.39 27.714 50.346 26.214 51.246L26.814 51.978C27.882 51.306 28.662 50.046 29.034 48.57C29.406 49.938 30.15 51.09 31.194 51.714L31.794 50.994C30.306 50.154 29.502 48.282 29.502 46.41V45.438ZM32.382 47.238H30.606V48.042H32.382V53.574H33.318V43.614H32.382V47.238ZM34.542 43.362V54.126H35.49V43.362H34.542Z" fill="black"/>
</g>
<rect x="0.5" y="0.5" width="124" height="61.4" rx="11.5" stroke="black"/>
<defs>
<clipPath id="clip0">
</clipPath>
</defs>
</svg>
