<svg width="360" height="306" viewBox="0 0 360 306" fill="none" xmlns="http://www.w3.org/2000/svg">
<path d="M12 0.5H348C354.351 0.5 359.5 5.64873 359.5 12V305.5H0.5V12C0.5 5.64873 5.64873 0.5 12 0.5Z" fill="white"/>
<rect y="18" width="360" height="48" fill="white"/>
<path d="M28.688 38.192V39.904H30.896V43.408H33.008V34.64H30.896V38.192H28.688ZM29.568 41.36C27.328 40.624 26.304 38.896 26.24 37.216H29.104V35.52H21.184V37.216H24.08C24.016 39.056 22.944 40.928 20.608 41.744L21.68 43.408C23.392 42.832 24.56 41.632 25.2 40.144C25.84 41.44 26.944 42.48 28.544 43.008L29.568 41.36ZM28.032 47.792C26.096 47.792 25.088 47.392 25.088 46.56C25.088 45.728 26.096 45.328 28.032 45.328C29.952 45.328 30.96 45.728 30.96 46.56C30.96 47.392 29.952 47.792 28.032 47.792ZM28.032 43.728C24.896 43.728 22.976 44.768 22.976 46.56C22.976 48.352 24.896 49.392 28.032 49.392C31.152 49.392 33.072 48.352 33.072 46.56C33.072 44.768 31.152 43.728 28.032 43.728ZM45.6148 42.304H47.7268V34.64H45.6148V36.192H43.2468V37.872H45.6148V38.96H43.2468V40.624H45.6148V42.304ZM42.9427 40.16C41.2948 40.384 39.9028 40.416 38.0628 40.432V39.376H42.3988V35.296H35.9508V36.896H40.3188V37.872H35.9668V42.048H37.0868C39.4868 42.048 41.1188 42.032 43.0868 41.76L42.9427 40.16ZM39.9988 47.696V46.784H47.7268V42.864H37.8868V44.448H45.6468V45.328H37.9188V49.296H48.1588V47.696H39.9988Z" fill="black"/>
<rect y="66" width="360" height="48" fill="white"/>
<rect x="20" y="74" width="131.411" height="32" rx="16" fill="#C4C4C4"/>
<path d="M46.148 85.432H45.164V92.092H45.848C47.012 92.092 48.248 92.032 49.7 91.756L49.604 90.904C48.32 91.156 47.18 91.228 46.148 91.24V85.432ZM52.82 84.124V88.504H51.296V84.364H50.372V94.336H51.296V89.32H52.82V94.876H53.768V84.124H52.82ZM56.2511 85.276V86.092H60.1991C59.9711 88.636 58.4951 90.7 55.7471 92.08L56.2871 92.848C59.7671 91.108 61.1711 88.336 61.1711 85.276H56.2511ZM65.6831 88.492H63.9551V84.124H62.9711V94.888H63.9551V89.308H65.6831V88.492ZM75.4387 86.92V87.724H77.5627V90.544H78.5587V84.136H77.5627V86.92H75.4387ZM76.0387 89.368C74.4787 88.816 73.4227 87.46 73.4227 86.08V85.708H75.7867V84.916H70.0387V85.708H72.4387V86.08C72.4387 87.628 71.3347 89.08 69.7267 89.668L70.2427 90.448C71.5027 89.968 72.4987 88.96 72.9547 87.712C73.4227 88.816 74.3467 89.704 75.5467 90.136L76.0387 89.368ZM75.0067 94.12C73.3867 94.12 72.4027 93.664 72.4027 92.884C72.4027 92.104 73.3867 91.636 75.0067 91.636C76.6267 91.636 77.6107 92.104 77.6107 92.884C77.6107 93.664 76.6267 94.12 75.0067 94.12ZM75.0067 90.88C72.7987 90.88 71.4187 91.612 71.4187 92.884C71.4187 94.156 72.7987 94.888 75.0067 94.888C77.2147 94.888 78.5947 94.156 78.5947 92.884C78.5947 91.612 77.2147 90.88 75.0067 90.88ZM88.6018 89.776H89.5978V84.136H88.6018V85.444H86.5018V86.236H88.6018V87.364H86.5018V88.168H88.6018V89.776ZM86.4178 88.384C84.9178 88.6 83.7178 88.648 82.1458 88.648V87.34H85.7938V84.64H81.1498V85.408H84.8338V86.608H81.1858V89.416H81.9538C83.6338 89.416 84.9058 89.38 86.4898 89.14L86.4178 88.384ZM83.5858 94.036V92.86H89.5978V90.316H82.5898V91.072H88.6258V92.14H82.6138V94.804H90.0178V94.036H83.5858ZM98.1528 85.444H95.4648V84.124H94.4808V85.444H91.8048V86.236H98.1528V85.444ZM93.3408 88.828C93.3408 88.084 94.0008 87.604 94.9728 87.604C95.9448 87.604 96.6168 88.084 96.6168 88.828C96.6168 89.584 95.9448 90.064 94.9728 90.064C94.0008 90.064 93.3408 89.584 93.3408 88.828ZM97.5528 88.828C97.5528 87.628 96.4968 86.836 94.9728 86.836C93.4488 86.836 92.4048 87.628 92.4048 88.828C92.4048 90.04 93.4488 90.832 94.9728 90.832C96.4968 90.832 97.5528 90.04 97.5528 88.828ZM94.4088 91.564H93.4248V94.648H100.601V93.844H94.4088V91.564ZM100.121 87.676V84.124H99.1368V92.2H100.121V88.504H101.705V87.676H100.121ZM107.14 86.236H110.176V85.432H106.168V92.236H106.876C108.484 92.236 109.576 92.188 110.86 91.912L110.776 91.096C109.6 91.348 108.58 91.408 107.14 91.42V86.236ZM113.98 84.124V88.444H112.456V84.364H111.532V94.348H112.456V89.248H113.98V94.888H114.928V84.124H113.98ZM122.188 92.752V90.724H125.632V89.932H119.008V88.192H125.38V84.916H118.012V85.72H124.42V87.4H118.036V90.724H121.192V92.752H116.812V93.556H126.592V92.752H122.188Z" fill="black"/>
<rect y="114" width="360" height="48" fill="white"/>
<path d="M47.792 134.188H49.712V133.384H44.804V134.188H46.844V135.16C46.844 137.14 46.004 139.096 44.504 139.996L45.104 140.728C46.172 140.056 46.952 138.796 47.324 137.32C47.696 138.688 48.44 139.84 49.484 140.464L50.084 139.744C48.596 138.904 47.792 137.032 47.792 135.16V134.188ZM50.672 135.988H48.896V136.792H50.672V142.324H51.608V132.364H50.672V135.988ZM52.832 132.112V142.876H53.78V132.112H52.832ZM56.7551 140.284H63.2231V142.9H64.2071V139.492H56.7551V140.284ZM57.8831 133.348H63.1871V135.436H57.8831V133.348ZM61.0391 137.584V136.216H64.1591V132.568H56.9231V136.216H60.0551V137.584H55.6631V138.376H65.4071V137.584H61.0391ZM75.8581 135.904C73.9861 135.616 72.0901 134.332 72.0901 132.928V132.4H71.0821V132.928C71.0821 134.368 69.1981 135.64 67.2901 135.928L67.6741 136.696C69.3301 136.42 70.9261 135.508 71.5861 134.248C72.2701 135.484 73.8541 136.396 75.4861 136.672L75.8581 135.904ZM68.9221 139.552H67.9381V142.648H75.3901V141.844H68.9221V139.552ZM66.6901 137.608V138.4H71.1661V140.572H72.1501V138.4H76.4581V137.608H66.6901Z" fill="black"/>
<rect y="162" width="360" height="48" fill="white"/>
<path d="M27.16 189.224H35.288V192.392H37.4V187.544H27.16V189.224ZM29.4 179.864H35.24V181.768H29.4V179.864ZM33.384 184.808V183.432H37.32V178.216H27.32V183.432H31.272V184.808H25.688V186.488H39V184.808H33.384ZM41.8788 189.704H50.1028V192.328H52.2148V188.04H41.8788V189.704ZM48.1348 185.528V184.472H52.4228V182.872H44.1508V181.912H52.1188V177.928H42.0388V179.528H50.0388V180.424H42.0707V184.472H46.0228V185.528H40.4068V187.208H53.7508V185.528H48.1348Z" fill="black"/>
<rect y="210" width="360" height="48" fill="white"/>
<path d="M45.716 236.284H52.184V238.9H53.168V235.492H45.716V236.284ZM46.844 229.348H52.148V231.436H46.844V229.348ZM50 233.584V232.216H53.12V228.568H45.884V232.216H49.016V233.584H44.624V234.376H54.368V233.584H50ZM56.7551 236.476H63.2591V238.792H64.2431V235.672H56.7551V236.476ZM61.0511 234.04V232.912H64.4111V232.144H57.8951V231.016H64.1831V228.4H56.8991V229.168H63.2111V230.284H56.9231V232.912H60.0551V234.04H55.6631V234.844H65.4311V234.04H61.0511ZM77.5147 228.124V238.912H78.4987V228.124H77.5147ZM72.8227 228.952C71.2267 228.952 70.0867 230.416 70.0867 232.708C70.0867 235 71.2267 236.464 72.8227 236.464C74.4187 236.464 75.5587 235 75.5587 232.708C75.5587 230.416 74.4187 228.952 72.8227 228.952ZM72.8227 229.84C73.8667 229.84 74.6107 230.968 74.6107 232.708C74.6107 234.46 73.8667 235.588 72.8227 235.588C71.7667 235.588 71.0227 234.46 71.0227 232.708C71.0227 230.968 71.7667 229.84 72.8227 229.84ZM88.2658 230.2H81.9778V232.756H89.4658V231.988H82.9498V230.932H89.2378V228.4H81.9538V229.156H88.2658V230.2ZM82.9978 236.248H88.2778V237.952H82.9978V236.248ZM82.0378 238.744H89.2498V235.468H82.0378V238.744ZM80.7298 233.68V234.472H90.4858V233.68H80.7298ZM102.617 230.896V232.42H100.133V230.896H102.617ZM99.1614 233.464H96.2574V231.52H99.1614V233.464ZM100.133 233.224H102.617V236.092H103.613V228.136H102.617V230.104H100.133V228.844H99.1614V230.74H96.2574V228.844H95.2854V234.256H100.133V233.224ZM97.6734 237.844V235.312H96.6894V238.648H103.865V237.844H97.6734ZM113.656 230.908V232.348H110.836V233.152H113.656V234.568H114.652V228.136H113.656V230.104H111.22C111.292 229.732 111.34 229.336 111.34 228.94H106.48V229.732H110.272C110.092 231.592 108.496 233.02 105.928 233.788L106.324 234.568C108.64 233.896 110.272 232.636 110.968 230.908H113.656ZM111.136 238.072C109.552 238.072 108.544 237.58 108.544 236.764C108.544 235.96 109.552 235.468 111.136 235.468C112.72 235.468 113.728 235.96 113.728 236.764C113.728 237.58 112.72 238.072 111.136 238.072ZM111.136 234.688C108.964 234.688 107.572 235.468 107.572 236.764C107.572 238.06 108.964 238.84 111.136 238.84C113.308 238.84 114.7 238.06 114.7 236.764C114.7 235.468 113.308 234.688 111.136 234.688Z" fill="black"/>
<rect y="258" width="360" height="48" fill="white"/>
<path d="M45.716 284.284H52.184V286.9H53.168V283.492H45.716V284.284ZM46.844 277.348H52.148V279.436H46.844V277.348ZM50 281.584V280.216H53.12V276.568H45.884V280.216H49.016V281.584H44.624V282.376H54.368V281.584H50ZM56.7551 284.476H63.2591V286.792H64.2431V283.672H56.7551V284.476ZM61.0511 282.04V280.912H64.4111V280.144H57.8951V279.016H64.1831V276.4H56.8991V277.168H63.2111V278.284H56.9231V280.912H60.0551V282.04H55.6631V282.844H65.4311V282.04H61.0511ZM75.9307 281.188C74.3827 280.648 73.3147 279.304 73.3147 277.852V276.664H72.3307V277.78C72.3307 279.388 71.2867 280.816 69.6667 281.392L70.1587 282.184C71.4307 281.716 72.3787 280.744 72.8347 279.52C73.3027 280.636 74.2387 281.524 75.4387 281.968L75.9307 281.188ZM71.0347 283.984H77.0587V286.9H78.0427V283.192H71.0347V283.984ZM79.6387 278.968H78.0427V276.136H77.0587V282.652H78.0427V279.784H79.6387V278.968ZM83.8858 278.188H85.8058V277.384H80.8978V278.188H82.9378V279.16C82.9378 281.14 82.0978 283.096 80.5978 283.996L81.1978 284.728C82.2658 284.056 83.0458 282.796 83.4178 281.32C83.7898 282.688 84.5338 283.84 85.5778 284.464L86.1778 283.744C84.6898 282.904 83.8858 281.032 83.8858 279.16V278.188ZM86.7658 279.988H84.9898V280.792H86.7658V286.324H87.7018V276.364H86.7658V279.988ZM88.9258 276.112V286.876H89.8738V276.112H88.9258Z" fill="black"/>
<rect x="164" y="6" width="32" height="6" rx="3" fill="#707070"/>
<path d="M12 0.5H348C354.351 0.5 359.5 5.64873 359.5 12V305.5H0.5V12C0.5 5.64873 5.64873 0.5 12 0.5Z" stroke="#828282"/>
</svg>
